<svg width="1920" height="800" viewBox="0 0 1920 800" fill="none" xmlns="http://www.w3.org/2000/svg">
<g clip-path="url(#clip0_60_1221)">
<rect width="1920" height="558" fill="#2A77CE"/>
<g opacity="0.2">
<path d="M36.7353 523.46L22.3364 534.623L33.2624 549.335L47.6613 538.171L36.7353 523.46ZM44.1682 537.682L33.7414 545.766L25.8295 535.112L36.2563 527.029L44.1682 537.682Z" fill="#06C1B0"/>
<path d="M1526.97 21.4558H1487V62.2905H1526.97V21.4558ZM1521.45 56.6581H1492.51V27.0882H1521.45V56.6581Z" fill="#F9B44D"/>
<path d="M73.4094 83.964L108.015 57.4158L64.6727 35.0237L73.4094 83.964ZM77.3731 73.8798L72.1203 45.1577L97.6512 58.3229L77.3731 73.8798Z" fill="#F9B44D"/>
<path d="M465.121 53.3768C476.147 53.3768 485.243 44.0834 485.243 32.8186C485.243 21.5539 476.147 12.2605 465.121 12.2605C454.096 12.2605 445 21.5539 445 32.8186C445 44.0834 454.096 53.3768 465.121 53.3768ZM465.121 18.1745C473.115 18.1745 479.73 24.9333 479.73 33.1003C479.73 41.2672 473.115 48.026 465.121 48.026C457.128 48.026 450.513 41.2672 450.513 33.1003C450.513 24.9333 457.128 18.1745 465.121 18.1745Z" fill="#184EA6"/>
<path d="M769.135 100.729L784.294 84.9587L799.454 100.729L803.589 96.5051L788.153 81.016L803.589 65.527L799.454 61.3027L784.294 77.0734L769.135 61.3027L765 65.527L780.436 81.016L765 96.5051L769.135 100.729Z" fill="#06C1B0"/>
<path d="M1716.13 484.893L1731.29 469.122L1746.45 484.893L1750.59 480.668L1735.15 465.179L1750.59 449.69L1746.45 445.466L1731.29 461.237L1716.13 445.466L1712 449.69L1727.44 465.179L1712 480.668L1716.13 484.893Z" fill="#06C1B0"/>
<path d="M1826 63.0261L1857.49 93.3574L1871.72 45.9136L1826 63.0261ZM1836.4 65.3034L1863.21 55.1343L1854.85 83.0772L1836.4 65.3034Z" fill="#06C1B0"/>
<path d="M1836.5 512.899C1830.75 512.899 1826 517.749 1826 523.627C1826 529.505 1830.75 534.355 1836.5 534.355C1842.25 534.355 1847 529.505 1847 523.627C1847 517.749 1842.25 512.899 1836.5 512.899ZM1836.5 531.269C1832.33 531.269 1828.88 527.742 1828.88 523.48C1828.88 519.218 1832.33 515.691 1836.5 515.691C1840.67 515.691 1844.12 519.218 1844.12 523.48C1844.12 527.742 1840.67 531.269 1836.5 531.269Z" fill="#184EA6"/>
<path d="M128.121 239.08C117.096 239.08 108 248.374 108 259.638C108 270.903 117.096 280.197 128.121 280.197C139.147 280.197 148.243 270.903 148.243 259.638C148.243 248.374 139.147 239.08 128.121 239.08ZM128.121 274.283C120.128 274.283 113.513 267.524 113.513 259.357C113.513 251.19 120.128 244.431 128.121 244.431C136.115 244.431 142.73 251.19 142.73 259.357C142.73 267.524 136.115 274.283 128.121 274.283Z" fill="#F9B44D"/>
<path d="M1577.12 487.356C1566.1 487.356 1557 496.65 1557 507.914C1557 519.179 1566.1 528.473 1577.12 528.473C1588.15 528.473 1597.24 519.179 1597.24 507.914C1597.24 496.65 1588.15 487.356 1577.12 487.356ZM1577.12 522.559C1569.13 522.559 1562.51 515.8 1562.51 507.633C1562.51 499.466 1569.13 492.707 1577.12 492.707C1585.11 492.707 1591.73 499.466 1591.73 507.633C1591.73 515.8 1585.11 522.559 1577.12 522.559Z" fill="#F9B44D"/>
<path d="M493 486.897H536.275L514.775 442.401L493 486.897ZM502.096 481.264L514.775 455.074L527.454 481.264H502.096Z" fill="#184EA6"/>
<path d="M275.8 495.458L292.93 478.331L276.166 460.83L259.037 477.957L275.8 495.458ZM263.712 478.009L276.116 465.606L288.255 478.279L275.851 490.682L263.712 478.009Z" fill="#184EA6"/>
<path d="M1836.21 217.625L1826 228.25L1815.79 217.625L1813 220.471L1823.4 230.907L1813 241.343L1815.79 244.189L1826 233.563L1836.21 244.189L1839 241.343L1828.6 230.907L1839 220.471L1836.21 217.625Z" fill="#F9B44D"/>
</g>
<g filter="url(#filter0_d_60_1221)">
<rect x="493" y="294" width="934" height="427" rx="18" fill="white"/>
</g>
<path d="M1258.94 511.081C1258.94 580.586 1203.04 636.85 1134.19 636.85C1065.33 636.85 1009.43 580.586 1009.43 511.081C1009.43 441.576 1065.33 385.312 1134.19 385.312C1203.04 385.312 1258.94 441.576 1258.94 511.081Z" stroke="#06C1B0" stroke-opacity="0.1" stroke-width="12.3207"/>
<path fill-rule="evenodd" clip-rule="evenodd" d="M1005.65 484.505C1004.6 485.363 1003.9 486.582 1003.72 487.93C996.636 539.889 1021.98 594.643 1071.39 623.667C1135.33 661.222 1215.35 641.474 1250.12 579.556C1284.89 517.639 1261.25 437.001 1197.31 399.445C1177.45 387.779 1156.04 381.642 1134.91 380.581C1133.58 380.515 1132.28 380.958 1131.25 381.8V381.8C1127.03 385.259 1129.89 392.71 1135.35 393.025C1154.24 394.117 1173.4 399.689 1191.28 410.188C1249.79 444.554 1270.69 517.765 1239.5 573.316C1208.3 628.867 1135.93 647.29 1077.43 612.924C1032.52 586.544 1009.76 537.276 1015.72 490.677C1016.4 485.312 1009.82 481.098 1005.65 484.505V484.505Z" fill="#06C1B0"/>
<path d="M1229.73 511.081C1229.73 564.327 1186.91 607.411 1134.19 607.411C1081.46 607.411 1038.64 564.327 1038.64 511.081C1038.64 457.834 1081.46 414.751 1134.19 414.751C1186.91 414.751 1229.73 457.834 1229.73 511.081Z" stroke="#184EA6" stroke-opacity="0.1" stroke-width="12.3207"/>
<path fill-rule="evenodd" clip-rule="evenodd" d="M1033.8 504.687C1032.84 505.633 1032.27 506.907 1032.23 508.254C1032.2 509.193 1032.19 510.135 1032.19 511.08C1032.19 567.684 1077.73 613.57 1133.89 613.57C1190.06 613.57 1235.6 567.684 1235.6 511.08C1235.6 454.476 1190.06 408.589 1133.89 408.589C1133.76 408.589 1133.62 408.59 1133.48 408.59C1132.12 408.596 1130.82 409.152 1129.85 410.106L1129.19 410.755C1125.62 414.273 1128.88 420.91 1133.89 420.91V420.91C1183.17 420.91 1223.28 461.191 1223.28 511.08C1223.28 560.969 1183.17 601.249 1133.89 601.249C1084.62 601.249 1044.51 560.969 1044.51 511.08C1044.51 510.672 1044.51 510.264 1044.52 509.857C1044.59 504.55 1037.58 500.963 1033.8 504.687V504.687Z" fill="#184EA6"/>
<path d="M1202.14 511.081C1202.14 548.972 1171.67 579.608 1134.19 579.608C1096.7 579.608 1066.23 548.972 1066.23 511.081C1066.23 473.19 1096.7 442.554 1134.19 442.554C1171.67 442.554 1202.14 473.19 1202.14 511.081Z" stroke="#F9B44D" stroke-opacity="0.1" stroke-width="12.3207"/>
<path fill-rule="evenodd" clip-rule="evenodd" d="M1080.25 468.234C1077.86 467.438 1075.2 468.254 1073.79 470.364C1055.62 497.484 1056.48 534.104 1078.16 559.739C1104.31 590.659 1150.87 593.888 1182.14 566.951C1213.42 540.014 1217.57 493.112 1191.41 462.192C1176.36 444.397 1154.55 435.774 1132.79 436.794C1131.69 436.846 1130.66 437.322 1129.87 438.102V438.102C1126.39 441.582 1130.53 449.151 1135.44 449.091C1152.89 448.874 1170.11 456.088 1182.08 470.233C1203.69 495.79 1200.47 534.903 1174.19 557.544C1147.9 580.185 1109.11 577.255 1087.5 551.698C1069.81 530.791 1068.75 500.812 1083.34 478.2C1085.65 474.625 1084.27 469.566 1080.25 468.234V468.234Z" fill="#F9B44D"/>
<g filter="url(#filter1_d_60_1221)">
<rect x="602.91" y="476.413" width="413.234" height="124.587" rx="18.503" fill="white"/>
</g>
<rect x="627.581" y="582.497" width="98.6826" height="6.16766" rx="3.08383" fill="#F9B44D"/>
<path d="M692.816 539.008H689.433V548.389H688.053V539.008H684.678V537.866H692.816V539.008ZM693.091 544.407C693.091 543.641 693.24 542.951 693.539 542.34C693.842 541.728 694.261 541.255 694.796 540.923C695.336 540.59 695.95 540.424 696.639 540.424C697.704 540.424 698.564 540.793 699.22 541.53C699.88 542.267 700.21 543.248 700.21 544.472V544.566C700.21 545.327 700.063 546.011 699.769 546.618C699.48 547.221 699.063 547.69 698.519 548.028C697.979 548.365 697.357 548.534 696.654 548.534C695.594 548.534 694.734 548.165 694.074 547.428C693.418 546.691 693.091 545.715 693.091 544.501V544.407ZM694.435 544.566C694.435 545.433 694.635 546.129 695.035 546.655C695.44 547.18 695.979 547.442 696.654 547.442C697.333 547.442 697.873 547.177 698.273 546.647C698.673 546.112 698.873 545.366 698.873 544.407C698.873 543.549 698.668 542.855 698.258 542.325C697.854 541.79 697.314 541.523 696.639 541.523C695.979 541.523 695.447 541.785 695.042 542.311C694.637 542.836 694.435 543.588 694.435 544.566ZM703.701 538.675V540.569H705.161V541.602H703.701V546.452C703.701 546.765 703.766 547.001 703.896 547.16C704.026 547.315 704.248 547.392 704.561 547.392C704.715 547.392 704.927 547.363 705.197 547.305V548.389C704.845 548.486 704.503 548.534 704.171 548.534C703.573 548.534 703.123 548.353 702.819 547.992C702.516 547.63 702.364 547.117 702.364 546.452V541.602H700.94V540.569H702.364V538.675H703.701ZM711.557 548.389C711.48 548.235 711.418 547.96 711.37 547.565C710.748 548.211 710.006 548.534 709.143 548.534C708.372 548.534 707.739 548.317 707.243 547.883C706.751 547.445 706.505 546.891 706.505 546.221C706.505 545.407 706.814 544.775 707.43 544.327C708.052 543.874 708.924 543.648 710.047 543.648H711.348V543.033C711.348 542.566 711.208 542.195 710.929 541.92C710.649 541.641 710.237 541.501 709.693 541.501C709.216 541.501 708.816 541.622 708.493 541.863C708.17 542.103 708.009 542.395 708.009 542.737H706.664C706.664 542.347 706.802 541.971 707.076 541.61C707.356 541.243 707.732 540.954 708.204 540.742C708.681 540.53 709.204 540.424 709.772 540.424C710.673 540.424 711.379 540.651 711.89 541.104C712.401 541.552 712.666 542.171 712.685 542.961V546.561C712.685 547.278 712.777 547.849 712.96 548.274V548.389H711.557ZM709.339 547.37C709.758 547.37 710.155 547.262 710.531 547.045C710.907 546.828 711.179 546.546 711.348 546.199V544.595H710.3C708.662 544.595 707.842 545.074 707.842 546.033C707.842 546.452 707.982 546.78 708.262 547.016C708.541 547.252 708.9 547.37 709.339 547.37ZM716.234 548.389H714.897V537.287H716.234V548.389ZM686.933 561.269V565.389H685.545V554.866H689.426C690.578 554.866 691.479 555.16 692.129 555.747C692.785 556.335 693.112 557.113 693.112 558.082C693.112 559.103 692.792 559.891 692.151 560.445C691.515 560.995 690.602 561.269 689.412 561.269H686.933ZM686.933 560.135H689.426C690.168 560.135 690.737 559.961 691.132 559.614C691.527 559.262 691.725 558.757 691.725 558.096C691.725 557.47 691.527 556.969 691.132 556.593C690.737 556.217 690.195 556.022 689.506 556.008H686.933V560.135ZM694.218 561.407C694.218 560.641 694.368 559.951 694.666 559.34C694.97 558.728 695.389 558.255 695.924 557.923C696.464 557.59 697.078 557.424 697.767 557.424C698.832 557.424 699.692 557.793 700.347 558.53C701.007 559.267 701.337 560.248 701.337 561.472V561.566C701.337 562.327 701.19 563.011 700.897 563.618C700.607 564.221 700.191 564.69 699.646 565.028C699.106 565.365 698.485 565.534 697.781 565.534C696.721 565.534 695.861 565.165 695.201 564.428C694.546 563.691 694.218 562.715 694.218 561.501V561.407ZM695.562 561.566C695.562 562.433 695.762 563.129 696.162 563.655C696.567 564.18 697.107 564.442 697.781 564.442C698.461 564.442 699 564.177 699.4 563.647C699.8 563.112 700 562.366 700 561.407C700 560.549 699.796 559.855 699.386 559.325C698.981 558.79 698.442 558.523 697.767 558.523C697.107 558.523 696.574 558.785 696.17 559.311C695.765 559.836 695.562 560.588 695.562 561.566ZM704.467 565.389H703.13V557.569H704.467V565.389ZM703.022 555.494C703.022 555.278 703.087 555.094 703.217 554.945C703.352 554.796 703.549 554.721 703.809 554.721C704.07 554.721 704.267 554.796 704.402 554.945C704.537 555.094 704.604 555.278 704.604 555.494C704.604 555.711 704.537 555.892 704.402 556.036C704.267 556.181 704.07 556.253 703.809 556.253C703.549 556.253 703.352 556.181 703.217 556.036C703.087 555.892 703.022 555.711 703.022 555.494ZM707.879 557.569L707.922 558.552C708.519 557.8 709.3 557.424 710.264 557.424C711.916 557.424 712.75 558.357 712.764 560.221V565.389H711.427V560.214C711.423 559.65 711.292 559.234 711.037 558.964C710.786 558.694 710.394 558.559 709.859 558.559C709.425 558.559 709.045 558.675 708.717 558.906C708.389 559.137 708.134 559.441 707.951 559.817V565.389H706.614V557.569H707.879ZM716.595 555.675V557.569H718.055V558.602H716.595V563.452C716.595 563.765 716.66 564.001 716.79 564.16C716.92 564.315 717.142 564.392 717.455 564.392C717.609 564.392 717.821 564.363 718.091 564.305V565.389C717.74 565.486 717.397 565.534 717.065 565.534C716.467 565.534 716.017 565.353 715.713 564.992C715.41 564.63 715.258 564.117 715.258 563.452V558.602H713.834V557.569H715.258V555.675H716.595ZM724.177 563.315C724.177 562.953 724.04 562.674 723.765 562.476C723.495 562.274 723.021 562.101 722.341 561.956C721.667 561.811 721.129 561.638 720.729 561.436C720.334 561.233 720.04 560.992 719.848 560.713C719.66 560.433 719.566 560.101 719.566 559.715C719.566 559.075 719.836 558.532 720.375 558.089C720.92 557.646 721.614 557.424 722.457 557.424C723.343 557.424 724.061 557.653 724.611 558.111C725.165 558.569 725.442 559.154 725.442 559.867H724.098C724.098 559.501 723.941 559.185 723.628 558.92C723.319 558.655 722.929 558.523 722.457 558.523C721.97 558.523 721.59 558.629 721.315 558.841C721.04 559.053 720.903 559.33 720.903 559.672C720.903 559.995 721.031 560.238 721.286 560.402C721.541 560.566 722.002 560.722 722.666 560.872C723.336 561.021 723.878 561.199 724.293 561.407C724.707 561.614 725.013 561.864 725.211 562.158C725.413 562.447 725.514 562.802 725.514 563.221C725.514 563.92 725.235 564.481 724.676 564.905C724.117 565.324 723.392 565.534 722.5 565.534C721.874 565.534 721.32 565.423 720.838 565.201C720.356 564.98 719.978 564.671 719.703 564.276C719.433 563.876 719.298 563.445 719.298 562.982H720.635C720.66 563.43 720.838 563.787 721.17 564.052C721.508 564.312 721.951 564.442 722.5 564.442C723.006 564.442 723.411 564.341 723.715 564.139C724.023 563.932 724.177 563.657 724.177 563.315Z" fill="#434343"/>
<path d="M860.16 565.659H858.765L853.467 557.549V565.659H852.072V555.135H853.467L858.779 563.281V555.135H860.16V565.659ZM865.66 565.803C864.6 565.803 863.737 565.456 863.072 564.762C862.407 564.064 862.075 563.131 862.075 561.965V561.72C862.075 560.944 862.222 560.252 862.516 559.645C862.815 559.033 863.229 558.556 863.759 558.214C864.294 557.867 864.872 557.694 865.494 557.694C866.51 557.694 867.301 558.029 867.864 558.698C868.428 559.368 868.71 560.327 868.71 561.575V562.132H863.412C863.431 562.903 863.655 563.527 864.084 564.004C864.518 564.476 865.067 564.712 865.732 564.712C866.204 564.712 866.604 564.615 866.932 564.423C867.26 564.23 867.546 563.975 867.792 563.657L868.609 564.293C867.953 565.3 866.97 565.803 865.66 565.803ZM865.494 558.792C864.954 558.792 864.501 558.99 864.135 559.385C863.769 559.775 863.542 560.325 863.455 561.033H867.373V560.932C867.334 560.252 867.151 559.727 866.824 559.356C866.496 558.98 866.053 558.792 865.494 558.792ZM877.188 563.816L878.691 557.838H880.029L877.752 565.659H876.668L874.767 559.732L872.916 565.659H871.832L869.563 557.838H870.893L872.432 563.693L874.254 557.838H875.331L877.188 563.816ZM891.672 561.835C891.672 563.025 891.4 563.984 890.856 564.712C890.311 565.439 889.574 565.803 888.644 565.803C887.695 565.803 886.948 565.502 886.403 564.9V568.665H885.066V557.838H886.288L886.353 558.706C886.897 558.031 887.654 557.694 888.622 557.694C889.562 557.694 890.304 558.048 890.848 558.756C891.398 559.465 891.672 560.45 891.672 561.712V561.835ZM890.335 561.683C890.335 560.802 890.147 560.105 889.772 559.595C889.396 559.084 888.88 558.828 888.225 558.828C887.415 558.828 886.808 559.187 886.403 559.905V563.642C886.803 564.355 887.415 564.712 888.239 564.712C888.88 564.712 889.388 564.459 889.764 563.953C890.145 563.442 890.335 562.686 890.335 561.683ZM893.024 561.676C893.024 560.91 893.173 560.221 893.472 559.609C893.776 558.997 894.195 558.525 894.73 558.192C895.269 557.86 895.884 557.694 896.573 557.694C897.638 557.694 898.498 558.062 899.153 558.8C899.813 559.537 900.143 560.517 900.143 561.741V561.835C900.143 562.597 899.996 563.281 899.702 563.888C899.413 564.49 898.997 564.96 898.452 565.297C897.912 565.635 897.291 565.803 896.587 565.803C895.527 565.803 894.667 565.435 894.007 564.697C893.352 563.96 893.024 562.984 893.024 561.77V561.676ZM894.368 561.835C894.368 562.703 894.568 563.399 894.968 563.924C895.373 564.449 895.913 564.712 896.587 564.712C897.267 564.712 897.806 564.447 898.206 563.917C898.606 563.382 898.806 562.635 898.806 561.676C898.806 560.819 898.601 560.125 898.192 559.595C897.787 559.06 897.247 558.792 896.573 558.792C895.913 558.792 895.38 559.055 894.976 559.58C894.571 560.105 894.368 560.857 894.368 561.835ZM903.273 565.659H901.936V557.838H903.273V565.659ZM901.827 555.764C901.827 555.547 901.892 555.364 902.023 555.215C902.157 555.065 902.355 554.991 902.615 554.991C902.875 554.991 903.073 555.065 903.208 555.215C903.343 555.364 903.41 555.547 903.41 555.764C903.41 555.981 903.343 556.161 903.208 556.306C903.073 556.451 902.875 556.523 902.615 556.523C902.355 556.523 902.157 556.451 902.023 556.306C901.892 556.161 901.827 555.981 901.827 555.764ZM906.684 557.838L906.728 558.821C907.325 558.07 908.106 557.694 909.07 557.694C910.722 557.694 911.556 558.626 911.57 560.491V565.659H910.233V560.484C910.228 559.92 910.098 559.503 909.843 559.233C909.592 558.963 909.2 558.828 908.665 558.828C908.231 558.828 907.851 558.944 907.523 559.175C907.195 559.407 906.94 559.71 906.757 560.086V565.659H905.42V557.838H906.684ZM915.401 555.945V557.838H916.861V558.872H915.401V563.722C915.401 564.035 915.466 564.271 915.596 564.43C915.726 564.584 915.948 564.661 916.261 564.661C916.415 564.661 916.627 564.632 916.897 564.575V565.659C916.545 565.755 916.203 565.803 915.871 565.803C915.273 565.803 914.823 565.623 914.519 565.261C914.216 564.9 914.064 564.387 914.064 563.722V558.872H912.64V557.838H914.064V555.945H915.401ZM922.983 563.584C922.983 563.223 922.846 562.943 922.571 562.746C922.301 562.544 921.827 562.37 921.147 562.226C920.473 562.081 919.935 561.907 919.535 561.705C919.14 561.503 918.846 561.262 918.654 560.982C918.466 560.703 918.372 560.37 918.372 559.985C918.372 559.344 918.642 558.802 919.181 558.359C919.726 557.915 920.42 557.694 921.263 557.694C922.149 557.694 922.867 557.923 923.417 558.38C923.971 558.838 924.248 559.424 924.248 560.137H922.903C922.903 559.77 922.747 559.455 922.434 559.19C922.125 558.925 921.735 558.792 921.263 558.792C920.776 558.792 920.395 558.898 920.121 559.11C919.846 559.322 919.709 559.599 919.709 559.942C919.709 560.264 919.837 560.508 920.092 560.672C920.347 560.835 920.807 560.992 921.472 561.141C922.142 561.291 922.684 561.469 923.099 561.676C923.513 561.883 923.819 562.134 924.017 562.428C924.219 562.717 924.32 563.071 924.32 563.49C924.32 564.189 924.041 564.75 923.482 565.174C922.923 565.594 922.198 565.803 921.306 565.803C920.68 565.803 920.126 565.692 919.644 565.471C919.162 565.249 918.784 564.941 918.509 564.546C918.239 564.146 918.104 563.714 918.104 563.252H919.441C919.465 563.7 919.644 564.057 919.976 564.322C920.314 564.582 920.757 564.712 921.306 564.712C921.812 564.712 922.217 564.611 922.52 564.408C922.829 564.201 922.983 563.926 922.983 563.584ZM931.548 555.945V557.838H933.008V558.872H931.548V563.722C931.548 564.035 931.613 564.271 931.743 564.43C931.873 564.584 932.095 564.661 932.408 564.661C932.562 564.661 932.774 564.632 933.044 564.575V565.659C932.692 565.755 932.35 565.803 932.018 565.803C931.42 565.803 930.97 565.623 930.666 565.261C930.362 564.9 930.211 564.387 930.211 563.722V558.872H928.787V557.838H930.211V555.945H931.548ZM935.913 558.785C936.506 558.058 937.277 557.694 938.226 557.694C939.879 557.694 940.713 558.626 940.727 560.491V565.659H939.39V560.484C939.385 559.92 939.255 559.503 939 559.233C938.749 558.963 938.356 558.828 937.822 558.828C937.388 558.828 937.007 558.944 936.68 559.175C936.352 559.407 936.096 559.71 935.913 560.086V565.659H934.576V554.557H935.913V558.785ZM944.182 565.659H942.845V557.838H944.182V565.659ZM942.736 555.764C942.736 555.547 942.801 555.364 942.932 555.215C943.066 555.065 943.264 554.991 943.524 554.991C943.784 554.991 943.982 555.065 944.117 555.215C944.252 555.364 944.319 555.547 944.319 555.764C944.319 555.981 944.252 556.161 944.117 556.306C943.982 556.451 943.784 556.523 943.524 556.523C943.264 556.523 943.066 556.451 942.932 556.306C942.801 556.161 942.736 555.981 942.736 555.764ZM950.882 563.584C950.882 563.223 950.745 562.943 950.47 562.746C950.2 562.544 949.726 562.37 949.046 562.226C948.372 562.081 947.834 561.907 947.434 561.705C947.039 561.503 946.745 561.262 946.553 560.982C946.365 560.703 946.271 560.37 946.271 559.985C946.271 559.344 946.541 558.802 947.08 558.359C947.625 557.915 948.319 557.694 949.162 557.694C950.048 557.694 950.766 557.923 951.316 558.38C951.87 558.838 952.147 559.424 952.147 560.137H950.803C950.803 559.77 950.646 559.455 950.333 559.19C950.024 558.925 949.634 558.792 949.162 558.792C948.675 558.792 948.294 558.898 948.02 559.11C947.745 559.322 947.608 559.599 947.608 559.942C947.608 560.264 947.736 560.508 947.991 560.672C948.246 560.835 948.706 560.992 949.371 561.141C950.041 561.291 950.583 561.469 950.998 561.676C951.412 561.883 951.718 562.134 951.916 562.428C952.118 562.717 952.219 563.071 952.219 563.49C952.219 564.189 951.94 564.75 951.381 565.174C950.822 565.594 950.097 565.803 949.205 565.803C948.579 565.803 948.025 565.692 947.543 565.471C947.061 565.249 946.683 564.941 946.408 564.546C946.138 564.146 946.003 563.714 946.003 563.252H947.34C947.365 563.7 947.543 564.057 947.875 564.322C948.213 564.582 948.656 564.712 949.205 564.712C949.711 564.712 950.116 564.611 950.419 564.408C950.728 564.201 950.882 563.926 950.882 563.584ZM964.557 563.816L966.06 557.838H967.397L965.121 565.659H964.037L962.136 559.732L960.285 565.659H959.201L956.932 557.838H958.262L959.801 563.693L961.622 557.838H962.699L964.557 563.816ZM972.009 565.803C970.949 565.803 970.086 565.456 969.421 564.762C968.756 564.064 968.424 563.131 968.424 561.965V561.72C968.424 560.944 968.571 560.252 968.865 559.645C969.163 559.033 969.578 558.556 970.108 558.214C970.643 557.867 971.221 557.694 971.842 557.694C972.859 557.694 973.649 558.029 974.213 558.698C974.777 559.368 975.059 560.327 975.059 561.575V562.132H969.761C969.78 562.903 970.004 563.527 970.433 564.004C970.867 564.476 971.416 564.712 972.081 564.712C972.553 564.712 972.953 564.615 973.281 564.423C973.608 564.23 973.895 563.975 974.141 563.657L974.958 564.293C974.302 565.3 973.319 565.803 972.009 565.803ZM971.842 558.792C971.303 558.792 970.85 558.99 970.484 559.385C970.117 559.775 969.891 560.325 969.804 561.033H973.722V560.932C973.683 560.252 973.5 559.727 973.172 559.356C972.845 558.98 972.401 558.792 971.842 558.792ZM979.858 565.803C978.798 565.803 977.935 565.456 977.27 564.762C976.606 564.064 976.273 563.131 976.273 561.965V561.72C976.273 560.944 976.42 560.252 976.714 559.645C977.013 559.033 977.427 558.556 977.957 558.214C978.492 557.867 979.07 557.694 979.692 557.694C980.708 557.694 981.499 558.029 982.062 558.698C982.626 559.368 982.908 560.327 982.908 561.575V562.132H977.61C977.629 562.903 977.854 563.527 978.282 564.004C978.716 564.476 979.265 564.712 979.93 564.712C980.402 564.712 980.802 564.615 981.13 564.423C981.458 564.23 981.744 563.975 981.99 563.657L982.807 564.293C982.152 565.3 981.169 565.803 979.858 565.803ZM979.692 558.792C979.152 558.792 978.699 558.99 978.333 559.385C977.967 559.775 977.74 560.325 977.654 561.033H981.571V560.932C981.532 560.252 981.349 559.727 981.022 559.356C980.694 558.98 980.251 558.792 979.692 558.792ZM986.645 562.038L985.806 562.912V565.659H984.469V554.557H985.806V561.271L986.522 560.411L988.958 557.838H990.584L987.541 561.105L990.938 565.659H989.37L986.645 562.038Z" fill="#434343"/>
<path d="M644.949 565.521H638.683V541.366L631.202 543.686V538.59L644.277 533.907H644.949V565.521ZM656.159 549.996L657.981 533.95H675.674V539.176H663.12L662.339 545.963C663.828 545.168 665.411 544.77 667.088 544.77C670.094 544.77 672.451 545.703 674.156 547.567C675.862 549.432 676.715 552.041 676.715 555.395C676.715 557.433 676.281 559.262 675.414 560.881C674.561 562.485 673.332 563.736 671.728 564.632C670.123 565.514 668.23 565.955 666.047 565.955C664.139 565.955 662.368 565.572 660.734 564.805C659.101 564.025 657.807 562.933 656.853 561.531C655.914 560.129 655.415 558.532 655.357 556.739H661.558C661.688 558.055 662.144 559.081 662.924 559.818C663.719 560.541 664.753 560.902 666.025 560.902C667.442 560.902 668.533 560.397 669.299 559.385C670.065 558.358 670.448 556.913 670.448 555.048C670.448 553.256 670.008 551.882 669.126 550.928C668.244 549.974 666.994 549.497 665.375 549.497C663.886 549.497 662.679 549.887 661.754 550.668L661.146 551.232L656.159 549.996Z" fill="#434343"/>
<path d="M845.092 565.257H834.478V563.447L839.736 557.712C840.495 556.866 841.034 556.161 841.352 555.598C841.677 555.027 841.84 554.456 841.84 553.885C841.84 553.133 841.626 552.526 841.2 552.063C840.781 551.601 840.213 551.369 839.498 551.369C838.645 551.369 837.984 551.63 837.514 552.15C837.044 552.67 836.809 553.382 836.809 554.286H834.175C834.175 553.324 834.392 552.461 834.825 551.695C835.266 550.921 835.891 550.321 836.701 549.895C837.518 549.468 838.457 549.255 839.52 549.255C841.052 549.255 842.259 549.642 843.141 550.415C844.03 551.181 844.474 552.244 844.474 553.603C844.474 554.391 844.25 555.218 843.802 556.085C843.361 556.946 842.635 557.925 841.623 559.024L837.763 563.154H845.092V565.257Z" fill="#F9B44D"/>
<path d="M986.539 496.15L991.473 500.943L986.539 506.018" stroke="black" stroke-width="1.23353" stroke-linecap="round" stroke-linejoin="round"/>
<path d="M634.163 501.342H631.445V506.749H629.007V492.717H633.941C635.56 492.717 636.81 493.08 637.69 493.806C638.57 494.532 639.01 495.582 639.01 496.957C639.01 497.895 638.782 498.682 638.326 499.318C637.876 499.948 637.247 500.433 636.437 500.774L639.588 506.623V506.749H636.977L634.163 501.342ZM631.445 499.386H633.951C634.773 499.386 635.416 499.18 635.878 498.769C636.341 498.352 636.572 497.783 636.572 497.063C636.572 496.312 636.357 495.73 635.926 495.319C635.502 494.908 634.866 494.696 634.018 494.683H631.445V499.386ZM645.689 506.941C644.205 506.941 643 506.475 642.075 505.544C641.156 504.606 640.697 503.36 640.697 501.805V501.516C640.697 500.475 640.896 499.547 641.294 498.731C641.699 497.908 642.264 497.269 642.99 496.813C643.716 496.357 644.526 496.129 645.419 496.129C646.839 496.129 647.934 496.582 648.705 497.487C649.482 498.393 649.871 499.675 649.871 501.333V502.277H643.058C643.128 503.138 643.414 503.819 643.915 504.32C644.423 504.821 645.059 505.072 645.824 505.072C646.897 505.072 647.77 504.638 648.445 503.771L649.707 504.975C649.29 505.599 648.731 506.084 648.03 506.431C647.337 506.771 646.556 506.941 645.689 506.941ZM645.409 498.008C644.767 498.008 644.246 498.233 643.848 498.682C643.456 499.132 643.206 499.759 643.096 500.562H647.558V500.388C647.507 499.604 647.298 499.013 646.932 498.615C646.566 498.21 646.058 498.008 645.409 498.008ZM657.928 506.749C657.825 506.549 657.735 506.225 657.658 505.775C656.913 506.553 656 506.941 654.921 506.941C653.874 506.941 653.019 506.643 652.357 506.045C651.696 505.448 651.365 504.709 651.365 503.829C651.365 502.717 651.776 501.866 652.598 501.275C653.427 500.677 654.609 500.378 656.145 500.378H657.581V499.694C657.581 499.155 657.43 498.724 657.128 498.403C656.826 498.075 656.366 497.911 655.75 497.911C655.216 497.911 654.78 498.046 654.439 498.316C654.099 498.58 653.928 498.917 653.928 499.328H651.587C651.587 498.756 651.776 498.223 652.155 497.728C652.534 497.227 653.048 496.835 653.697 496.553C654.352 496.27 655.082 496.129 655.885 496.129C657.105 496.129 658.079 496.437 658.805 497.054C659.531 497.664 659.903 498.525 659.923 499.636V504.339C659.923 505.277 660.054 506.026 660.318 506.585V506.749H657.928ZM655.355 505.062C655.817 505.062 656.251 504.95 656.656 504.725C657.067 504.5 657.375 504.198 657.581 503.819V501.853H656.318C655.451 501.853 654.799 502.004 654.362 502.306C653.925 502.608 653.707 503.035 653.707 503.588C653.707 504.037 653.854 504.397 654.15 504.667C654.452 504.93 654.853 505.062 655.355 505.062ZM661.937 501.458C661.937 499.852 662.309 498.564 663.055 497.593C663.8 496.617 664.799 496.129 666.052 496.129C667.157 496.129 668.05 496.514 668.731 497.285V491.946H671.072V506.749H668.952L668.837 505.669C668.136 506.517 667.202 506.941 666.032 506.941C664.812 506.941 663.822 506.45 663.064 505.467C662.312 504.484 661.937 503.148 661.937 501.458ZM664.278 501.66C664.278 502.72 664.481 503.549 664.886 504.147C665.297 504.738 665.878 505.033 666.63 505.033C667.587 505.033 668.287 504.606 668.731 503.751V499.299C668.3 498.464 667.606 498.046 666.649 498.046C665.891 498.046 665.306 498.348 664.895 498.952C664.484 499.55 664.278 500.452 664.278 501.66ZM676.007 506.749H673.665V496.321H676.007V506.749ZM673.52 493.613C673.52 493.254 673.633 492.955 673.858 492.717C674.089 492.479 674.417 492.361 674.841 492.361C675.265 492.361 675.592 492.479 675.824 492.717C676.055 492.955 676.17 493.254 676.17 493.613C676.17 493.967 676.055 494.262 675.824 494.5C675.592 494.731 675.265 494.847 674.841 494.847C674.417 494.847 674.089 494.731 673.858 494.5C673.633 494.262 673.52 493.967 673.52 493.613ZM680.738 496.321L680.806 497.526C681.577 496.594 682.589 496.129 683.841 496.129C686.013 496.129 687.118 497.372 687.157 499.858V506.749H684.815V499.993C684.815 499.331 684.67 498.843 684.381 498.528C684.098 498.207 683.633 498.046 682.984 498.046C682.039 498.046 681.336 498.474 680.873 499.328V506.749H678.532V496.321H680.738ZM689.142 501.458C689.142 499.839 689.521 498.547 690.279 497.584C691.044 496.614 692.055 496.129 693.315 496.129C694.503 496.129 695.438 496.543 696.119 497.372L696.225 496.321H698.335V506.431C698.335 507.799 697.908 508.878 697.054 509.669C696.206 510.459 695.059 510.854 693.613 510.854C692.849 510.854 692.1 510.693 691.368 510.372C690.642 510.057 690.089 509.643 689.71 509.129L690.819 507.722C691.538 508.576 692.425 509.004 693.478 509.004C694.256 509.004 694.869 508.792 695.319 508.368C695.769 507.95 695.994 507.333 695.994 506.517V505.814C695.319 506.565 694.42 506.941 693.295 506.941C692.075 506.941 691.076 506.456 690.298 505.486C689.527 504.516 689.142 503.173 689.142 501.458ZM691.474 501.66C691.474 502.707 691.686 503.533 692.11 504.137C692.54 504.734 693.135 505.033 693.893 505.033C694.837 505.033 695.538 504.628 695.994 503.819V499.232C695.55 498.441 694.857 498.046 693.912 498.046C693.141 498.046 692.54 498.352 692.11 498.962C691.686 499.572 691.474 500.472 691.474 501.66ZM708.329 504.802H714.699V506.749H705.891V492.717H708.329V504.802ZM718.833 506.749H716.492V496.321H718.833V506.749ZM716.347 493.613C716.347 493.254 716.459 492.955 716.684 492.717C716.916 492.479 717.243 492.361 717.667 492.361C718.091 492.361 718.419 492.479 718.65 492.717C718.882 492.955 718.997 493.254 718.997 493.613C718.997 493.967 718.882 494.262 718.65 494.5C718.419 494.731 718.091 494.847 717.667 494.847C717.243 494.847 716.916 494.731 716.684 494.5C716.459 494.262 716.347 493.967 716.347 493.613ZM727.237 503.915C727.237 503.498 727.063 503.18 726.716 502.961C726.376 502.743 725.807 502.55 725.011 502.383C724.214 502.216 723.549 502.004 723.016 501.747C721.846 501.182 721.262 500.362 721.262 499.29C721.262 498.39 721.641 497.638 722.399 497.034C723.157 496.431 724.121 496.129 725.29 496.129C726.536 496.129 727.542 496.437 728.306 497.054C729.077 497.671 729.463 498.47 729.463 499.453H727.121C727.121 499.004 726.954 498.631 726.62 498.335C726.286 498.033 725.843 497.883 725.29 497.883C724.776 497.883 724.355 498.001 724.028 498.239C723.706 498.477 723.546 498.795 723.546 499.193C723.546 499.553 723.697 499.832 723.999 500.032C724.301 500.231 724.911 500.433 725.83 500.639C726.749 500.838 727.468 501.079 727.988 501.361C728.515 501.638 728.904 501.972 729.155 502.364C729.412 502.756 729.54 503.231 729.54 503.79C729.54 504.728 729.151 505.489 728.374 506.074C727.597 506.652 726.578 506.941 725.319 506.941C724.465 506.941 723.703 506.787 723.035 506.479C722.367 506.17 721.846 505.746 721.474 505.207C721.101 504.667 720.915 504.086 720.915 503.462H723.189C723.221 504.015 723.43 504.442 723.816 504.744C724.201 505.04 724.712 505.187 725.348 505.187C725.965 505.187 726.434 505.072 726.755 504.84C727.076 504.603 727.237 504.294 727.237 503.915ZM734.522 493.787V496.321H736.363V498.056H734.522V503.877C734.522 504.275 734.599 504.564 734.754 504.744C734.914 504.918 735.197 505.004 735.602 505.004C735.872 505.004 736.145 504.972 736.421 504.908V506.72C735.888 506.867 735.374 506.941 734.879 506.941C733.08 506.941 732.181 505.949 732.181 503.963V498.056H730.465V496.321H732.181V493.787H734.522Z" fill="#434343"/>
<ellipse rx="9.08521" ry="9.77389" transform="matrix(0.897621 -0.440769 0.367589 0.929989 589.235 594.371)" stroke="#F9B44D" stroke-width="2.79762" stroke-linecap="round" stroke-linejoin="round"/>
<path fill-rule="evenodd" clip-rule="evenodd" d="M584.889 622.454C584.635 621.816 584.513 621.122 584.535 620.424C584.628 618.299 586.466 616.295 588.128 614.979C589.323 614.018 590.576 613.153 591.88 612.388C594.273 610.922 596.777 609.693 599.363 608.714C600.749 608.159 602.169 607.712 603.61 607.377C605.603 606.897 608.137 606.651 609.64 608.096C610.605 609.024 611.143 610.386 611.106 611.805C611.048 614.017 609.176 615.935 607.506 617.233C606.318 618.206 605.067 619.078 603.761 619.841C601.811 621.027 599.789 622.062 597.71 622.937C597.241 623.167 596.788 623.39 596.278 623.515C594.897 624.073 593.48 624.511 592.04 624.827C590.038 625.332 587.52 625.57 586.001 624.133C585.523 623.672 585.143 623.099 584.889 622.454Z" stroke="#F9B44D" stroke-width="2.79762" stroke-linecap="round" stroke-linejoin="round"/>
<g filter="url(#filter2_d_60_1221)">
<rect x="573" y="360" width="413.234" height="124.587" rx="18.503" fill="white"/>
</g>
<path d="M688.81 422.594H685.427V431.976H684.047V422.594H680.672V421.452H688.81V422.594ZM689.085 427.993C689.085 427.227 689.234 426.538 689.533 425.926C689.836 425.314 690.256 424.842 690.79 424.51C691.33 424.177 691.944 424.011 692.633 424.011C693.698 424.011 694.558 424.379 695.214 425.117C695.874 425.854 696.204 426.835 696.204 428.058V428.152C696.204 428.914 696.057 429.598 695.763 430.205C695.474 430.807 695.057 431.277 694.513 431.614C693.973 431.952 693.351 432.12 692.648 432.12C691.588 432.12 690.728 431.752 690.068 431.015C689.412 430.277 689.085 429.302 689.085 428.087V427.993ZM690.429 428.152C690.429 429.02 690.629 429.716 691.029 430.241C691.434 430.766 691.973 431.029 692.648 431.029C693.327 431.029 693.867 430.764 694.267 430.234C694.667 429.699 694.867 428.952 694.867 427.993C694.867 427.136 694.662 426.442 694.252 425.912C693.848 425.377 693.308 425.109 692.633 425.109C691.973 425.109 691.441 425.372 691.036 425.897C690.631 426.423 690.429 427.174 690.429 428.152ZM699.695 422.262V424.155H701.155V425.189H699.695V430.039C699.695 430.352 699.76 430.588 699.89 430.747C700.02 430.901 700.242 430.978 700.555 430.978C700.709 430.978 700.921 430.949 701.191 430.892V431.976C700.839 432.072 700.497 432.12 700.165 432.12C699.567 432.12 699.117 431.94 698.813 431.578C698.51 431.217 698.358 430.704 698.358 430.039V425.189H696.934V424.155H698.358V422.262H699.695ZM707.551 431.976C707.474 431.822 707.412 431.547 707.364 431.152C706.742 431.798 706 432.12 705.137 432.12C704.366 432.12 703.733 431.904 703.237 431.47C702.745 431.031 702.499 430.477 702.499 429.808C702.499 428.993 702.808 428.362 703.424 427.914C704.046 427.461 704.918 427.234 706.041 427.234H707.342V426.62C707.342 426.153 707.202 425.782 706.923 425.507C706.643 425.228 706.231 425.088 705.687 425.088C705.21 425.088 704.81 425.208 704.487 425.449C704.164 425.69 704.003 425.982 704.003 426.324H702.658C702.658 425.933 702.796 425.558 703.07 425.196C703.35 424.83 703.726 424.541 704.198 424.329C704.675 424.117 705.198 424.011 705.766 424.011C706.667 424.011 707.373 424.237 707.884 424.69C708.395 425.138 708.66 425.758 708.679 426.548V430.147C708.679 430.865 708.771 431.436 708.954 431.86V431.976H707.551ZM705.333 430.957C705.752 430.957 706.149 430.848 706.525 430.631C706.901 430.415 707.173 430.133 707.342 429.786V428.181H706.294C704.656 428.181 703.836 428.661 703.836 429.62C703.836 430.039 703.976 430.366 704.256 430.603C704.535 430.839 704.894 430.957 705.333 430.957ZM712.228 431.976H710.891V420.874H712.228V431.976ZM682.927 444.856V448.976H681.539V438.452H685.42C686.572 438.452 687.473 438.746 688.123 439.334C688.779 439.922 689.106 440.7 689.106 441.669C689.106 442.69 688.786 443.478 688.145 444.032C687.509 444.581 686.596 444.856 685.406 444.856H682.927ZM682.927 443.721H685.42C686.162 443.721 686.731 443.548 687.126 443.201C687.521 442.849 687.719 442.343 687.719 441.683C687.719 441.057 687.521 440.556 687.126 440.18C686.731 439.804 686.189 439.609 685.5 439.594H682.927V443.721ZM690.212 444.993C690.212 444.227 690.362 443.538 690.66 442.926C690.964 442.314 691.383 441.842 691.918 441.51C692.458 441.177 693.072 441.011 693.761 441.011C694.826 441.011 695.686 441.379 696.341 442.117C697.001 442.854 697.331 443.835 697.331 445.058V445.152C697.331 445.914 697.184 446.598 696.891 447.205C696.601 447.807 696.185 448.277 695.64 448.614C695.101 448.952 694.479 449.12 693.775 449.12C692.715 449.12 691.855 448.752 691.195 448.015C690.54 447.277 690.212 446.302 690.212 445.087V444.993ZM691.557 445.152C691.557 446.02 691.756 446.716 692.156 447.241C692.561 447.766 693.101 448.029 693.775 448.029C694.455 448.029 694.994 447.764 695.394 447.234C695.794 446.699 695.994 445.952 695.994 444.993C695.994 444.136 695.79 443.442 695.38 442.912C694.975 442.377 694.436 442.109 693.761 442.109C693.101 442.109 692.568 442.372 692.164 442.897C691.759 443.423 691.557 444.174 691.557 445.152ZM700.461 448.976H699.124V441.155H700.461V448.976ZM699.016 439.081C699.016 438.864 699.081 438.681 699.211 438.532C699.346 438.382 699.543 438.308 699.803 438.308C700.064 438.308 700.261 438.382 700.396 438.532C700.531 438.681 700.598 438.864 700.598 439.081C700.598 439.298 700.531 439.479 700.396 439.623C700.261 439.768 700.064 439.84 699.803 439.84C699.543 439.84 699.346 439.768 699.211 439.623C699.081 439.479 699.016 439.298 699.016 439.081ZM703.873 441.155L703.916 442.138C704.513 441.387 705.294 441.011 706.258 441.011C707.91 441.011 708.744 441.943 708.759 443.808V448.976H707.421V443.801C707.417 443.237 707.286 442.82 707.031 442.55C706.781 442.281 706.388 442.146 705.853 442.146C705.419 442.146 705.039 442.261 704.711 442.493C704.383 442.724 704.128 443.027 703.945 443.403V448.976H702.608V441.155H703.873ZM712.589 439.262V441.155H714.049V442.189H712.589V447.039C712.589 447.352 712.654 447.588 712.784 447.747C712.914 447.901 713.136 447.978 713.449 447.978C713.603 447.978 713.816 447.949 714.085 447.892V448.976C713.734 449.072 713.391 449.12 713.059 449.12C712.462 449.12 712.011 448.94 711.707 448.578C711.404 448.217 711.252 447.704 711.252 447.039V442.189H709.828V441.155H711.252V439.262H712.589ZM720.171 446.901C720.171 446.54 720.034 446.261 719.759 446.063C719.489 445.861 719.015 445.687 718.335 445.543C717.661 445.398 717.123 445.225 716.723 445.022C716.328 444.82 716.034 444.579 715.842 444.299C715.654 444.02 715.56 443.688 715.56 443.302C715.56 442.661 715.83 442.119 716.369 441.676C716.914 441.233 717.608 441.011 718.451 441.011C719.337 441.011 720.055 441.24 720.605 441.698C721.159 442.155 721.436 442.741 721.436 443.454H720.092C720.092 443.088 719.935 442.772 719.622 442.507C719.313 442.242 718.923 442.109 718.451 442.109C717.964 442.109 717.584 442.215 717.309 442.428C717.034 442.64 716.897 442.917 716.897 443.259C716.897 443.582 717.025 443.825 717.28 443.989C717.535 444.153 717.996 444.309 718.661 444.458C719.33 444.608 719.872 444.786 720.287 444.993C720.701 445.201 721.007 445.451 721.205 445.745C721.407 446.034 721.508 446.388 721.508 446.808C721.508 447.506 721.229 448.068 720.67 448.492C720.111 448.911 719.386 449.12 718.494 449.12C717.868 449.12 717.314 449.01 716.832 448.788C716.35 448.566 715.972 448.258 715.697 447.863C715.427 447.463 715.292 447.032 715.292 446.569H716.63C716.654 447.017 716.832 447.374 717.164 447.639C717.502 447.899 717.945 448.029 718.494 448.029C719 448.029 719.405 447.928 719.709 447.725C720.017 447.518 720.171 447.244 720.171 446.901Z" fill="#434343"/>
<path d="M830.25 449.245H828.855L823.557 441.136V449.245H822.162V438.722H823.557L828.869 446.867V438.722H830.25V449.245ZM835.75 449.39C834.69 449.39 833.827 449.043 833.162 448.349C832.497 447.65 832.165 446.718 832.165 445.552V445.306C832.165 444.53 832.312 443.839 832.606 443.232C832.904 442.62 833.319 442.143 833.849 441.801C834.384 441.454 834.962 441.28 835.584 441.28C836.6 441.28 837.391 441.615 837.954 442.285C838.518 442.955 838.8 443.914 838.8 445.162V445.718H833.502C833.521 446.489 833.745 447.113 834.174 447.59C834.608 448.062 835.157 448.298 835.822 448.298C836.294 448.298 836.694 448.202 837.022 448.009C837.35 447.817 837.636 447.561 837.882 447.243L838.699 447.879C838.043 448.886 837.06 449.39 835.75 449.39ZM835.584 442.379C835.044 442.379 834.591 442.576 834.225 442.972C833.859 443.362 833.632 443.911 833.545 444.619H837.463V444.518C837.424 443.839 837.241 443.314 836.913 442.943C836.586 442.567 836.143 442.379 835.584 442.379ZM847.278 447.402L848.781 441.425H850.119L847.842 449.245H846.758L844.857 443.318L843.006 449.245H841.922L839.653 441.425H840.983L842.522 447.279L844.344 441.425H845.421L847.278 447.402ZM861.762 445.422C861.762 446.612 861.49 447.571 860.946 448.298C860.401 449.026 859.664 449.39 858.734 449.39C857.785 449.39 857.038 449.089 856.493 448.486V452.252H855.156V441.425H856.378L856.443 442.292C856.987 441.618 857.744 441.28 858.712 441.28C859.652 441.28 860.394 441.634 860.938 442.343C861.488 443.051 861.762 444.036 861.762 445.299V445.422ZM860.425 445.27C860.425 444.388 860.237 443.692 859.862 443.181C859.486 442.67 858.97 442.415 858.315 442.415C857.505 442.415 856.898 442.774 856.493 443.492V447.229C856.893 447.942 857.505 448.298 858.329 448.298C858.97 448.298 859.478 448.045 859.854 447.539C860.235 447.029 860.425 446.272 860.425 445.27ZM863.114 445.263C863.114 444.497 863.263 443.808 863.562 443.196C863.866 442.584 864.285 442.111 864.82 441.779C865.359 441.447 865.974 441.28 866.663 441.28C867.728 441.28 868.588 441.649 869.243 442.386C869.903 443.123 870.233 444.104 870.233 445.328V445.422C870.233 446.183 870.086 446.867 869.792 447.474C869.503 448.077 869.087 448.547 868.542 448.884C868.002 449.221 867.381 449.39 866.677 449.39C865.617 449.39 864.757 449.021 864.097 448.284C863.442 447.547 863.114 446.571 863.114 445.357V445.263ZM864.458 445.422C864.458 446.289 864.658 446.985 865.058 447.511C865.463 448.036 866.003 448.298 866.677 448.298C867.357 448.298 867.896 448.033 868.296 447.503C868.696 446.969 868.896 446.222 868.896 445.263C868.896 444.405 868.691 443.711 868.282 443.181C867.877 442.646 867.337 442.379 866.663 442.379C866.003 442.379 865.47 442.642 865.065 443.167C864.661 443.692 864.458 444.444 864.458 445.422ZM873.363 449.245H872.026V441.425H873.363V449.245ZM871.917 439.35C871.917 439.134 871.982 438.951 872.113 438.801C872.247 438.652 872.445 438.577 872.705 438.577C872.965 438.577 873.163 438.652 873.298 438.801C873.433 438.951 873.5 439.134 873.5 439.35C873.5 439.567 873.433 439.748 873.298 439.893C873.163 440.037 872.965 440.109 872.705 440.109C872.445 440.109 872.247 440.037 872.113 439.893C871.982 439.748 871.917 439.567 871.917 439.35ZM876.774 441.425L876.818 442.408C877.415 441.656 878.196 441.28 879.16 441.28C880.812 441.28 881.646 442.213 881.66 444.077V449.245H880.323V444.07C880.318 443.506 880.188 443.09 879.933 442.82C879.682 442.55 879.29 442.415 878.755 442.415C878.321 442.415 877.94 442.531 877.613 442.762C877.285 442.993 877.03 443.297 876.847 443.673V449.245H875.51V441.425H876.774ZM885.491 439.531V441.425H886.951V442.458H885.491V447.308C885.491 447.621 885.556 447.858 885.686 448.017C885.816 448.171 886.038 448.248 886.351 448.248C886.505 448.248 886.717 448.219 886.987 448.161V449.245C886.635 449.342 886.293 449.39 885.961 449.39C885.363 449.39 884.913 449.209 884.609 448.848C884.306 448.486 884.154 447.973 884.154 447.308V442.458H882.73V441.425H884.154V439.531H885.491ZM893.073 447.171C893.073 446.809 892.936 446.53 892.661 446.332C892.391 446.13 891.917 445.957 891.237 445.812C890.563 445.668 890.025 445.494 889.625 445.292C889.23 445.089 888.936 444.848 888.744 444.569C888.556 444.289 888.462 443.957 888.462 443.571C888.462 442.931 888.731 442.389 889.271 441.945C889.816 441.502 890.51 441.28 891.353 441.28C892.239 441.28 892.957 441.509 893.507 441.967C894.061 442.425 894.338 443.01 894.338 443.723H892.993C892.993 443.357 892.837 443.041 892.524 442.776C892.215 442.511 891.825 442.379 891.353 442.379C890.866 442.379 890.485 442.485 890.211 442.697C889.936 442.909 889.799 443.186 889.799 443.528C889.799 443.851 889.926 444.094 890.182 444.258C890.437 444.422 890.897 444.579 891.562 444.728C892.232 444.877 892.774 445.056 893.189 445.263C893.603 445.47 893.909 445.721 894.107 446.014C894.309 446.304 894.41 446.658 894.41 447.077C894.41 447.776 894.131 448.337 893.572 448.761C893.013 449.18 892.288 449.39 891.396 449.39C890.77 449.39 890.216 449.279 889.734 449.057C889.252 448.836 888.874 448.527 888.599 448.132C888.329 447.732 888.194 447.301 888.194 446.838H889.531C889.555 447.287 889.734 447.643 890.066 447.908C890.404 448.168 890.847 448.298 891.396 448.298C891.902 448.298 892.307 448.197 892.61 447.995C892.919 447.788 893.073 447.513 893.073 447.171ZM901.638 439.531V441.425H903.098V442.458H901.638V447.308C901.638 447.621 901.703 447.858 901.833 448.017C901.963 448.171 902.185 448.248 902.498 448.248C902.652 448.248 902.864 448.219 903.134 448.161V449.245C902.782 449.342 902.44 449.39 902.108 449.39C901.51 449.39 901.06 449.209 900.756 448.848C900.452 448.486 900.301 447.973 900.301 447.308V442.458H898.877V441.425H900.301V439.531H901.638ZM906.003 442.372C906.596 441.644 907.367 441.28 908.316 441.28C909.969 441.28 910.803 442.213 910.817 444.077V449.245H909.48V444.07C909.475 443.506 909.345 443.09 909.09 442.82C908.839 442.55 908.446 442.415 907.911 442.415C907.478 442.415 907.097 442.531 906.77 442.762C906.442 442.993 906.186 443.297 906.003 443.673V449.245H904.666V438.143H906.003V442.372ZM914.272 449.245H912.935V441.425H914.272V449.245ZM912.826 439.35C912.826 439.134 912.891 438.951 913.021 438.801C913.156 438.652 913.354 438.577 913.614 438.577C913.874 438.577 914.072 438.652 914.207 438.801C914.342 438.951 914.409 439.134 914.409 439.35C914.409 439.567 914.342 439.748 914.207 439.893C914.072 440.037 913.874 440.109 913.614 440.109C913.354 440.109 913.156 440.037 913.021 439.893C912.891 439.748 912.826 439.567 912.826 439.35ZM920.972 447.171C920.972 446.809 920.835 446.53 920.56 446.332C920.29 446.13 919.816 445.957 919.136 445.812C918.462 445.668 917.924 445.494 917.524 445.292C917.129 445.089 916.835 444.848 916.643 444.569C916.455 444.289 916.361 443.957 916.361 443.571C916.361 442.931 916.631 442.389 917.17 441.945C917.715 441.502 918.409 441.28 919.252 441.28C920.138 441.28 920.856 441.509 921.406 441.967C921.96 442.425 922.237 443.01 922.237 443.723H920.892C920.892 443.357 920.736 443.041 920.423 442.776C920.114 442.511 919.724 442.379 919.252 442.379C918.765 442.379 918.384 442.485 918.11 442.697C917.835 442.909 917.698 443.186 917.698 443.528C917.698 443.851 917.826 444.094 918.081 444.258C918.336 444.422 918.796 444.579 919.461 444.728C920.131 444.877 920.673 445.056 921.088 445.263C921.502 445.47 921.808 445.721 922.006 446.014C922.208 446.304 922.309 446.658 922.309 447.077C922.309 447.776 922.03 448.337 921.471 448.761C920.912 449.18 920.187 449.39 919.295 449.39C918.669 449.39 918.115 449.279 917.633 449.057C917.151 448.836 916.773 448.527 916.498 448.132C916.228 447.732 916.093 447.301 916.093 446.838H917.43C917.454 447.287 917.633 447.643 917.965 447.908C918.303 448.168 918.746 448.298 919.295 448.298C919.801 448.298 920.206 448.197 920.509 447.995C920.818 447.788 920.972 447.513 920.972 447.171ZM934.647 447.402L936.15 441.425H937.487L935.211 449.245H934.126L932.226 443.318L930.375 449.245H929.291L927.022 441.425H928.352L929.891 447.279L931.712 441.425H932.789L934.647 447.402ZM942.099 449.39C941.039 449.39 940.176 449.043 939.511 448.349C938.846 447.65 938.514 446.718 938.514 445.552V445.306C938.514 444.53 938.661 443.839 938.955 443.232C939.253 442.62 939.668 442.143 940.198 441.801C940.733 441.454 941.311 441.28 941.932 441.28C942.949 441.28 943.739 441.615 944.303 442.285C944.867 442.955 945.149 443.914 945.149 445.162V445.718H939.851C939.87 446.489 940.094 447.113 940.523 447.59C940.957 448.062 941.506 448.298 942.171 448.298C942.643 448.298 943.043 448.202 943.371 448.009C943.698 447.817 943.985 447.561 944.231 447.243L945.048 447.879C944.392 448.886 943.409 449.39 942.099 449.39ZM941.932 442.379C941.393 442.379 940.94 442.576 940.574 442.972C940.207 443.362 939.981 443.911 939.894 444.619H943.812V444.518C943.773 443.839 943.59 443.314 943.262 442.943C942.935 442.567 942.491 442.379 941.932 442.379ZM949.948 449.39C948.888 449.39 948.025 449.043 947.36 448.349C946.695 447.65 946.363 446.718 946.363 445.552V445.306C946.363 444.53 946.51 443.839 946.804 443.232C947.103 442.62 947.517 442.143 948.047 441.801C948.582 441.454 949.16 441.28 949.782 441.28C950.798 441.28 951.589 441.615 952.152 442.285C952.716 442.955 952.998 443.914 952.998 445.162V445.718H947.7C947.719 446.489 947.943 447.113 948.372 447.59C948.806 448.062 949.355 448.298 950.02 448.298C950.492 448.298 950.892 448.202 951.22 448.009C951.548 447.817 951.834 447.561 952.08 447.243L952.897 447.879C952.242 448.886 951.259 449.39 949.948 449.39ZM949.782 442.379C949.242 442.379 948.789 442.576 948.423 442.972C948.057 443.362 947.83 443.911 947.744 444.619H951.661V444.518C951.622 443.839 951.439 443.314 951.112 442.943C950.784 442.567 950.341 442.379 949.782 442.379ZM956.735 445.624L955.896 446.499V449.245H954.559V438.143H955.896V444.858L956.612 443.998L959.048 441.425H960.674L957.631 444.692L961.028 449.245H959.46L956.735 445.624Z" fill="#434343"/>
<path d="M615.039 449.108H608.772V424.952L601.292 427.273V422.177L614.367 417.493H615.039V449.108ZM643.856 437.225H647.434V442.277H643.856V449.108H637.589V442.277H624.645L624.363 438.331L637.524 417.537H643.856V437.225ZM630.607 437.225H637.589V426.08L637.177 426.796L630.607 437.225ZM672.456 449.108H650.816V444.814L661.029 433.929C662.431 432.397 663.465 431.06 664.13 429.918C664.809 428.776 665.149 427.692 665.149 426.665C665.149 425.263 664.795 424.165 664.086 423.37C663.378 422.56 662.366 422.155 661.051 422.155C659.634 422.155 658.514 422.647 657.69 423.63C656.88 424.598 656.475 425.878 656.475 427.468H650.187C650.187 425.545 650.643 423.789 651.553 422.199C652.479 420.609 653.78 419.365 655.456 418.469C657.133 417.558 659.034 417.103 661.159 417.103C664.412 417.103 666.934 417.884 668.726 419.445C670.533 421.006 671.437 423.211 671.437 426.058C671.437 427.619 671.032 429.21 670.223 430.829C669.413 432.448 668.025 434.334 666.059 436.488L658.882 444.055H672.456V449.108Z" fill="#434343"/>
<rect x="597.671" y="466.084" width="124.587" height="6.16766" rx="3.08383" fill="#184EA6"/>
<path d="M802.562 448.844H791.948V447.034L797.207 441.298C797.966 440.453 798.504 439.748 798.822 439.184C799.147 438.613 799.31 438.042 799.31 437.471C799.31 436.72 799.097 436.112 798.67 435.65C798.251 435.187 797.684 434.956 796.968 434.956C796.115 434.956 795.454 435.216 794.984 435.737C794.514 436.257 794.279 436.969 794.279 437.872H791.645C791.645 436.911 791.862 436.047 792.295 435.281C792.736 434.508 793.362 433.908 794.171 433.482C794.988 433.055 795.927 432.842 796.99 432.842C798.522 432.842 799.729 433.229 800.611 434.002C801.5 434.768 801.944 435.831 801.944 437.189C801.944 437.977 801.72 438.805 801.272 439.672C800.831 440.532 800.105 441.512 799.093 442.61L795.233 446.741H802.562V448.844ZM812.038 442.242C811.156 443.174 810.126 443.64 808.948 443.64C807.56 443.64 806.455 443.156 805.631 442.187C804.807 441.212 804.395 439.932 804.395 438.349C804.395 437.309 804.604 436.365 805.023 435.52C805.443 434.674 806.039 434.016 806.812 433.547C807.586 433.077 808.482 432.842 809.501 432.842C811.091 432.842 812.352 433.435 813.285 434.62C814.217 435.805 814.683 437.392 814.683 439.379V440.117C814.683 442.964 814.04 445.136 812.754 446.632C811.467 448.129 809.548 448.887 806.997 448.909H806.682V446.73H807.062C808.616 446.708 809.808 446.336 810.639 445.613C811.471 444.883 811.937 443.759 812.038 442.242ZM809.501 441.58C810.029 441.58 810.524 441.428 810.986 441.125C811.449 440.821 811.807 440.402 812.06 439.867V438.837C812.06 437.674 811.821 436.738 811.344 436.029C810.867 435.321 810.249 434.967 809.49 434.967C808.731 434.967 808.124 435.281 807.669 435.91C807.221 436.532 806.997 437.319 806.997 438.274C806.997 439.264 807.224 440.062 807.68 440.67C808.135 441.277 808.742 441.58 809.501 441.58Z" fill="#184EA6"/>
<path d="M956.629 379.736L961.563 384.529L956.629 389.605" stroke="black" stroke-width="1.23353" stroke-linecap="round" stroke-linejoin="round"/>
<path d="M601.535 385.121V390.335H599.097V376.304H604.465C606.032 376.304 607.276 376.712 608.194 377.528C609.119 378.343 609.582 379.423 609.582 380.766C609.582 382.14 609.129 383.21 608.223 383.975C607.324 384.739 606.061 385.121 604.436 385.121H601.535ZM601.535 383.165H604.465C605.332 383.165 605.994 382.963 606.45 382.558C606.906 382.147 607.134 381.556 607.134 380.785C607.134 380.027 606.903 379.423 606.44 378.973C605.978 378.517 605.342 378.282 604.532 378.27H601.535V383.165ZM616.954 382.047C616.646 381.996 616.328 381.97 616 381.97C614.927 381.97 614.204 382.381 613.832 383.204V390.335H611.49V379.908H613.726L613.784 381.074C614.349 380.168 615.133 379.715 616.135 379.715C616.469 379.715 616.745 379.76 616.964 379.85L616.954 382.047ZM617.648 385.025C617.648 384.004 617.85 383.085 618.255 382.269C618.66 381.447 619.229 380.817 619.961 380.38C620.693 379.937 621.535 379.715 622.486 379.715C623.893 379.715 625.033 380.168 625.907 381.074C626.787 381.98 627.263 383.181 627.333 384.678L627.343 385.227C627.343 386.255 627.144 387.174 626.745 387.984C626.354 388.793 625.788 389.42 625.049 389.863C624.317 390.306 623.469 390.528 622.505 390.528C621.034 390.528 619.855 390.04 618.968 389.063C618.088 388.08 617.648 386.773 617.648 385.141V385.025ZM619.99 385.227C619.99 386.3 620.212 387.142 620.655 387.752C621.098 388.356 621.715 388.658 622.505 388.658C623.295 388.658 623.909 388.35 624.346 387.733C624.789 387.116 625.011 386.214 625.011 385.025C625.011 383.971 624.783 383.136 624.327 382.519C623.877 381.903 623.263 381.594 622.486 381.594C621.721 381.594 621.114 381.9 620.664 382.51C620.215 383.114 619.99 384.02 619.99 385.227ZM628.885 385.044C628.885 383.438 629.257 382.15 630.003 381.18C630.748 380.203 631.747 379.715 633 379.715C634.105 379.715 634.998 380.101 635.679 380.872V375.533H638.021V390.335H635.901L635.785 389.256C635.085 390.104 634.15 390.528 632.981 390.528C631.76 390.528 630.77 390.036 630.012 389.053C629.261 388.07 628.885 386.734 628.885 385.044ZM631.227 385.247C631.227 386.307 631.429 387.136 631.834 387.733C632.245 388.324 632.826 388.62 633.578 388.62C634.535 388.62 635.236 388.192 635.679 387.338V382.886C635.248 382.05 634.555 381.633 633.597 381.633C632.839 381.633 632.255 381.935 631.843 382.539C631.432 383.136 631.227 384.039 631.227 385.247ZM646.781 389.314C646.093 390.123 645.117 390.528 643.851 390.528C642.72 390.528 641.863 390.197 641.278 389.535C640.7 388.873 640.411 387.916 640.411 386.663V379.908H642.752V386.634C642.752 387.958 643.302 388.62 644.4 388.62C645.538 388.62 646.305 388.212 646.704 387.396V379.908H649.045V390.335H646.839L646.781 389.314ZM655.714 388.658C656.299 388.658 656.784 388.488 657.169 388.147C657.555 387.807 657.76 387.386 657.786 386.885H659.993C659.967 387.534 659.765 388.141 659.386 388.706C659.007 389.265 658.493 389.709 657.844 390.036C657.195 390.364 656.495 390.528 655.743 390.528C654.285 390.528 653.128 390.056 652.274 389.111C651.419 388.167 650.992 386.863 650.992 385.199V384.958C650.992 383.371 651.416 382.102 652.264 381.151C653.112 380.194 654.269 379.715 655.733 379.715C656.973 379.715 657.982 380.078 658.759 380.804C659.543 381.524 659.954 382.471 659.993 383.647H657.786C657.76 383.05 657.555 382.558 657.169 382.173C656.79 381.787 656.305 381.594 655.714 381.594C654.956 381.594 654.371 381.871 653.96 382.423C653.549 382.969 653.34 383.801 653.334 384.919V385.295C653.334 386.426 653.536 387.271 653.941 387.829C654.352 388.382 654.943 388.658 655.714 388.658ZM664.696 377.373V379.908H666.536V381.643H664.696V387.463C664.696 387.862 664.773 388.151 664.927 388.331C665.088 388.504 665.37 388.591 665.775 388.591C666.045 388.591 666.318 388.559 666.594 388.494V390.306C666.061 390.454 665.547 390.528 665.052 390.528C663.253 390.528 662.354 389.535 662.354 387.55V381.643H660.639V379.908H662.354V377.373H664.696ZM673.475 390.335V376.304H677.619C678.859 376.304 679.958 376.58 680.915 377.132C681.879 377.685 682.624 378.469 683.151 379.484C683.677 380.499 683.941 381.662 683.941 382.972V383.676C683.941 385.006 683.674 386.175 683.141 387.184C682.614 388.192 681.859 388.97 680.876 389.516C679.9 390.062 678.779 390.335 677.513 390.335H673.475ZM675.913 378.27V388.388H677.503C678.782 388.388 679.762 387.99 680.443 387.193C681.13 386.39 681.48 385.24 681.493 383.743V382.963C681.493 381.44 681.162 380.277 680.5 379.474C679.839 378.671 678.878 378.27 677.619 378.27H675.913ZM690.735 390.528C689.251 390.528 688.046 390.062 687.121 389.13C686.202 388.192 685.743 386.946 685.743 385.391V385.102C685.743 384.061 685.942 383.133 686.34 382.317C686.745 381.495 687.311 380.856 688.037 380.399C688.763 379.943 689.572 379.715 690.465 379.715C691.885 379.715 692.98 380.168 693.751 381.074C694.529 381.98 694.917 383.262 694.917 384.919V385.864H688.104C688.175 386.724 688.461 387.405 688.962 387.907C689.469 388.408 690.105 388.658 690.87 388.658C691.943 388.658 692.817 388.225 693.491 387.357L694.754 388.562C694.336 389.185 693.777 389.67 693.077 390.017C692.383 390.358 691.602 390.528 690.735 390.528ZM690.455 381.594C689.813 381.594 689.293 381.819 688.894 382.269C688.502 382.719 688.252 383.345 688.143 384.148H692.605V383.975C692.553 383.191 692.344 382.6 691.978 382.201C691.612 381.797 691.104 381.594 690.455 381.594ZM702.588 387.502C702.588 387.084 702.415 386.766 702.068 386.548C701.728 386.329 701.159 386.137 700.362 385.97C699.566 385.802 698.901 385.59 698.367 385.333C697.198 384.768 696.613 383.949 696.613 382.876C696.613 381.977 696.993 381.225 697.751 380.621C698.509 380.017 699.472 379.715 700.642 379.715C701.888 379.715 702.894 380.024 703.658 380.64C704.429 381.257 704.815 382.057 704.815 383.04H702.473C702.473 382.59 702.306 382.218 701.972 381.922C701.638 381.62 701.194 381.469 700.642 381.469C700.128 381.469 699.707 381.588 699.379 381.826C699.058 382.063 698.897 382.381 698.897 382.78C698.897 383.139 699.048 383.419 699.35 383.618C699.652 383.817 700.263 384.02 701.181 384.225C702.1 384.424 702.82 384.665 703.34 384.948C703.867 385.224 704.256 385.558 704.506 385.95C704.763 386.342 704.892 386.818 704.892 387.377C704.892 388.315 704.503 389.076 703.726 389.66C702.948 390.239 701.93 390.528 700.671 390.528C699.816 390.528 699.055 390.374 698.387 390.065C697.719 389.757 697.198 389.333 696.825 388.793C696.453 388.253 696.267 387.672 696.267 387.049H698.541C698.573 387.601 698.782 388.029 699.167 388.331C699.553 388.626 700.064 388.774 700.7 388.774C701.316 388.774 701.785 388.658 702.107 388.427C702.428 388.189 702.588 387.881 702.588 387.502ZM709.431 390.335H707.089V379.908H709.431V390.335ZM706.944 377.2C706.944 376.84 707.057 376.541 707.282 376.304C707.513 376.066 707.841 375.947 708.265 375.947C708.689 375.947 709.016 376.066 709.248 376.304C709.479 376.541 709.594 376.84 709.594 377.2C709.594 377.553 709.479 377.849 709.248 378.086C709.016 378.318 708.689 378.433 708.265 378.433C707.841 378.433 707.513 378.318 707.282 378.086C707.057 377.849 706.944 377.553 706.944 377.2ZM711.58 385.044C711.58 383.425 711.959 382.134 712.717 381.17C713.481 380.2 714.493 379.715 715.753 379.715C716.941 379.715 717.876 380.13 718.557 380.958L718.663 379.908H720.773V390.017C720.773 391.386 720.346 392.465 719.492 393.255C718.644 394.045 717.497 394.44 716.051 394.44C715.287 394.44 714.538 394.28 713.806 393.959C713.08 393.644 712.527 393.229 712.148 392.715L713.257 391.308C713.976 392.163 714.863 392.59 715.916 392.59C716.694 392.59 717.307 392.378 717.757 391.954C718.207 391.536 718.432 390.92 718.432 390.104V389.4C717.757 390.152 716.858 390.528 715.733 390.528C714.513 390.528 713.514 390.043 712.736 389.073C711.965 388.103 711.58 386.76 711.58 385.044ZM713.912 385.247C713.912 386.294 714.124 387.12 714.548 387.723C714.978 388.321 715.573 388.62 716.331 388.62C717.275 388.62 717.975 388.215 718.432 387.405V382.818C717.988 382.028 717.294 381.633 716.35 381.633C715.579 381.633 714.978 381.938 714.548 382.548C714.124 383.159 713.912 384.058 713.912 385.247ZM725.361 379.908L725.428 381.112C726.199 380.181 727.211 379.715 728.464 379.715C730.635 379.715 731.74 380.958 731.779 383.445V390.335H729.437V383.58C729.437 382.918 729.292 382.43 729.003 382.115C728.721 381.794 728.255 381.633 727.606 381.633C726.662 381.633 725.958 382.06 725.495 382.915V390.335H723.154V379.908H725.361Z" fill="#434343"/>
<path d="M1000.05 377.289L996.428 383.945" stroke="#184EA6" stroke-width="2.79762" stroke-linecap="round" stroke-linejoin="round"/>
<path d="M1001.29 382.678L995.194 378.557" stroke="#184EA6" stroke-width="2.79762" stroke-linecap="round" stroke-linejoin="round"/>
<path d="M1010.33 384.521L1010.16 384.405" stroke="#184EA6" stroke-width="2.79762" stroke-linecap="round" stroke-linejoin="round"/>
<path d="M1009.77 392.829L1009.6 392.714" stroke="#184EA6" stroke-width="2.79762" stroke-linecap="round" stroke-linejoin="round"/>
<path d="M1008.79 358.122C1008.08 359.438 1008.47 361.166 1009.68 361.98L1011.36 363.12C1013.22 364.384 1013.83 367.047 1012.73 369.083L1012.08 370.282" stroke="#184EA6" stroke-width="2.79762" stroke-linecap="round" stroke-linejoin="round"/>
<path fill-rule="evenodd" clip-rule="evenodd" d="M1002.8 402.611C997.961 399.46 993.259 396.275 988.682 393.061C983.549 389.589 982.018 382.97 985.071 377.363L989.57 369.1C992.623 363.493 998.597 361.95 1003.73 365.422C1008.43 368.478 1013.13 371.663 1017.85 374.972C1022.98 378.443 1024.51 385.063 1021.46 390.668L1016.96 398.932C1013.91 404.539 1007.94 406.083 1002.8 402.611Z" stroke="#184EA6" stroke-width="2.79762" stroke-linecap="round" stroke-linejoin="round"/>
<g clip-path="url(#clip1_60_1221)">
<path d="M946.691 664.038C946.173 664.375 945.48 664.229 945.143 663.711L930.869 641.791C929.48 639.658 930.086 636.792 932.219 635.403L948.981 624.488C949.499 624.151 950.192 624.298 950.529 624.815L964.574 646.384C964.911 646.902 964.765 647.595 964.247 647.932C963.729 648.27 963.036 648.123 962.698 647.605L949.265 626.975L933.44 637.279C932.341 637.994 932.029 639.47 932.745 640.569L947.018 662.489C947.355 663.007 947.209 663.701 946.691 664.038Z" fill="#06C1B0"/>
<path d="M968.521 654.497L952.111 665.183C949.784 666.698 946.658 666.038 945.143 663.711C943.628 661.384 944.288 658.258 946.615 656.743L963.026 646.057C963.544 645.72 964.237 645.866 964.574 646.384C964.911 646.902 964.765 647.595 964.247 647.932L947.836 658.619C946.543 659.46 946.177 661.197 947.018 662.49C947.86 663.782 949.597 664.149 950.889 663.307L967.3 652.621C967.818 652.284 968.511 652.431 968.848 652.948C969.186 653.466 969.039 654.16 968.521 654.497Z" fill="#06C1B0"/>
<path d="M966.384 651.215L949.973 661.901C949.455 662.238 948.762 662.091 948.425 661.574C948.088 661.056 948.234 660.362 948.752 660.025L965.163 649.339C965.681 649.002 966.374 649.148 966.711 649.666C967.049 650.184 966.902 650.877 966.384 651.215Z" fill="#06C1B0"/>
<path d="M948.774 658.008C948.256 658.345 947.563 658.199 947.225 657.681L933.181 636.112C932.844 635.594 932.99 634.901 933.508 634.564C934.026 634.227 934.719 634.373 935.056 634.891L949.101 656.459C949.438 656.977 949.292 657.671 948.774 658.008Z" fill="#06C1B0"/>
</g>
</g>
<defs>
<filter id="filter0_d_60_1221" x="399" y="204" width="1122" height="615" filterUnits="userSpaceOnUse" color-interpolation-filters="sRGB">
<feFlood flood-opacity="0" result="BackgroundImageFix"/>
<feColorMatrix in="SourceAlpha" type="matrix" values="0 0 0 0 0 0 0 0 0 0 0 0 0 0 0 0 0 0 127 0" result="hardAlpha"/>
<feOffset dy="4"/>
<feGaussianBlur stdDeviation="47"/>
<feColorMatrix type="matrix" values="0 0 0 0 0.8 0 0 0 0 0.8 0 0 0 0 0.8 0 0 0 0.25 0"/>
<feBlend mode="normal" in2="BackgroundImageFix" result="effect1_dropShadow_60_1221"/>
<feBlend mode="normal" in="SourceGraphic" in2="effect1_dropShadow_60_1221" result="shape"/>
</filter>
<filter id="filter1_d_60_1221" x="597.976" y="476.413" width="423.102" height="134.455" filterUnits="userSpaceOnUse" color-interpolation-filters="sRGB">
<feFlood flood-opacity="0" result="BackgroundImageFix"/>
<feColorMatrix in="SourceAlpha" type="matrix" values="0 0 0 0 0 0 0 0 0 0 0 0 0 0 0 0 0 0 127 0" result="hardAlpha"/>
<feOffset dy="4.93413"/>
<feGaussianBlur stdDeviation="2.46707"/>
<feColorMatrix type="matrix" values="0 0 0 0 0 0 0 0 0 0 0 0 0 0 0 0 0 0 0.1 0"/>
<feBlend mode="normal" in2="BackgroundImageFix" result="effect1_dropShadow_60_1221"/>
<feBlend mode="normal" in="SourceGraphic" in2="effect1_dropShadow_60_1221" result="shape"/>
</filter>
<filter id="filter2_d_60_1221" x="568.066" y="360" width="423.102" height="134.455" filterUnits="userSpaceOnUse" color-interpolation-filters="sRGB">
<feFlood flood-opacity="0" result="BackgroundImageFix"/>
<feColorMatrix in="SourceAlpha" type="matrix" values="0 0 0 0 0 0 0 0 0 0 0 0 0 0 0 0 0 0 127 0" result="hardAlpha"/>
<feOffset dy="4.93413"/>
<feGaussianBlur stdDeviation="2.46707"/>
<feColorMatrix type="matrix" values="0 0 0 0 0 0 0 0 0 0 0 0 0 0 0 0 0 0 0.1 0"/>
<feBlend mode="normal" in2="BackgroundImageFix" result="effect1_dropShadow_60_1221"/>
<feBlend mode="normal" in="SourceGraphic" in2="effect1_dropShadow_60_1221" result="shape"/>
</filter>
<clipPath id="clip0_60_1221">
<rect width="1920" height="800" fill="white"/>
</clipPath>
<clipPath id="clip1_60_1221">
<rect width="35.8095" height="35.8095" fill="white" transform="translate(924.13 640.67) rotate(-33.0705)"/>
</clipPath>
</defs>
</svg>
