<svg width="230" height="230" viewBox="0 0 230 230" fill="none" xmlns="http://www.w3.org/2000/svg">
<circle cx="115" cy="115" r="115" fill="#F8F8FA"/>
<rect opacity="0.65" x="75" y="65" width="77" height="100" rx="5" fill="#2A77CE"/>
<path d="M136 80H91C89.3431 80 88 81.3431 88 83V91C88 92.6569 89.3431 94 91 94H136C137.657 94 139 92.6569 139 91V83C139 81.3431 137.657 80 136 80Z" fill="#F8F8FA"/>
<path d="M93.7248 83.544C94.1034 83.544 94.4341 83.6267 94.7168 83.792C95.0048 83.9573 95.2181 84.1653 95.3568 84.416V83.616H96.0928V88.096C96.0928 88.496 96.0074 88.8507 95.8368 89.16C95.6661 89.4747 95.4208 89.72 95.1008 89.896C94.7861 90.072 94.4181 90.16 93.9968 90.16C93.4208 90.16 92.9408 90.024 92.5568 89.752C92.1728 89.48 91.9461 89.1093 91.8768 88.64H92.5968C92.6768 88.9067 92.8421 89.12 93.0928 89.28C93.3434 89.4453 93.6448 89.528 93.9968 89.528C94.3968 89.528 94.7221 89.4027 94.9728 89.152C95.2288 88.9013 95.3568 88.5493 95.3568 88.096V87.176C95.2128 87.432 94.9994 87.6453 94.7168 87.816C94.4341 87.9867 94.1034 88.072 93.7248 88.072C93.3354 88.072 92.9808 87.976 92.6608 87.784C92.3461 87.592 92.0981 87.3227 91.9168 86.976C91.7354 86.6293 91.6448 86.2347 91.6448 85.792C91.6448 85.344 91.7354 84.952 91.9168 84.616C92.0981 84.2747 92.3461 84.0107 92.6608 83.824C92.9808 83.6373 93.3354 83.544 93.7248 83.544ZM95.3568 85.8C95.3568 85.4693 95.2901 85.1813 95.1568 84.936C95.0234 84.6907 94.8421 84.504 94.6128 84.376C94.3888 84.2427 94.1408 84.176 93.8688 84.176C93.5968 84.176 93.3488 84.24 93.1248 84.368C92.9008 84.496 92.7221 84.6827 92.5888 84.928C92.4554 85.1733 92.3888 85.4613 92.3888 85.792C92.3888 86.128 92.4554 86.4213 92.5888 86.672C92.7221 86.9173 92.9008 87.1067 93.1248 87.24C93.3488 87.368 93.5968 87.432 93.8688 87.432C94.1408 87.432 94.3888 87.368 94.6128 87.24C94.8421 87.1067 95.0234 86.9173 95.1568 86.672C95.2901 86.4213 95.3568 86.1307 95.3568 85.8ZM98.735 88.072C98.3244 88.072 97.951 87.9787 97.615 87.792C97.2844 87.6053 97.023 87.3413 96.831 87C96.6444 86.6533 96.551 86.2533 96.551 85.8C96.551 85.352 96.647 84.9573 96.839 84.616C97.0364 84.2693 97.303 84.0053 97.639 83.824C97.975 83.6373 98.351 83.544 98.767 83.544C99.183 83.544 99.559 83.6373 99.895 83.824C100.231 84.0053 100.495 84.2667 100.687 84.608C100.884 84.9493 100.983 85.3467 100.983 85.8C100.983 86.2533 100.882 86.6533 100.679 87C100.482 87.3413 100.212 87.6053 99.871 87.792C99.5297 87.9787 99.151 88.072 98.735 88.072ZM98.735 87.432C98.9964 87.432 99.2417 87.3707 99.471 87.248C99.7004 87.1253 99.8844 86.9413 100.023 86.696C100.167 86.4507 100.239 86.152 100.239 85.8C100.239 85.448 100.17 85.1493 100.031 84.904C99.8924 84.6587 99.711 84.4773 99.487 84.36C99.263 84.2373 99.0204 84.176 98.759 84.176C98.4924 84.176 98.247 84.2373 98.023 84.36C97.8044 84.4773 97.6284 84.6587 97.495 84.904C97.3617 85.1493 97.295 85.448 97.295 85.8C97.295 86.1573 97.359 86.4587 97.487 86.704C97.6204 86.9493 97.7964 87.1333 98.015 87.256C98.2337 87.3733 98.4737 87.432 98.735 87.432ZM101.168 85.792C101.168 85.344 101.259 84.952 101.44 84.616C101.622 84.2747 101.87 84.0107 102.184 83.824C102.504 83.6373 102.859 83.544 103.248 83.544C103.632 83.544 103.966 83.6267 104.248 83.792C104.531 83.9573 104.742 84.1653 104.88 84.416V83.616H105.616V88H104.88V87.184C104.736 87.44 104.52 87.6533 104.232 87.824C103.95 87.9893 103.619 88.072 103.24 88.072C102.851 88.072 102.499 87.976 102.184 87.784C101.87 87.592 101.622 87.3227 101.44 86.976C101.259 86.6293 101.168 86.2347 101.168 85.792ZM104.88 85.8C104.88 85.4693 104.814 85.1813 104.68 84.936C104.547 84.6907 104.366 84.504 104.136 84.376C103.912 84.2427 103.664 84.176 103.392 84.176C103.12 84.176 102.872 84.24 102.648 84.368C102.424 84.496 102.246 84.6827 102.112 84.928C101.979 85.1733 101.912 85.4613 101.912 85.792C101.912 86.128 101.979 86.4213 102.112 86.672C102.246 86.9173 102.424 87.1067 102.648 87.24C102.872 87.368 103.12 87.432 103.392 87.432C103.664 87.432 103.912 87.368 104.136 87.24C104.366 87.1067 104.547 86.9173 104.68 86.672C104.814 86.4213 104.88 86.1307 104.88 85.8ZM107.074 82.08V88H106.346V82.08H107.074Z" fill="#5A5A5A"/>
<path d="M136 104H91C89.3431 104 88 105.343 88 107V115C88 116.657 89.3431 118 91 118H136C137.657 118 139 116.657 139 115V107C139 105.343 137.657 104 136 104Z" fill="#F8F8FA"/>
<path d="M93.7248 107.544C94.1034 107.544 94.4341 107.627 94.7168 107.792C95.0048 107.957 95.2181 108.165 95.3568 108.416V107.616H96.0928V112.096C96.0928 112.496 96.0074 112.851 95.8368 113.16C95.6661 113.475 95.4208 113.72 95.1008 113.896C94.7861 114.072 94.4181 114.16 93.9968 114.16C93.4208 114.16 92.9408 114.024 92.5568 113.752C92.1728 113.48 91.9461 113.109 91.8768 112.64H92.5968C92.6768 112.907 92.8421 113.12 93.0928 113.28C93.3434 113.445 93.6448 113.528 93.9968 113.528C94.3968 113.528 94.7221 113.403 94.9728 113.152C95.2288 112.901 95.3568 112.549 95.3568 112.096V111.176C95.2128 111.432 94.9994 111.645 94.7168 111.816C94.4341 111.987 94.1034 112.072 93.7248 112.072C93.3354 112.072 92.9808 111.976 92.6608 111.784C92.3461 111.592 92.0981 111.323 91.9168 110.976C91.7354 110.629 91.6448 110.235 91.6448 109.792C91.6448 109.344 91.7354 108.952 91.9168 108.616C92.0981 108.275 92.3461 108.011 92.6608 107.824C92.9808 107.637 93.3354 107.544 93.7248 107.544ZM95.3568 109.8C95.3568 109.469 95.2901 109.181 95.1568 108.936C95.0234 108.691 94.8421 108.504 94.6128 108.376C94.3888 108.243 94.1408 108.176 93.8688 108.176C93.5968 108.176 93.3488 108.24 93.1248 108.368C92.9008 108.496 92.7221 108.683 92.5888 108.928C92.4554 109.173 92.3888 109.461 92.3888 109.792C92.3888 110.128 92.4554 110.421 92.5888 110.672C92.7221 110.917 92.9008 111.107 93.1248 111.24C93.3488 111.368 93.5968 111.432 93.8688 111.432C94.1408 111.432 94.3888 111.368 94.6128 111.24C94.8421 111.107 95.0234 110.917 95.1568 110.672C95.2901 110.421 95.3568 110.131 95.3568 109.8ZM98.735 112.072C98.3244 112.072 97.951 111.979 97.615 111.792C97.2844 111.605 97.023 111.341 96.831 111C96.6444 110.653 96.551 110.253 96.551 109.8C96.551 109.352 96.647 108.957 96.839 108.616C97.0364 108.269 97.303 108.005 97.639 107.824C97.975 107.637 98.351 107.544 98.767 107.544C99.183 107.544 99.559 107.637 99.895 107.824C100.231 108.005 100.495 108.267 100.687 108.608C100.884 108.949 100.983 109.347 100.983 109.8C100.983 110.253 100.882 110.653 100.679 111C100.482 111.341 100.212 111.605 99.871 111.792C99.5297 111.979 99.151 112.072 98.735 112.072ZM98.735 111.432C98.9964 111.432 99.2417 111.371 99.471 111.248C99.7004 111.125 99.8844 110.941 100.023 110.696C100.167 110.451 100.239 110.152 100.239 109.8C100.239 109.448 100.17 109.149 100.031 108.904C99.8924 108.659 99.711 108.477 99.487 108.36C99.263 108.237 99.0204 108.176 98.759 108.176C98.4924 108.176 98.247 108.237 98.023 108.36C97.8044 108.477 97.6284 108.659 97.495 108.904C97.3617 109.149 97.295 109.448 97.295 109.8C97.295 110.157 97.359 110.459 97.487 110.704C97.6204 110.949 97.7964 111.133 98.015 111.256C98.2337 111.373 98.4737 111.432 98.735 111.432ZM101.168 109.792C101.168 109.344 101.259 108.952 101.44 108.616C101.622 108.275 101.87 108.011 102.184 107.824C102.504 107.637 102.859 107.544 103.248 107.544C103.632 107.544 103.966 107.627 104.248 107.792C104.531 107.957 104.742 108.165 104.88 108.416V107.616H105.616V112H104.88V111.184C104.736 111.44 104.52 111.653 104.232 111.824C103.95 111.989 103.619 112.072 103.24 112.072C102.851 112.072 102.499 111.976 102.184 111.784C101.87 111.592 101.622 111.323 101.44 110.976C101.259 110.629 101.168 110.235 101.168 109.792ZM104.88 109.8C104.88 109.469 104.814 109.181 104.68 108.936C104.547 108.691 104.366 108.504 104.136 108.376C103.912 108.243 103.664 108.176 103.392 108.176C103.12 108.176 102.872 108.24 102.648 108.368C102.424 108.496 102.246 108.683 102.112 108.928C101.979 109.173 101.912 109.461 101.912 109.792C101.912 110.128 101.979 110.421 102.112 110.672C102.246 110.917 102.424 111.107 102.648 111.24C102.872 111.368 103.12 111.432 103.392 111.432C103.664 111.432 103.912 111.368 104.136 111.24C104.366 111.107 104.547 110.917 104.68 110.672C104.814 110.421 104.88 110.131 104.88 109.8ZM107.074 106.08V112H106.346V106.08H107.074Z" fill="#5A5A5A"/>
<path d="M136 128H91C89.3431 128 88 129.343 88 131V139C88 140.657 89.3431 142 91 142H136C137.657 142 139 140.657 139 139V131C139 129.343 137.657 128 136 128Z" fill="#F8F8FA"/>
<path d="M93.7248 131.544C94.1034 131.544 94.4341 131.627 94.7168 131.792C95.0048 131.957 95.2181 132.165 95.3568 132.416V131.616H96.0928V136.096C96.0928 136.496 96.0074 136.851 95.8368 137.16C95.6661 137.475 95.4208 137.72 95.1008 137.896C94.7861 138.072 94.4181 138.16 93.9968 138.16C93.4208 138.16 92.9408 138.024 92.5568 137.752C92.1728 137.48 91.9461 137.109 91.8768 136.64H92.5968C92.6768 136.907 92.8421 137.12 93.0928 137.28C93.3434 137.445 93.6448 137.528 93.9968 137.528C94.3968 137.528 94.7221 137.403 94.9728 137.152C95.2288 136.901 95.3568 136.549 95.3568 136.096V135.176C95.2128 135.432 94.9994 135.645 94.7168 135.816C94.4341 135.987 94.1034 136.072 93.7248 136.072C93.3354 136.072 92.9808 135.976 92.6608 135.784C92.3461 135.592 92.0981 135.323 91.9168 134.976C91.7354 134.629 91.6448 134.235 91.6448 133.792C91.6448 133.344 91.7354 132.952 91.9168 132.616C92.0981 132.275 92.3461 132.011 92.6608 131.824C92.9808 131.637 93.3354 131.544 93.7248 131.544ZM95.3568 133.8C95.3568 133.469 95.2901 133.181 95.1568 132.936C95.0234 132.691 94.8421 132.504 94.6128 132.376C94.3888 132.243 94.1408 132.176 93.8688 132.176C93.5968 132.176 93.3488 132.24 93.1248 132.368C92.9008 132.496 92.7221 132.683 92.5888 132.928C92.4554 133.173 92.3888 133.461 92.3888 133.792C92.3888 134.128 92.4554 134.421 92.5888 134.672C92.7221 134.917 92.9008 135.107 93.1248 135.24C93.3488 135.368 93.5968 135.432 93.8688 135.432C94.1408 135.432 94.3888 135.368 94.6128 135.24C94.8421 135.107 95.0234 134.917 95.1568 134.672C95.2901 134.421 95.3568 134.131 95.3568 133.8ZM98.735 136.072C98.3244 136.072 97.951 135.979 97.615 135.792C97.2844 135.605 97.023 135.341 96.831 135C96.6444 134.653 96.551 134.253 96.551 133.8C96.551 133.352 96.647 132.957 96.839 132.616C97.0364 132.269 97.303 132.005 97.639 131.824C97.975 131.637 98.351 131.544 98.767 131.544C99.183 131.544 99.559 131.637 99.895 131.824C100.231 132.005 100.495 132.267 100.687 132.608C100.884 132.949 100.983 133.347 100.983 133.8C100.983 134.253 100.882 134.653 100.679 135C100.482 135.341 100.212 135.605 99.871 135.792C99.5297 135.979 99.151 136.072 98.735 136.072ZM98.735 135.432C98.9964 135.432 99.2417 135.371 99.471 135.248C99.7004 135.125 99.8844 134.941 100.023 134.696C100.167 134.451 100.239 134.152 100.239 133.8C100.239 133.448 100.17 133.149 100.031 132.904C99.8924 132.659 99.711 132.477 99.487 132.36C99.263 132.237 99.0204 132.176 98.759 132.176C98.4924 132.176 98.247 132.237 98.023 132.36C97.8044 132.477 97.6284 132.659 97.495 132.904C97.3617 133.149 97.295 133.448 97.295 133.8C97.295 134.157 97.359 134.459 97.487 134.704C97.6204 134.949 97.7964 135.133 98.015 135.256C98.2337 135.373 98.4737 135.432 98.735 135.432ZM101.168 133.792C101.168 133.344 101.259 132.952 101.44 132.616C101.622 132.275 101.87 132.011 102.184 131.824C102.504 131.637 102.859 131.544 103.248 131.544C103.632 131.544 103.966 131.627 104.248 131.792C104.531 131.957 104.742 132.165 104.88 132.416V131.616H105.616V136H104.88V135.184C104.736 135.44 104.52 135.653 104.232 135.824C103.95 135.989 103.619 136.072 103.24 136.072C102.851 136.072 102.499 135.976 102.184 135.784C101.87 135.592 101.622 135.323 101.44 134.976C101.259 134.629 101.168 134.235 101.168 133.792ZM104.88 133.8C104.88 133.469 104.814 133.181 104.68 132.936C104.547 132.691 104.366 132.504 104.136 132.376C103.912 132.243 103.664 132.176 103.392 132.176C103.12 132.176 102.872 132.24 102.648 132.368C102.424 132.496 102.246 132.683 102.112 132.928C101.979 133.173 101.912 133.461 101.912 133.792C101.912 134.128 101.979 134.421 102.112 134.672C102.246 134.917 102.424 135.107 102.648 135.24C102.872 135.368 103.12 135.432 103.392 135.432C103.664 135.432 103.912 135.368 104.136 135.24C104.366 135.107 104.547 134.917 104.68 134.672C104.814 134.421 104.88 134.131 104.88 133.8ZM107.074 130.08V136H106.346V130.08H107.074Z" fill="#5A5A5A"/>
</svg>
