<svg width="742" height="572" viewBox="0 0 742 572" fill="none" xmlns="http://www.w3.org/2000/svg">
<g filter="url(#filter0_d_10_180)">
<rect x="76.1461" y="73" width="588.888" height="419.288" rx="14.58" fill="white"/>
<path d="M366.565 145.105C366.565 146.123 366.214 146.971 365.512 147.649C364.822 148.316 363.764 148.649 362.336 148.649H359.985V153.756H358.388V141.525H362.336C363.717 141.525 364.764 141.859 365.477 142.525C366.203 143.192 366.565 144.052 366.565 145.105ZM362.336 147.333C363.225 147.333 363.88 147.14 364.302 146.754C364.723 146.368 364.933 145.818 364.933 145.105C364.933 143.596 364.068 142.841 362.336 142.841H359.985V147.333H362.336ZM372.744 153.914C371.843 153.914 371.024 153.709 370.287 153.299C369.562 152.89 368.988 152.311 368.567 151.562C368.158 150.802 367.953 149.925 367.953 148.93C367.953 147.948 368.164 147.082 368.585 146.333C369.018 145.573 369.603 144.994 370.34 144.596C371.077 144.187 371.901 143.982 372.814 143.982C373.726 143.982 374.551 144.187 375.288 144.596C376.025 144.994 376.604 145.567 377.025 146.316C377.458 147.064 377.674 147.936 377.674 148.93C377.674 149.925 377.452 150.802 377.008 151.562C376.575 152.311 375.984 152.89 375.235 153.299C374.487 153.709 373.656 153.914 372.744 153.914ZM372.744 152.51C373.317 152.51 373.855 152.375 374.358 152.106C374.861 151.837 375.265 151.434 375.569 150.895C375.884 150.357 376.042 149.702 376.042 148.93C376.042 148.158 375.89 147.503 375.586 146.965C375.282 146.427 374.884 146.029 374.393 145.772C373.902 145.503 373.369 145.368 372.796 145.368C372.211 145.368 371.673 145.503 371.182 145.772C370.702 146.029 370.316 146.427 370.024 146.965C369.731 147.503 369.585 148.158 369.585 148.93C369.585 149.714 369.725 150.375 370.006 150.913C370.299 151.451 370.685 151.855 371.164 152.124C371.644 152.381 372.17 152.51 372.744 152.51ZM380.599 142.578C380.294 142.578 380.037 142.473 379.826 142.262C379.616 142.052 379.511 141.794 379.511 141.49C379.511 141.186 379.616 140.929 379.826 140.718C380.037 140.508 380.294 140.402 380.599 140.402C380.891 140.402 381.137 140.508 381.335 140.718C381.546 140.929 381.651 141.186 381.651 141.49C381.651 141.794 381.546 142.052 381.335 142.262C381.137 142.473 380.891 142.578 380.599 142.578ZM381.371 144.14V153.756H379.774V144.14H381.371ZM388.777 143.964C389.947 143.964 390.894 144.321 391.62 145.035C392.345 145.737 392.708 146.754 392.708 148.088V153.756H391.128V148.316C391.128 147.357 390.889 146.626 390.409 146.123C389.929 145.608 389.274 145.351 388.444 145.351C387.601 145.351 386.929 145.614 386.426 146.14C385.934 146.667 385.689 147.433 385.689 148.439V153.756H384.092V144.14H385.689V145.508C386.005 145.017 386.432 144.637 386.97 144.368C387.52 144.099 388.122 143.964 388.777 143.964ZM397.264 145.456V151.124C397.264 151.592 397.363 151.925 397.562 152.124C397.761 152.311 398.106 152.405 398.597 152.405H399.773V153.756H398.334C397.445 153.756 396.778 153.551 396.334 153.141C395.889 152.732 395.667 152.059 395.667 151.124V145.456H394.421V144.14H395.667V141.718H397.264V144.14H399.773V145.456H397.264ZM405.112 153.914C404.375 153.914 403.714 153.791 403.129 153.545C402.544 153.288 402.082 152.937 401.743 152.492C401.404 152.036 401.216 151.515 401.181 150.931H402.831C402.878 151.41 403.1 151.802 403.497 152.106C403.907 152.41 404.439 152.562 405.094 152.562C405.703 152.562 406.182 152.428 406.533 152.159C406.884 151.89 407.06 151.551 407.06 151.141C407.06 150.72 406.872 150.41 406.498 150.211C406.124 150.001 405.545 149.796 404.761 149.597C404.047 149.41 403.462 149.223 403.006 149.035C402.562 148.837 402.176 148.55 401.848 148.176C401.532 147.79 401.374 147.287 401.374 146.667C401.374 146.175 401.521 145.725 401.813 145.315C402.105 144.906 402.521 144.584 403.059 144.35C403.597 144.105 404.211 143.982 404.901 143.982C405.966 143.982 406.826 144.251 407.481 144.789C408.136 145.327 408.487 146.064 408.534 147H406.937C406.902 146.497 406.697 146.093 406.323 145.789C405.96 145.485 405.469 145.333 404.849 145.333C404.275 145.333 403.819 145.456 403.48 145.702C403.141 145.947 402.971 146.269 402.971 146.667C402.971 146.982 403.071 147.246 403.269 147.456C403.48 147.655 403.737 147.819 404.041 147.948C404.357 148.065 404.79 148.199 405.34 148.351C406.03 148.538 406.592 148.725 407.024 148.913C407.457 149.088 407.826 149.357 408.13 149.72C408.446 150.082 408.61 150.556 408.621 151.141C408.621 151.668 408.475 152.141 408.183 152.562C407.89 152.984 407.475 153.317 406.937 153.563C406.41 153.797 405.802 153.914 405.112 153.914Z" fill="#434343"/>
<path d="M337.087 140.532C337.192 138.9 337.815 137.628 338.955 136.716C340.114 135.803 341.588 135.347 343.377 135.347C344.606 135.347 345.667 135.566 346.562 136.005C347.457 136.444 348.133 137.04 348.589 137.795C349.045 138.549 349.273 139.4 349.273 140.348C349.273 141.436 348.984 142.366 348.405 143.138C347.826 143.91 347.132 144.427 346.325 144.691V144.796C347.361 145.112 348.168 145.691 348.747 146.533C349.326 147.358 349.615 148.419 349.615 149.718C349.615 150.753 349.378 151.674 348.905 152.482C348.431 153.289 347.729 153.929 346.799 154.403C345.869 154.859 344.755 155.087 343.456 155.087C341.561 155.087 340 154.605 338.771 153.64C337.56 152.657 336.911 151.253 336.823 149.428H339.719C339.789 150.358 340.149 151.122 340.798 151.718C341.447 152.297 342.325 152.587 343.43 152.587C344.5 152.587 345.325 152.297 345.904 151.718C346.483 151.122 346.773 150.358 346.773 149.428C346.773 148.2 346.378 147.332 345.588 146.823C344.816 146.296 343.623 146.033 342.009 146.033H341.324V143.559H342.035C343.456 143.541 344.535 143.304 345.272 142.848C346.027 142.392 346.404 141.673 346.404 140.69C346.404 139.848 346.132 139.181 345.588 138.69C345.044 138.181 344.272 137.926 343.272 137.926C342.289 137.926 341.526 138.181 340.982 138.69C340.438 139.181 340.114 139.795 340.008 140.532H337.087Z" fill="#06C1B0"/>
<path d="M352.299 350.05L348.685 362.246H346.421L343.859 353.016L341.139 362.246L338.893 362.263L335.437 350.05H337.56L340.087 359.982L342.824 350.05H345.07L347.614 359.929L350.159 350.05H352.299ZM362.81 357.174C362.81 357.537 362.787 357.865 362.74 358.157H355.353C355.411 358.929 355.698 359.549 356.213 360.017C356.727 360.485 357.359 360.719 358.108 360.719C359.184 360.719 359.944 360.269 360.389 359.368H362.547C362.255 360.257 361.723 360.988 360.95 361.561C360.19 362.123 359.243 362.404 358.108 362.404C357.184 362.404 356.353 362.199 355.616 361.789C354.891 361.368 354.318 360.783 353.897 360.035C353.487 359.274 353.282 358.397 353.282 357.403C353.282 356.408 353.481 355.537 353.879 354.788C354.288 354.028 354.856 353.443 355.581 353.033C356.318 352.624 357.16 352.419 358.108 352.419C359.02 352.419 359.833 352.618 360.547 353.016C361.26 353.414 361.816 353.975 362.214 354.7C362.612 355.414 362.81 356.239 362.81 357.174ZM360.722 356.543C360.711 355.806 360.447 355.215 359.933 354.771C359.418 354.326 358.78 354.104 358.02 354.104C357.33 354.104 356.739 354.326 356.248 354.771C355.757 355.203 355.464 355.794 355.37 356.543H360.722ZM364.112 357.368C364.112 356.397 364.311 355.537 364.709 354.788C365.118 354.039 365.668 353.46 366.358 353.051C367.06 352.63 367.838 352.419 368.692 352.419C369.324 352.419 369.944 352.56 370.552 352.84C371.172 353.109 371.663 353.472 372.026 353.928V349.261H374.044V362.246H372.026V360.789C371.698 361.257 371.242 361.643 370.657 361.947C370.084 362.251 369.423 362.404 368.674 362.404C367.832 362.404 367.06 362.193 366.358 361.772C365.668 361.339 365.118 360.742 364.709 359.982C364.311 359.21 364.112 358.338 364.112 357.368ZM372.026 357.403C372.026 356.736 371.886 356.157 371.605 355.665C371.336 355.174 370.979 354.8 370.534 354.542C370.09 354.285 369.61 354.156 369.096 354.156C368.581 354.156 368.101 354.285 367.657 354.542C367.212 354.788 366.85 355.157 366.569 355.648C366.3 356.128 366.165 356.701 366.165 357.368C366.165 358.034 366.3 358.619 366.569 359.122C366.85 359.625 367.212 360.011 367.657 360.28C368.113 360.538 368.593 360.666 369.096 360.666C369.61 360.666 370.09 360.538 370.534 360.28C370.979 360.023 371.336 359.649 371.605 359.157C371.886 358.654 372.026 358.069 372.026 357.403Z" fill="#434343"/>
<path d="M409.678 275.982C409.678 274.366 410.988 273.057 412.603 273.057H422.839C424.454 273.057 425.763 274.366 425.763 275.982V331.548H409.678V275.982Z" fill="#06C1B0"/>
<path d="M281 306.689C281 305.074 282.309 303.765 283.924 303.765H294.16C295.775 303.765 297.084 305.074 297.084 306.689V331.548H281V306.689Z" fill="#06C1B0"/>
<path d="M411.562 350.05V351.682H408.316V362.246H406.315V351.682H403.052V350.05H411.562ZM418.589 352.419C419.326 352.419 419.981 352.577 420.554 352.893C421.139 353.209 421.595 353.677 421.923 354.297C422.262 354.917 422.431 355.665 422.431 356.543V362.246H420.449V356.841C420.449 355.975 420.232 355.314 419.799 354.858C419.367 354.39 418.776 354.156 418.027 354.156C417.278 354.156 416.682 354.39 416.237 354.858C415.805 355.314 415.588 355.975 415.588 356.841V362.246H413.588V349.261H415.588V353.7C415.927 353.291 416.354 352.975 416.869 352.753C417.395 352.53 417.969 352.419 418.589 352.419ZM433.739 352.577V362.246H431.739V361.105C431.423 361.503 431.008 361.819 430.493 362.053C429.99 362.275 429.452 362.386 428.879 362.386C428.118 362.386 427.434 362.228 426.826 361.912C426.229 361.596 425.755 361.128 425.404 360.508C425.065 359.888 424.895 359.14 424.895 358.262V352.577H426.878V357.964C426.878 358.83 427.095 359.497 427.527 359.964C427.96 360.421 428.551 360.649 429.3 360.649C430.048 360.649 430.639 360.421 431.072 359.964C431.516 359.497 431.739 358.83 431.739 357.964V352.577H433.739Z" fill="#434343" fill-opacity="0.5"/>
<path d="M481.048 350.05V351.682H475.872V355.279H479.908V356.911H475.872V362.246H473.872V350.05H481.048ZM484.903 353.981C485.195 353.49 485.581 353.109 486.061 352.84C486.552 352.56 487.131 352.419 487.798 352.419V354.49H487.289C486.505 354.49 485.909 354.689 485.499 355.086C485.102 355.484 484.903 356.174 484.903 357.157V362.246H482.902V352.577H484.903V353.981ZM490.654 351.296C490.292 351.296 489.988 351.173 489.742 350.928C489.496 350.682 489.373 350.378 489.373 350.015C489.373 349.653 489.496 349.348 489.742 349.103C489.988 348.857 490.292 348.734 490.654 348.734C491.005 348.734 491.304 348.857 491.549 349.103C491.795 349.348 491.918 349.653 491.918 350.015C491.918 350.378 491.795 350.682 491.549 350.928C491.304 351.173 491.005 351.296 490.654 351.296ZM491.637 352.577V362.246H489.637V352.577H491.637Z" fill="#434343" fill-opacity="0.5"/>
<path d="M539.305 362.368C538.486 362.368 537.749 362.228 537.094 361.947C536.439 361.655 535.924 361.245 535.55 360.719C535.175 360.193 534.988 359.578 534.988 358.877H537.129C537.176 359.403 537.381 359.836 537.743 360.175C538.118 360.514 538.638 360.684 539.305 360.684C539.995 360.684 540.533 360.52 540.919 360.193C541.305 359.853 541.498 359.421 541.498 358.894C541.498 358.485 541.375 358.151 541.13 357.894C540.896 357.637 540.598 357.438 540.235 357.297C539.884 357.157 539.393 357.005 538.761 356.841C537.965 356.631 537.316 356.42 536.813 356.209C536.322 355.987 535.901 355.648 535.55 355.192C535.199 354.735 535.023 354.127 535.023 353.367C535.023 352.665 535.199 352.051 535.55 351.524C535.901 350.998 536.392 350.594 537.024 350.314C537.655 350.033 538.387 349.892 539.217 349.892C540.399 349.892 541.364 350.191 542.112 350.787C542.873 351.372 543.294 352.179 543.376 353.209H541.165C541.13 352.764 540.919 352.384 540.533 352.068C540.147 351.752 539.638 351.595 539.007 351.595C538.433 351.595 537.965 351.741 537.603 352.033C537.24 352.326 537.059 352.747 537.059 353.297C537.059 353.671 537.17 353.981 537.392 354.227C537.626 354.461 537.919 354.648 538.27 354.788C538.621 354.928 539.1 355.081 539.708 355.244C540.516 355.467 541.171 355.689 541.674 355.911C542.188 356.133 542.621 356.478 542.972 356.946C543.335 357.403 543.516 358.017 543.516 358.789C543.516 359.409 543.347 359.994 543.007 360.544C542.68 361.093 542.194 361.538 541.551 361.877C540.919 362.205 540.171 362.368 539.305 362.368ZM545.21 357.368C545.21 356.397 545.409 355.537 545.806 354.788C546.216 354.039 546.766 353.46 547.456 353.051C548.158 352.63 548.93 352.419 549.772 352.419C550.532 352.419 551.193 352.571 551.755 352.875C552.328 353.168 552.784 353.536 553.124 353.981V352.577H555.141V362.246H553.124V360.807C552.784 361.263 552.322 361.643 551.737 361.947C551.152 362.251 550.486 362.404 549.737 362.404C548.906 362.404 548.146 362.193 547.456 361.772C546.766 361.339 546.216 360.742 545.806 359.982C545.409 359.21 545.21 358.338 545.21 357.368ZM553.124 357.403C553.124 356.736 552.983 356.157 552.702 355.665C552.433 355.174 552.077 354.8 551.632 354.542C551.188 354.285 550.708 354.156 550.193 354.156C549.678 354.156 549.199 354.285 548.754 354.542C548.31 354.788 547.947 355.157 547.666 355.648C547.397 356.128 547.263 356.701 547.263 357.368C547.263 358.034 547.397 358.619 547.666 359.122C547.947 359.625 548.31 360.011 548.754 360.28C549.211 360.538 549.69 360.666 550.193 360.666C550.708 360.666 551.188 360.538 551.632 360.28C552.077 360.023 552.433 359.649 552.702 359.157C552.983 358.654 553.124 358.069 553.124 357.403ZM560.103 354.209V359.561C560.103 359.924 560.185 360.187 560.348 360.351C560.524 360.503 560.816 360.579 561.226 360.579H562.454V362.246H560.875C559.974 362.246 559.284 362.035 558.804 361.614C558.325 361.193 558.085 360.508 558.085 359.561V354.209H556.944V352.577H558.085V350.173H560.103V352.577H562.454V354.209H560.103Z" fill="#434343" fill-opacity="0.5"/>
<path d="M594.818 277.54C596.304 276.347 597.468 275.37 598.31 274.61C599.152 273.838 599.86 273.037 600.433 272.206C601.018 271.364 601.311 270.539 601.311 269.732C601.311 268.972 601.124 268.375 600.749 267.942C600.387 267.498 599.796 267.275 598.977 267.275C598.181 267.275 597.561 267.527 597.117 268.03C596.684 268.521 596.45 269.182 596.415 270.013H594.871C594.918 268.702 595.315 267.691 596.064 266.977C596.813 266.263 597.778 265.907 598.959 265.907C600.164 265.907 601.118 266.24 601.82 266.907C602.533 267.574 602.89 268.492 602.89 269.662C602.89 270.633 602.597 271.58 602.013 272.504C601.439 273.417 600.784 274.224 600.047 274.926C599.31 275.616 598.369 276.423 597.222 277.347H603.258V278.681H594.818V277.54Z" fill="#434343" fill-opacity="0.5"/>
<path d="M603.1 181.71H596.941V185.711C597.211 185.336 597.608 185.032 598.135 184.798C598.661 184.553 599.228 184.43 599.837 184.43C600.808 184.43 601.597 184.634 602.206 185.044C602.814 185.442 603.247 185.962 603.504 186.606C603.773 187.237 603.908 187.91 603.908 188.623C603.908 189.466 603.75 190.22 603.434 190.887C603.118 191.554 602.633 192.08 601.977 192.466C601.334 192.852 600.533 193.045 599.574 193.045C598.345 193.045 597.351 192.729 596.591 192.098C595.83 191.466 595.368 190.624 595.204 189.571H596.766C596.918 190.238 597.24 190.758 597.731 191.133C598.222 191.507 598.842 191.694 599.591 191.694C600.515 191.694 601.211 191.419 601.679 190.869C602.147 190.308 602.381 189.571 602.381 188.659C602.381 187.746 602.147 187.044 601.679 186.553C601.211 186.05 600.521 185.798 599.609 185.798C598.989 185.798 598.445 185.95 597.977 186.255C597.52 186.547 597.187 186.951 596.977 187.465H595.467V180.306H603.1V181.71Z" fill="#434343" fill-opacity="0.5"/>
<path d="M282.883 350.05V351.682H279.637V362.246H277.636V351.682H274.373V350.05H282.883ZM293.665 352.577V362.246H291.664V361.105C291.349 361.503 290.933 361.819 290.419 362.053C289.916 362.275 289.377 362.386 288.804 362.386C288.044 362.386 287.36 362.228 286.751 361.912C286.155 361.596 285.681 361.128 285.33 360.508C284.991 359.888 284.821 359.14 284.821 358.262V352.577H286.804V357.964C286.804 358.83 287.02 359.497 287.453 359.964C287.886 360.421 288.477 360.649 289.225 360.649C289.974 360.649 290.565 360.421 290.998 359.964C291.442 359.497 291.664 358.83 291.664 357.964V352.577H293.665ZM305.165 357.174C305.165 357.537 305.142 357.865 305.095 358.157H297.708C297.766 358.929 298.053 359.549 298.568 360.017C299.082 360.485 299.714 360.719 300.463 360.719C301.539 360.719 302.299 360.269 302.744 359.368H304.902C304.61 360.257 304.078 360.988 303.305 361.561C302.545 362.123 301.598 362.404 300.463 362.404C299.539 362.404 298.708 362.199 297.971 361.789C297.246 361.368 296.673 360.783 296.252 360.035C295.842 359.274 295.637 358.397 295.637 357.403C295.637 356.408 295.836 355.537 296.234 354.788C296.643 354.028 297.211 353.443 297.936 353.033C298.673 352.624 299.515 352.419 300.463 352.419C301.375 352.419 302.188 352.618 302.902 353.016C303.615 353.414 304.171 353.975 304.569 354.7C304.967 355.414 305.165 356.239 305.165 357.174ZM303.077 356.543C303.066 355.806 302.802 355.215 302.288 354.771C301.773 354.326 301.135 354.104 300.375 354.104C299.685 354.104 299.094 354.326 298.603 354.771C298.111 355.203 297.819 355.794 297.725 356.543H303.077Z" fill="#434343" fill-opacity="0.5"/>
<path d="M219.123 350.05V362.246H217.122V353.893L213.402 362.246H212.016L208.278 353.893V362.246H206.278V350.05H208.436L212.718 359.614L216.982 350.05H219.123ZM225.946 362.404C225.033 362.404 224.208 362.199 223.471 361.789C222.734 361.368 222.155 360.783 221.734 360.035C221.313 359.274 221.103 358.397 221.103 357.403C221.103 356.42 221.319 355.548 221.752 354.788C222.185 354.028 222.775 353.443 223.524 353.033C224.273 352.624 225.109 352.419 226.033 352.419C226.957 352.419 227.794 352.624 228.542 353.033C229.291 353.443 229.882 354.028 230.315 354.788C230.748 355.548 230.964 356.42 230.964 357.403C230.964 358.385 230.742 359.257 230.297 360.017C229.853 360.777 229.244 361.368 228.472 361.789C227.712 362.199 226.87 362.404 225.946 362.404ZM225.946 360.666C226.46 360.666 226.94 360.544 227.384 360.298C227.841 360.052 228.209 359.684 228.49 359.192C228.771 358.701 228.911 358.104 228.911 357.403C228.911 356.701 228.776 356.11 228.507 355.63C228.238 355.139 227.882 354.771 227.437 354.525C226.992 354.279 226.513 354.156 225.998 354.156C225.483 354.156 225.004 354.279 224.559 354.525C224.126 354.771 223.781 355.139 223.524 355.63C223.267 356.11 223.138 356.701 223.138 357.403C223.138 358.444 223.401 359.251 223.928 359.824C224.466 360.386 225.138 360.666 225.946 360.666ZM237.82 352.419C238.58 352.419 239.258 352.577 239.855 352.893C240.463 353.209 240.937 353.677 241.276 354.297C241.616 354.917 241.785 355.665 241.785 356.543V362.246H239.802V356.841C239.802 355.975 239.586 355.314 239.153 354.858C238.72 354.39 238.13 354.156 237.381 354.156C236.632 354.156 236.036 354.39 235.591 354.858C235.158 355.314 234.942 355.975 234.942 356.841V362.246H232.941V352.577H234.942V353.683C235.269 353.285 235.685 352.975 236.188 352.753C236.702 352.53 237.246 352.419 237.82 352.419Z" fill="#434343" fill-opacity="0.5"/>
<path d="M147.419 362.368C146.6 362.368 145.863 362.228 145.208 361.947C144.553 361.655 144.038 361.245 143.664 360.719C143.29 360.193 143.103 359.578 143.103 358.877H145.243C145.29 359.403 145.495 359.836 145.857 360.175C146.232 360.514 146.752 360.684 147.419 360.684C148.109 360.684 148.647 360.52 149.033 360.193C149.42 359.853 149.613 359.421 149.613 358.894C149.613 358.485 149.49 358.151 149.244 357.894C149.01 357.637 148.712 357.438 148.349 357.297C147.998 357.157 147.507 357.005 146.875 356.841C146.08 356.631 145.43 356.42 144.927 356.209C144.436 355.987 144.015 355.648 143.664 355.192C143.313 354.735 143.138 354.127 143.138 353.367C143.138 352.665 143.313 352.051 143.664 351.524C144.015 350.998 144.506 350.594 145.138 350.314C145.77 350.033 146.501 349.892 147.331 349.892C148.513 349.892 149.478 350.191 150.227 350.787C150.987 351.372 151.408 352.179 151.49 353.209H149.279C149.244 352.764 149.033 352.384 148.647 352.068C148.261 351.752 147.753 351.595 147.121 351.595C146.548 351.595 146.08 351.741 145.717 352.033C145.354 352.326 145.173 352.747 145.173 353.297C145.173 353.671 145.284 353.981 145.507 354.227C145.74 354.461 146.033 354.648 146.384 354.788C146.735 354.928 147.214 355.081 147.823 355.244C148.63 355.467 149.285 355.689 149.788 355.911C150.303 356.133 150.736 356.478 151.087 356.946C151.449 357.403 151.63 358.017 151.63 358.789C151.63 359.409 151.461 359.994 151.122 360.544C150.794 361.093 150.309 361.538 149.665 361.877C149.033 362.205 148.285 362.368 147.419 362.368ZM162.747 352.577V362.246H160.746V361.105C160.431 361.503 160.015 361.819 159.501 362.053C158.998 362.275 158.46 362.386 157.886 362.386C157.126 362.386 156.442 362.228 155.833 361.912C155.237 361.596 154.763 361.128 154.412 360.508C154.073 359.888 153.903 359.14 153.903 358.262V352.577H155.886V357.964C155.886 358.83 156.102 359.497 156.535 359.964C156.968 360.421 157.559 360.649 158.307 360.649C159.056 360.649 159.647 360.421 160.08 359.964C160.524 359.497 160.746 358.83 160.746 357.964V352.577H162.747ZM170.264 352.419C171.025 352.419 171.703 352.577 172.3 352.893C172.908 353.209 173.382 353.677 173.721 354.297C174.06 354.917 174.23 355.665 174.23 356.543V362.246H172.247V356.841C172.247 355.975 172.031 355.314 171.598 354.858C171.165 354.39 170.574 354.156 169.826 354.156C169.077 354.156 168.48 354.39 168.036 354.858C167.603 355.314 167.387 355.975 167.387 356.841V362.246H165.386V352.577H167.387V353.683C167.714 353.285 168.129 352.975 168.632 352.753C169.147 352.53 169.691 352.419 170.264 352.419Z" fill="#434343" fill-opacity="0.5"/>
<line x1="127.462" y1="333.01" x2="577.838" y2="333.01" stroke="#434343" stroke-opacity="0.25" stroke-width="2.92452" stroke-linecap="round"/>
<line x1="126.731" y1="272.326" x2="578.569" y2="272.326" stroke="#434343" stroke-opacity="0.25" stroke-width="1.46226" stroke-linecap="round"/>
<line x1="126.731" y1="187.515" x2="578.569" y2="187.515" stroke="#434343" stroke-opacity="0.25" stroke-width="1.46226" stroke-linecap="round"/>
<path d="M289.367 110.102C290.677 108.969 291.707 108.041 292.458 107.317C293.222 106.58 293.857 105.816 294.362 105.025C294.867 104.233 295.119 103.441 295.119 102.65C295.119 101.831 294.921 101.19 294.525 100.726C294.143 100.261 293.536 100.029 292.704 100.029C291.898 100.029 291.271 100.289 290.82 100.807C290.383 101.312 290.151 101.995 290.124 102.855H287.872C287.913 101.299 288.377 100.111 289.264 99.2925C290.165 98.46 291.305 98.0437 292.683 98.0437C294.171 98.0437 295.331 98.4532 296.163 99.272C297.009 100.091 297.432 101.183 297.432 102.547C297.432 103.53 297.18 104.479 296.675 105.393C296.184 106.294 295.59 107.106 294.894 107.829C294.212 108.539 293.338 109.365 292.274 110.306L291.352 111.125H297.842V113.07H287.893V111.371L289.367 110.102ZM299.892 105.618C299.892 103.257 300.288 101.415 301.079 100.091C301.885 98.7534 303.263 98.0847 305.215 98.0847C307.166 98.0847 308.538 98.7534 309.33 100.091C310.135 101.415 310.537 103.257 310.537 105.618C310.537 108.007 310.135 109.876 309.33 111.227C308.538 112.565 307.166 113.234 305.215 113.234C303.263 113.234 301.885 112.565 301.079 111.227C300.288 109.876 299.892 108.007 299.892 105.618ZM308.245 105.618C308.245 104.513 308.169 103.578 308.019 102.814C307.883 102.049 307.596 101.428 307.16 100.951C306.723 100.459 306.075 100.214 305.215 100.214C304.355 100.214 303.707 100.459 303.27 100.951C302.833 101.428 302.54 102.049 302.39 102.814C302.253 103.578 302.185 104.513 302.185 105.618C302.185 106.765 302.253 107.727 302.39 108.505C302.526 109.283 302.813 109.91 303.249 110.388C303.7 110.866 304.355 111.105 305.215 111.105C306.075 111.105 306.723 110.866 307.16 110.388C307.61 109.91 307.903 109.283 308.04 108.505C308.176 107.727 308.245 106.765 308.245 105.618ZM327.291 104.881V106.847H318.877V104.881H327.291ZM336.907 110.102C338.217 108.969 339.248 108.041 339.998 107.317C340.763 106.58 341.397 105.816 341.902 105.025C342.407 104.233 342.66 103.441 342.66 102.65C342.66 101.831 342.462 101.19 342.066 100.726C341.684 100.261 341.077 100.029 340.244 100.029C339.439 100.029 338.811 100.289 338.361 100.807C337.924 101.312 337.692 101.995 337.665 102.855H335.413C335.454 101.299 335.918 100.111 336.805 99.2925C337.706 98.46 338.845 98.0437 340.224 98.0437C341.711 98.0437 342.871 98.4532 343.704 99.272C344.55 100.091 344.973 101.183 344.973 102.547C344.973 103.53 344.721 104.479 344.216 105.393C343.724 106.294 343.131 107.106 342.435 107.829C341.752 108.539 340.879 109.365 339.814 110.306L338.893 111.125H345.382V113.07H335.433V111.371L336.907 110.102ZM355.458 101.811C355.307 101.183 355.035 100.712 354.639 100.398C354.243 100.084 353.69 99.9271 352.981 99.9271C351.902 99.9271 351.097 100.343 350.565 101.176C350.033 101.995 349.753 103.36 349.726 105.27C350.08 104.67 350.599 104.206 351.281 103.878C351.964 103.551 352.701 103.387 353.492 103.387C354.393 103.387 355.185 103.585 355.867 103.981C356.563 104.363 357.102 104.922 357.484 105.659C357.88 106.396 358.078 107.276 358.078 108.3C358.078 109.255 357.887 110.108 357.505 110.859C357.136 111.61 356.584 112.203 355.847 112.64C355.11 113.063 354.222 113.275 353.185 113.275C351.78 113.275 350.674 112.968 349.869 112.353C349.077 111.726 348.518 110.845 348.19 109.713C347.876 108.58 347.719 107.167 347.719 105.475C347.719 100.48 349.48 97.9823 353.001 97.9823C354.366 97.9823 355.437 98.3508 356.215 99.0878C357.007 99.8248 357.471 100.732 357.607 101.811H355.458ZM352.981 105.352C352.148 105.352 351.438 105.605 350.851 106.11C350.278 106.601 349.992 107.317 349.992 108.259C349.992 109.201 350.258 109.951 350.79 110.511C351.336 111.057 352.093 111.33 353.062 111.33C353.922 111.33 354.598 111.064 355.089 110.531C355.594 109.999 355.847 109.289 355.847 108.402C355.847 107.474 355.601 106.737 355.11 106.191C354.632 105.632 353.922 105.352 352.981 105.352ZM370.88 113.418C369.925 113.418 369.065 113.254 368.301 112.927C367.537 112.585 366.936 112.108 366.499 111.494C366.063 110.879 365.844 110.163 365.844 109.344H368.342C368.396 109.958 368.635 110.463 369.058 110.859C369.495 111.255 370.102 111.453 370.88 111.453C371.685 111.453 372.313 111.262 372.764 110.879C373.214 110.484 373.439 109.979 373.439 109.365C373.439 108.887 373.296 108.498 373.009 108.198C372.736 107.897 372.388 107.665 371.965 107.502C371.556 107.338 370.983 107.16 370.246 106.969C369.318 106.724 368.56 106.478 367.973 106.232C367.4 105.973 366.909 105.577 366.499 105.045C366.09 104.513 365.885 103.803 365.885 102.916C365.885 102.097 366.09 101.381 366.499 100.766C366.909 100.152 367.482 99.6815 368.219 99.3539C368.956 99.0264 369.809 98.8626 370.778 98.8626C372.156 98.8626 373.282 99.2106 374.156 99.9066C375.043 100.589 375.534 101.531 375.63 102.732H373.05C373.009 102.213 372.764 101.77 372.313 101.401C371.863 101.033 371.269 100.848 370.532 100.848C369.863 100.848 369.318 101.019 368.894 101.36C368.471 101.701 368.26 102.193 368.26 102.834C368.26 103.271 368.39 103.632 368.649 103.919C368.922 104.192 369.263 104.41 369.672 104.574C370.082 104.738 370.641 104.915 371.351 105.106C372.293 105.366 373.057 105.625 373.644 105.884C374.244 106.144 374.749 106.546 375.159 107.092C375.582 107.624 375.793 108.341 375.793 109.242C375.793 109.965 375.596 110.647 375.2 111.289C374.818 111.93 374.251 112.449 373.501 112.845C372.764 113.227 371.89 113.418 370.88 113.418ZM388.885 107.358C388.885 107.781 388.858 108.164 388.803 108.505H380.185C380.253 109.405 380.588 110.129 381.188 110.675C381.789 111.221 382.526 111.494 383.399 111.494C384.655 111.494 385.542 110.968 386.06 109.917H388.578C388.237 110.955 387.616 111.807 386.715 112.476C385.828 113.131 384.723 113.459 383.399 113.459C382.321 113.459 381.352 113.22 380.492 112.742C379.646 112.251 378.977 111.569 378.486 110.695C378.008 109.808 377.769 108.785 377.769 107.624C377.769 106.464 378.001 105.448 378.465 104.574C378.943 103.687 379.605 103.005 380.451 102.527C381.311 102.049 382.294 101.811 383.399 101.811C384.463 101.811 385.412 102.043 386.245 102.507C387.077 102.971 387.725 103.626 388.189 104.472C388.653 105.304 388.885 106.267 388.885 107.358ZM386.449 106.621C386.436 105.762 386.129 105.072 385.528 104.554C384.928 104.035 384.184 103.776 383.297 103.776C382.491 103.776 381.802 104.035 381.229 104.554C380.656 105.059 380.315 105.748 380.205 106.621H386.449ZM393.516 103.653C393.912 103.134 394.451 102.698 395.133 102.343C395.815 101.988 396.587 101.811 397.446 101.811C398.429 101.811 399.323 102.056 400.128 102.547C400.947 103.025 401.588 103.701 402.052 104.574C402.516 105.448 402.749 106.451 402.749 107.584C402.749 108.716 402.516 109.733 402.052 110.634C401.588 111.521 400.947 112.217 400.128 112.722C399.323 113.213 398.429 113.459 397.446 113.459C396.587 113.459 395.822 113.288 395.154 112.947C394.485 112.592 393.939 112.156 393.516 111.637V118.638H391.182V101.995H393.516V103.653ZM400.374 107.584C400.374 106.806 400.21 106.137 399.882 105.577C399.569 105.004 399.146 104.574 398.613 104.288C398.095 103.987 397.535 103.837 396.935 103.837C396.348 103.837 395.788 103.987 395.256 104.288C394.737 104.588 394.314 105.025 393.987 105.598C393.673 106.171 393.516 106.847 393.516 107.624C393.516 108.402 393.673 109.085 393.987 109.672C394.314 110.245 394.737 110.682 395.256 110.982C395.788 111.282 396.348 111.432 396.935 111.432C397.535 111.432 398.095 111.282 398.613 110.982C399.146 110.668 399.569 110.218 399.882 109.631C400.21 109.044 400.374 108.361 400.374 107.584ZM407.779 103.899V110.142C407.779 110.566 407.875 110.873 408.066 111.064C408.27 111.241 408.612 111.33 409.089 111.33H410.522V113.275H408.68C407.629 113.275 406.824 113.029 406.264 112.538C405.705 112.046 405.425 111.248 405.425 110.142V103.899H404.094V101.995H405.425V99.1901H407.779V101.995H410.522V103.899H407.779ZM423.011 107.358C423.011 107.781 422.984 108.164 422.93 108.505H414.311C414.379 109.405 414.714 110.129 415.314 110.675C415.915 111.221 416.652 111.494 417.525 111.494C418.781 111.494 419.668 110.968 420.186 109.917H422.704C422.363 110.955 421.742 111.807 420.841 112.476C419.954 113.131 418.849 113.459 417.525 113.459C416.447 113.459 415.478 113.22 414.618 112.742C413.772 112.251 413.103 111.569 412.612 110.695C412.134 109.808 411.895 108.785 411.895 107.624C411.895 106.464 412.127 105.448 412.591 104.574C413.069 103.687 413.731 103.005 414.577 102.527C415.437 102.049 416.42 101.811 417.525 101.811C418.59 101.811 419.538 102.043 420.371 102.507C421.203 102.971 421.851 103.626 422.315 104.472C422.779 105.304 423.011 106.267 423.011 107.358ZM420.575 106.621C420.562 105.762 420.255 105.072 419.654 104.554C419.054 104.035 418.31 103.776 417.423 103.776C416.617 103.776 415.928 104.035 415.355 104.554C414.782 105.059 414.441 105.748 414.331 106.621H420.575ZM438.963 101.811C439.85 101.811 440.641 101.995 441.337 102.363C442.047 102.732 442.6 103.278 442.996 104.001C443.405 104.724 443.61 105.598 443.61 106.621V113.275H441.296V106.969C441.296 105.959 441.044 105.188 440.539 104.656C440.034 104.11 439.345 103.837 438.471 103.837C437.598 103.837 436.902 104.11 436.383 104.656C435.878 105.188 435.626 105.959 435.626 106.969V113.275H433.313V106.969C433.313 105.959 433.06 105.188 432.555 104.656C432.05 104.11 431.361 103.837 430.487 103.837C429.614 103.837 428.918 104.11 428.399 104.656C427.894 105.188 427.642 105.959 427.642 106.969V113.275H425.308V101.995H427.642V103.284C428.024 102.82 428.508 102.459 429.095 102.199C429.682 101.94 430.31 101.811 430.979 101.811C431.879 101.811 432.685 102.002 433.394 102.384C434.104 102.766 434.65 103.319 435.032 104.042C435.373 103.36 435.906 102.82 436.629 102.425C437.352 102.015 438.13 101.811 438.963 101.811ZM448.913 103.673C449.309 103.128 449.848 102.684 450.53 102.343C451.226 101.988 451.998 101.811 452.844 101.811C453.84 101.811 454.741 102.049 455.546 102.527C456.351 103.005 456.986 103.687 457.45 104.574C457.914 105.448 458.146 106.451 458.146 107.584C458.146 108.716 457.914 109.733 457.45 110.634C456.986 111.521 456.344 112.217 455.526 112.722C454.72 113.213 453.826 113.459 452.844 113.459C451.97 113.459 451.192 113.288 450.51 112.947C449.841 112.606 449.309 112.169 448.913 111.637V113.275H446.579V98.1256H448.913V103.673ZM455.771 107.584C455.771 106.806 455.607 106.137 455.28 105.577C454.966 105.004 454.543 104.574 454.011 104.288C453.492 103.987 452.932 103.837 452.332 103.837C451.745 103.837 451.186 103.987 450.653 104.288C450.135 104.588 449.712 105.025 449.384 105.598C449.07 106.171 448.913 106.847 448.913 107.624C448.913 108.402 449.07 109.085 449.384 109.672C449.712 110.245 450.135 110.682 450.653 110.982C451.186 111.282 451.745 111.432 452.332 111.432C452.932 111.432 453.492 111.282 454.011 110.982C454.543 110.668 454.966 110.218 455.28 109.631C455.607 109.044 455.771 108.361 455.771 107.584ZM470.792 107.358C470.792 107.781 470.765 108.164 470.71 108.505H462.091C462.16 109.405 462.494 110.129 463.095 110.675C463.695 111.221 464.432 111.494 465.306 111.494C466.561 111.494 467.448 110.968 467.967 109.917H470.485C470.144 110.955 469.523 111.807 468.622 112.476C467.735 113.131 466.629 113.459 465.306 113.459C464.227 113.459 463.258 113.22 462.399 112.742C461.552 112.251 460.884 111.569 460.392 110.695C459.915 109.808 459.676 108.785 459.676 107.624C459.676 106.464 459.908 105.448 460.372 104.574C460.85 103.687 461.511 103.005 462.358 102.527C463.217 102.049 464.2 101.811 465.306 101.811C466.37 101.811 467.319 102.043 468.151 102.507C468.984 102.971 469.632 103.626 470.096 104.472C470.56 105.304 470.792 106.267 470.792 107.358ZM468.356 106.621C468.342 105.762 468.035 105.072 467.435 104.554C466.834 104.035 466.09 103.776 465.203 103.776C464.398 103.776 463.709 104.035 463.136 104.554C462.562 105.059 462.221 105.748 462.112 106.621H468.356ZM475.422 103.632C475.764 103.059 476.214 102.616 476.773 102.302C477.347 101.974 478.022 101.811 478.8 101.811V104.226H478.207C477.292 104.226 476.596 104.458 476.118 104.922C475.654 105.386 475.422 106.191 475.422 107.338V113.275H473.089V101.995H475.422V103.632Z" fill="#434343"/>
<path d="M134.774 110.746L126 102.223L134.774 93.1991" stroke="#434343" stroke-width="2.19339" stroke-linecap="round" stroke-linejoin="round"/>
<path d="M607.084 110.746L615.857 102.223L607.084 93.1991" stroke="#434343" stroke-opacity="0.25" stroke-width="2.19339" stroke-linecap="round" stroke-linejoin="round"/>
<path d="M142.044 419.527V411.157H156.626V449.585H147.255V419.527H142.044ZM161.836 419.527V411.157H176.417V449.585H167.047V419.527H161.836Z" fill="#06C1B0"/>
<path d="M193.763 437.355V438.653H190.429V449.585H188.833V438.653H185.481V437.355H193.763ZM199.923 449.743C199.022 449.743 198.203 449.538 197.466 449.129C196.741 448.719 196.168 448.14 195.746 447.392C195.337 446.631 195.132 445.754 195.132 444.76C195.132 443.777 195.343 442.911 195.764 442.163C196.197 441.402 196.782 440.823 197.519 440.425C198.256 440.016 199.08 439.811 199.993 439.811C200.905 439.811 201.73 440.016 202.467 440.425C203.204 440.823 203.783 441.396 204.204 442.145C204.637 442.894 204.853 443.765 204.853 444.76C204.853 445.754 204.631 446.631 204.187 447.392C203.754 448.14 203.163 448.719 202.414 449.129C201.666 449.538 200.835 449.743 199.923 449.743ZM199.923 448.339C200.496 448.339 201.034 448.205 201.537 447.936C202.04 447.667 202.444 447.263 202.748 446.725C203.064 446.187 203.221 445.532 203.221 444.76C203.221 443.988 203.069 443.332 202.765 442.794C202.461 442.256 202.063 441.859 201.572 441.601C201.081 441.332 200.548 441.198 199.975 441.198C199.39 441.198 198.852 441.332 198.361 441.601C197.881 441.859 197.495 442.256 197.203 442.794C196.91 443.332 196.764 443.988 196.764 444.76C196.764 445.543 196.905 446.204 197.185 446.742C197.478 447.281 197.864 447.684 198.343 447.953C198.823 448.211 199.349 448.339 199.923 448.339ZM208.901 441.285V446.953C208.901 447.421 209 447.754 209.199 447.953C209.398 448.14 209.743 448.234 210.234 448.234H211.41V449.585H209.971C209.082 449.585 208.415 449.38 207.971 448.971C207.526 448.562 207.304 447.889 207.304 446.953V441.285H206.058V439.969H207.304V437.548H208.901V439.969H211.41V441.285H208.901ZM212.748 444.742C212.748 443.759 212.947 442.9 213.345 442.163C213.742 441.414 214.286 440.835 214.976 440.425C215.678 440.016 216.456 439.811 217.31 439.811C218.152 439.811 218.884 439.993 219.504 440.355C220.124 440.718 220.586 441.174 220.89 441.724V439.969H222.504V449.585H220.89V447.795C220.574 448.357 220.1 448.825 219.468 449.199C218.848 449.562 218.123 449.743 217.293 449.743C216.439 449.743 215.667 449.532 214.976 449.111C214.286 448.69 213.742 448.099 213.345 447.339C212.947 446.579 212.748 445.713 212.748 444.742ZM220.89 444.76C220.89 444.034 220.744 443.403 220.451 442.865C220.159 442.326 219.761 441.917 219.258 441.636C218.767 441.344 218.223 441.198 217.626 441.198C217.029 441.198 216.485 441.338 215.994 441.619C215.503 441.899 215.111 442.309 214.819 442.847C214.526 443.385 214.38 444.017 214.38 444.742C214.38 445.479 214.526 446.122 214.819 446.672C215.111 447.21 215.503 447.626 215.994 447.918C216.485 448.199 217.029 448.339 217.626 448.339C218.223 448.339 218.767 448.199 219.258 447.918C219.761 447.626 220.159 447.21 220.451 446.672C220.744 446.122 220.89 445.485 220.89 444.76ZM226.799 436.6V449.585H225.203V436.6H226.799ZM242.376 440.934C242.376 441.952 242.025 442.8 241.323 443.479C240.633 444.145 239.574 444.479 238.147 444.479H235.796V449.585H234.199V437.355H238.147C239.527 437.355 240.574 437.688 241.288 438.355C242.013 439.022 242.376 439.882 242.376 440.934ZM238.147 443.163C239.036 443.163 239.691 442.97 240.112 442.584C240.533 442.198 240.744 441.648 240.744 440.934C240.744 439.425 239.878 438.671 238.147 438.671H235.796V443.163H238.147ZM248.554 449.743C247.653 449.743 246.835 449.538 246.098 449.129C245.372 448.719 244.799 448.14 244.378 447.392C243.969 446.631 243.764 445.754 243.764 444.76C243.764 443.777 243.974 442.911 244.396 442.163C244.828 441.402 245.413 440.823 246.15 440.425C246.887 440.016 247.712 439.811 248.624 439.811C249.537 439.811 250.362 440.016 251.099 440.425C251.836 440.823 252.415 441.396 252.836 442.145C253.269 442.894 253.485 443.765 253.485 444.76C253.485 445.754 253.263 446.631 252.818 447.392C252.385 448.14 251.795 448.719 251.046 449.129C250.297 449.538 249.467 449.743 248.554 449.743ZM248.554 448.339C249.127 448.339 249.666 448.205 250.169 447.936C250.672 447.667 251.075 447.263 251.379 446.725C251.695 446.187 251.853 445.532 251.853 444.76C251.853 443.988 251.701 443.332 251.397 442.794C251.093 442.256 250.695 441.859 250.204 441.601C249.712 441.332 249.18 441.198 248.607 441.198C248.022 441.198 247.484 441.332 246.993 441.601C246.513 441.859 246.127 442.256 245.834 442.794C245.542 443.332 245.396 443.988 245.396 444.76C245.396 445.543 245.536 446.204 245.817 446.742C246.109 447.281 246.495 447.684 246.975 447.953C247.455 448.211 247.981 448.339 248.554 448.339ZM256.409 438.408C256.105 438.408 255.848 438.302 255.637 438.092C255.427 437.881 255.321 437.624 255.321 437.32C255.321 437.015 255.427 436.758 255.637 436.548C255.848 436.337 256.105 436.232 256.409 436.232C256.702 436.232 256.947 436.337 257.146 436.548C257.357 436.758 257.462 437.015 257.462 437.32C257.462 437.624 257.357 437.881 257.146 438.092C256.947 438.302 256.702 438.408 256.409 438.408ZM257.181 439.969V449.585H255.584V439.969H257.181ZM264.588 439.794C265.758 439.794 266.705 440.151 267.43 440.864C268.156 441.566 268.518 442.584 268.518 443.917V449.585H266.939V444.145C266.939 443.186 266.699 442.455 266.22 441.952C265.74 441.437 265.085 441.18 264.254 441.18C263.412 441.18 262.739 441.443 262.236 441.97C261.745 442.496 261.499 443.262 261.499 444.268V449.585H259.903V439.969H261.499V441.338C261.815 440.847 262.242 440.466 262.78 440.197C263.33 439.928 263.933 439.794 264.588 439.794ZM273.074 441.285V446.953C273.074 447.421 273.174 447.754 273.373 447.953C273.572 448.14 273.917 448.234 274.408 448.234H275.584V449.585H274.145C273.256 449.585 272.589 449.38 272.144 448.971C271.7 448.562 271.478 447.889 271.478 446.953V441.285H270.232V439.969H271.478V437.548H273.074V439.969H275.584V441.285H273.074ZM280.922 449.743C280.185 449.743 279.525 449.62 278.94 449.375C278.355 449.117 277.893 448.766 277.553 448.322C277.214 447.865 277.027 447.345 276.992 446.76H278.641C278.688 447.24 278.91 447.632 279.308 447.936C279.718 448.24 280.25 448.392 280.905 448.392C281.513 448.392 281.993 448.257 282.344 447.988C282.695 447.719 282.87 447.38 282.87 446.971C282.87 446.549 282.683 446.239 282.309 446.041C281.934 445.83 281.355 445.625 280.572 445.426C279.858 445.239 279.273 445.052 278.817 444.865C278.372 444.666 277.986 444.379 277.659 444.005C277.343 443.619 277.185 443.116 277.185 442.496C277.185 442.005 277.331 441.554 277.624 441.145C277.916 440.735 278.331 440.414 278.869 440.18C279.408 439.934 280.022 439.811 280.712 439.811C281.776 439.811 282.636 440.08 283.291 440.619C283.946 441.157 284.297 441.894 284.344 442.829H282.747C282.712 442.326 282.508 441.923 282.133 441.619C281.771 441.315 281.279 441.162 280.659 441.162C280.086 441.162 279.63 441.285 279.291 441.531C278.951 441.777 278.782 442.098 278.782 442.496C278.782 442.812 278.881 443.075 279.08 443.286C279.291 443.485 279.548 443.648 279.852 443.777C280.168 443.894 280.601 444.028 281.151 444.181C281.841 444.368 282.402 444.555 282.835 444.742C283.268 444.918 283.636 445.187 283.941 445.549C284.256 445.912 284.42 446.386 284.432 446.971C284.432 447.497 284.286 447.971 283.993 448.392C283.701 448.813 283.285 449.146 282.747 449.392C282.221 449.626 281.613 449.743 280.922 449.743Z" fill="#434343"/>
<path d="M601.234 431.906L592.712 440.679L583.687 431.906" stroke="#434343" stroke-width="2.19339" stroke-linecap="round" stroke-linejoin="round"/>
</g>
<defs>
<filter id="filter0_d_10_180" x="0.00611877" y="0.100001" width="741.168" height="571.568" filterUnits="userSpaceOnUse" color-interpolation-filters="sRGB">
<feFlood flood-opacity="0" result="BackgroundImageFix"/>
<feColorMatrix in="SourceAlpha" type="matrix" values="0 0 0 0 0 0 0 0 0 0 0 0 0 0 0 0 0 0 127 0" result="hardAlpha"/>
<feOffset dy="3.24"/>
<feGaussianBlur stdDeviation="38.07"/>
<feColorMatrix type="matrix" values="0 0 0 0 0.587565 0 0 0 0 0.587565 0 0 0 0 0.587565 0 0 0 0.25 0"/>
<feBlend mode="normal" in2="BackgroundImageFix" result="effect1_dropShadow_10_180"/>
<feBlend mode="normal" in="SourceGraphic" in2="effect1_dropShadow_10_180" result="shape"/>
</filter>
</defs>
</svg>
