<svg width="230" height="230" viewBox="0 0 230 230" fill="none" xmlns="http://www.w3.org/2000/svg">
<circle cx="115" cy="115" r="115" fill="#F8F8FA"/>
<path d="M65 82.7273C65 97.4884 75.969 109.455 89.5 109.455C103.031 109.455 114 97.4884 114 82.7273C114 67.9662 103.031 56 89.5 56" stroke="#2A77CE" stroke-width="4.9" stroke-linecap="round" stroke-linejoin="round"/>
<path opacity="0.65" d="M89.5 98.7637C97.6186 98.7637 104.2 91.5839 104.2 82.7273C104.2 73.8706 97.6186 66.6909 89.5 66.6909" stroke="#2A77CE" stroke-width="4.9" stroke-linecap="round" stroke-linejoin="round"/>
<path d="M117.568 82.5454H128.126C137.997 82.5454 146 90.5479 146 100.42V100.42C146 110.291 137.997 118.294 128.126 118.294H70.1259C60.1152 118.294 52 126.409 52 136.42V136.42C52 146.43 60.1152 154.545 70.1259 154.545H78.1111" stroke="#1D1D1D"/>
<rect opacity="0.1" x="78.5" y="135.045" width="97" height="31" rx="3.5" fill="#2A77CE" stroke="#2A77CE"/>
<rect x="81.5" y="138.045" width="97" height="31" rx="3.5" fill="#2A77CE" stroke="#2A77CE"/>
<circle cx="115" cy="82.5454" r="5" fill="#2A77CE" stroke="#F8F8FA" stroke-width="2"/>
<circle cx="81" cy="153.545" r="5" fill="#2A77CE" stroke="#F8F8FA" stroke-width="2"/>
<path d="M108.986 151.72V159.795C108.986 160.462 109.127 160.937 109.411 161.22C109.694 161.487 110.186 161.62 110.886 161.62H112.561V163.545H110.511C109.244 163.545 108.294 163.254 107.661 162.67C107.027 162.087 106.711 161.129 106.711 159.795V151.72H104.936V149.845H106.711V146.395H108.986V149.845H112.561V151.72H108.986ZM113.967 156.645C113.967 155.245 114.25 154.02 114.817 152.97C115.384 151.904 116.159 151.079 117.142 150.495C118.142 149.912 119.25 149.62 120.467 149.62C121.667 149.62 122.709 149.879 123.592 150.395C124.475 150.912 125.134 151.562 125.567 152.345V149.845H127.867V163.545H125.567V160.995C125.117 161.795 124.442 162.462 123.542 162.995C122.659 163.512 121.625 163.77 120.442 163.77C119.225 163.77 118.125 163.47 117.142 162.87C116.159 162.27 115.384 161.429 114.817 160.345C114.25 159.262 113.967 158.029 113.967 156.645ZM125.567 156.67C125.567 155.637 125.359 154.737 124.942 153.97C124.525 153.204 123.959 152.62 123.242 152.22C122.542 151.804 121.767 151.595 120.917 151.595C120.067 151.595 119.292 151.795 118.592 152.195C117.892 152.595 117.334 153.179 116.917 153.945C116.5 154.712 116.292 155.612 116.292 156.645C116.292 157.695 116.5 158.612 116.917 159.395C117.334 160.162 117.892 160.754 118.592 161.17C119.292 161.57 120.067 161.77 120.917 161.77C121.767 161.77 122.542 161.57 123.242 161.17C123.959 160.754 124.525 160.162 124.942 159.395C125.359 158.612 125.567 157.704 125.567 156.67ZM136.062 163.77C135.012 163.77 134.07 163.595 133.237 163.245C132.403 162.879 131.745 162.379 131.262 161.745C130.778 161.095 130.512 160.354 130.462 159.52H132.812C132.878 160.204 133.195 160.762 133.762 161.195C134.345 161.629 135.103 161.845 136.037 161.845C136.903 161.845 137.587 161.654 138.087 161.27C138.587 160.887 138.837 160.404 138.837 159.82C138.837 159.22 138.57 158.779 138.037 158.495C137.503 158.195 136.678 157.904 135.562 157.62C134.545 157.354 133.712 157.087 133.062 156.82C132.428 156.537 131.878 156.129 131.412 155.595C130.962 155.045 130.737 154.329 130.737 153.445C130.737 152.745 130.945 152.104 131.362 151.52C131.778 150.937 132.37 150.479 133.137 150.145C133.903 149.795 134.778 149.62 135.762 149.62C137.278 149.62 138.503 150.004 139.437 150.77C140.37 151.537 140.87 152.587 140.937 153.92H138.662C138.612 153.204 138.32 152.629 137.787 152.195C137.27 151.762 136.57 151.545 135.687 151.545C134.87 151.545 134.22 151.72 133.737 152.07C133.253 152.42 133.012 152.879 133.012 153.445C133.012 153.895 133.153 154.27 133.437 154.57C133.737 154.854 134.103 155.087 134.537 155.27C134.987 155.437 135.603 155.629 136.387 155.845C137.37 156.112 138.17 156.379 138.787 156.645C139.403 156.895 139.928 157.279 140.362 157.795C140.812 158.312 141.045 158.987 141.062 159.82C141.062 160.57 140.853 161.245 140.437 161.845C140.02 162.445 139.428 162.92 138.662 163.27C137.912 163.604 137.045 163.77 136.062 163.77ZM151.423 163.545L146.048 157.495V163.545H143.773V145.045H146.048V155.92L151.323 149.845H154.498L148.048 156.67L154.523 163.545H151.423Z" fill="white"/>
</svg>
