<svg width="230" height="230" viewBox="0 0 230 230" fill="none" xmlns="http://www.w3.org/2000/svg">
<circle cx="115" cy="115" r="115" fill="#F8F8FA"/>
<path d="M29.5427 93.228H55.4573C56.4286 93.228 57.228 92.461 57.228 91.5C57.228 90.5391 56.4297 89.772 55.4573 89.772H29.5427C28.5703 89.772 27.772 90.5391 27.772 91.5C27.772 92.4609 28.5703 93.228 29.5427 93.228Z" fill="#2A77CE" stroke="#2A77CE" stroke-width="0.455959"/>
<path d="M202.457 93.228H176.543C175.571 93.228 174.772 92.461 174.772 91.5C174.772 90.5391 175.57 89.772 176.543 89.772H202.457C203.43 89.772 204.228 90.5391 204.228 91.5C204.228 92.4609 203.43 93.228 202.457 93.228Z" fill="#2A77CE" stroke="#2A77CE" stroke-width="0.455959"/>
<path d="M23.5959 112.228H50.4041C51.3986 112.228 52.228 111.467 52.228 110.5C52.228 109.533 51.3986 108.772 50.4041 108.772H23.5959C22.6014 108.772 21.772 109.533 21.772 110.5C21.772 111.467 22.6014 112.228 23.5959 112.228Z" fill="#2A77CE" stroke="#2A77CE" stroke-width="0.455959"/>
<path d="M208.404 112.228H181.596C180.601 112.228 179.772 111.467 179.772 110.5C179.772 109.533 180.601 108.772 181.596 108.772H208.404C209.399 108.772 210.228 109.533 210.228 110.5C210.228 111.467 209.399 112.228 208.404 112.228Z" fill="#2A77CE" stroke="#2A77CE" stroke-width="0.455959"/>
<path d="M29.5427 132.228H55.4573C56.4287 132.228 57.228 131.46 57.228 130.5C57.228 129.54 56.4298 128.772 55.4573 128.772H29.5427C28.5702 128.772 27.772 129.54 27.772 130.5C27.772 131.46 28.5702 132.228 29.5427 132.228Z" fill="#2A77CE" stroke="#2A77CE" stroke-width="0.455959"/>
<path d="M202.457 132.228H176.543C175.571 132.228 174.772 131.46 174.772 130.5C174.772 129.54 175.57 128.772 176.543 128.772H202.457C203.43 128.772 204.228 129.54 204.228 130.5C204.228 131.46 203.43 132.228 202.457 132.228Z" fill="#2A77CE" stroke="#2A77CE" stroke-width="0.455959"/>
<path d="M58.4794 107.492L85.0642 79.6711C87.7433 78.6407 93.3488 76.5798 94.338 76.5798C95.3272 76.5798 97.6354 77.4042 98.6658 77.8163L100.521 82.7624L98.0475 91.4179L72.081 120.476L65.2802 121.712L60.9524 120.476C59.7159 119.445 57.2429 117.261 57.2429 116.766V109.965L58.4794 107.492Z" fill="#2A77CE"/>
<path d="M133.907 79.6711L131.434 83.3806L130.197 88.9448L132.052 92.6544C141.944 102.752 161.852 122.949 162.346 122.949C162.841 122.949 165.85 122.537 167.292 122.33C168.735 121.712 171.867 120.352 172.857 119.857C174.093 119.239 173.475 115.53 174.093 114.293C174.711 113.057 174.093 112.438 174.093 111.82C174.093 111.326 173.269 109.553 172.857 108.729L143.799 80.2893L138.853 78.4346L133.907 79.6711Z" fill="#72A4DD"/>
<path opacity="0.65" d="M122.683 98.9357L118.355 102.645L116.5 104.5L114.122 103.165C112.886 101.722 110.289 98.7132 109.794 98.2186C109.3 97.724 103.818 96.3639 101.139 95.7456L94.9563 95.1274L73.9358 118.621L74.554 121.094C74.7601 122.949 76 126.505 76 127C76 127.495 77.0878 129.645 77.5 131.5L78.8818 135.932L76.4088 139.641L73.9358 142.733L74.554 146.442L78.2636 149.534H80.7366L81.9731 153.243L85.0643 155.716L87.5373 156.953L88.7738 158.807L89.3921 161.28L92.4833 163.753L96.1929 164.372L96.8111 166.845V169.318L100.521 171.172L105.467 170.554L107.94 168.081L109.794 169.318L114.122 174.882C116.389 175.912 121.418 178.097 123.396 178.591C125.869 179.21 127.105 175.5 127.724 174.882C128.218 174.387 128.754 170.554 128.96 168.699H132.051C133.082 168.287 135.143 167.339 135.143 166.845C135.143 166.35 136.379 162.105 136.997 160.044C137.822 160.25 139.594 160.786 140.089 161.28C140.707 161.899 145.035 159.426 145.653 158.189C146.148 157.2 146.271 155.716 146.271 155.098L145.653 150.152L149.362 150.77C150.393 150.152 152.454 148.792 152.454 148.297C152.454 147.679 153.69 143.351 153.69 142.733V139.023L154.309 135.932L155.545 129.749L156.782 125.422C156.988 124.391 157.4 122.207 157.4 121.712V118.003L134.524 95.7456L132.051 96.3639H127.724L122.683 98.9357Z" fill="#2A77CE"/>
<path d="M102.376 95.1274L96.1934 95.7456L77.6459 113.057L75.7911 116.766L76.4094 124.803L77.6459 132.841L80.7372 137.168C82.5919 135.932 86.4251 133.459 86.9197 133.459C87.5379 133.459 89.3927 134.695 90.0109 135.314C90.5055 135.808 91.8657 138.817 92.4839 140.26L96.1934 142.115C96.8117 142.939 98.0482 144.711 98.0482 145.206C98.0482 145.824 101.139 147.679 101.139 148.297C101.139 148.915 104.231 150.77 104.849 151.388C105.344 151.883 106.292 153.655 106.704 154.48L108.558 155.098C109.589 156.128 111.773 158.189 112.268 158.189C112.886 158.189 113.504 160.662 113.504 161.28C113.504 161.775 113.092 162.723 112.886 163.135L109.177 168.699L111.031 170.554L115.359 174.882C115.977 175.5 122.16 177.973 123.397 178.591C124.633 179.21 127.106 176.737 127.724 176.118C128.343 175.5 128.961 172.409 128.961 171.791C128.961 171.296 129.373 169.524 129.579 168.699C131.228 169.111 134.649 169.812 135.143 169.318C135.762 168.699 136.998 164.99 136.998 164.372V159.426C138.028 159.838 140.213 160.662 140.708 160.662C141.326 160.662 145.654 160.662 146.272 159.426C146.89 158.189 147.508 155.098 147.508 153.861C147.508 152.872 147.096 150.564 146.89 149.534H148.745H151.836C152.454 148.709 153.814 146.813 154.309 145.824C154.927 144.588 155.546 142.115 155.546 140.878C155.546 139.641 153.691 137.787 153.073 136.55C152.454 135.314 145.035 129.749 143.799 128.513C142.81 127.524 130.609 119.445 124.633 115.53L122.778 117.384C120.924 119.445 117.214 123.691 117.214 124.185C117.214 124.803 112.886 126.658 111.031 127.276C109.177 127.895 106.704 127.276 106.085 126.658L106.085 126.658C105.467 126.04 104.231 124.803 103.612 123.567C102.994 122.33 103.612 120.476 103.612 119.239C103.612 118.25 106.498 114.293 107.94 112.438C109.589 111.408 113.381 108.853 115.359 106.874C117.338 104.896 117.008 103.989 116.596 103.783C115.771 103.371 113.999 102.423 113.504 101.928C112.886 101.31 111.65 99.4551 111.031 98.2186C110.537 97.2294 108.352 96.57 107.322 96.3639L102.376 95.1274Z" fill="#2A77CE"/>
<path d="M157.351 121.023L157.351 121.023C159.33 123.088 161.964 124.228 164.768 124.228C167.573 124.228 170.207 123.088 172.186 121.023L172.186 121.023C176.242 116.786 176.242 109.899 172.186 105.664L146.647 78.9773L146.647 78.9773C144.669 76.9122 142.037 75.772 139.23 75.772C136.423 75.772 133.789 76.9121 131.813 78.9774C127.758 83.2145 127.758 90.0987 131.813 94.3359L131.813 94.3359L157.351 121.023ZM134.522 81.6694L134.522 81.6691C135.784 80.348 137.455 79.6255 139.23 79.6255C141.004 79.6255 142.675 80.348 143.94 81.6693L169.479 108.356L169.479 108.356C172.113 111.106 172.113 115.585 169.479 118.335L169.479 118.335C166.96 120.969 162.579 120.969 160.061 118.335L160.061 118.335L134.522 91.6485L134.522 91.6485C131.889 88.8981 131.889 84.4173 134.522 81.6694Z" fill="#72A4DD" stroke="#72A4DD" stroke-width="0.455959"/>
<path d="M59.8129 120.023L59.8129 120.023C61.7911 122.088 64.4252 123.228 67.2302 123.228C70.0374 123.228 72.6715 122.088 74.6476 120.023L100.187 93.3359L100.037 93.1922L100.187 93.3359C104.242 89.0987 104.242 82.2122 100.187 77.9773L100.187 77.9773C98.2089 75.9122 95.5771 74.772 92.7698 74.772C89.9626 74.772 87.3285 75.9121 85.3524 77.9773C85.3524 77.9773 85.3524 77.9773 85.3524 77.9774L59.8129 104.664L59.8129 104.664C55.7584 108.901 55.7584 115.788 59.8129 120.023ZM88.0617 80.6693L88.0618 80.6691C89.3241 79.348 90.995 78.6255 92.7698 78.6255C94.5445 78.6255 96.2155 79.348 97.4802 80.6671C100.115 83.4174 100.115 87.8959 97.4802 90.6461L97.4801 90.6462L71.9405 117.333L71.9405 117.333C69.422 119.967 65.0407 119.967 62.5222 117.333L62.5221 117.333C59.8896 114.585 59.8895 110.104 62.5221 107.354L62.3597 107.198L62.5221 107.354L88.0617 80.6693Z" fill="#2A77CE" stroke="#2A77CE" stroke-width="0.455959"/>
<mask id="path-14-outside-1_63_1288" maskUnits="userSpaceOnUse" x="74" y="92" width="86" height="86" fill="black">
<rect fill="white" x="74" y="92" width="86" height="86"/>
<path d="M122.026 177C120.389 177 118.773 176.595 117.362 175.81C116.077 175.094 114.956 174.05 114.111 172.788L108.068 167.111C107.745 166.806 107.557 166.384 107.546 165.939C107.537 165.493 108.186 165.321 108.5 165L111.5 161.5C112.61 160.361 112.44 158.362 111.33 157.227L110.414 156.287C109.364 155.215 107.546 155.208 106.493 156.29C105.852 156.946 104.802 156.955 104.147 156.316C103.815 155.993 103.647 155.56 103.647 155.131C103.647 154.713 103.804 154.295 104.12 153.972C105.231 152.836 105.231 150.983 104.12 149.848L103.205 148.911C102.148 147.832 100.332 147.832 99.282 148.911L99.0432 149.156C99.0409 149.158 99.0387 149.161 99.0365 149.163C98.3974 149.822 97.347 149.833 96.6903 149.194C96.0335 148.555 96.0512 148.048 96.6903 147.391L97.5 146C98.6035 144.861 97.7694 143.854 96.6615 142.722L95.746 141.784C94.6912 140.705 92.8779 140.705 91.8231 141.784L88.4131 145.271C88.0836 145.609 87.6281 145.8 87.146 145.769C86.6706 145.744 86.2305 145.521 85.932 145.15C85.4101 144.495 86.414 143.101 87 142.5L89.5 139.5C90.6101 138.363 90.5294 136.444 89.4171 135.305L88.506 134.372C87.4534 133.293 85.5548 132.921 84.5 134L82 136.5C81.6395 136.867 81.2682 137.432 80.7441 137.366C80.2311 137.302 79.7755 137.001 79.5146 136.554C75.773 130.109 74.2847 122.449 75.3218 114.988C75.3705 114.639 75.5319 114.312 75.7796 114.057L95.7703 93.5904C96.049 93.3029 96.4249 93.1283 96.8252 93.0951C97.4067 93.0486 97.9043 93.0111 98.4151 93.0022L98.8685 93C106.064 93 112.678 95.9852 117.313 101.255C118.267 100.244 119.273 99.3175 120.316 98.4883C123.503 95.9564 128.806 93.0111 135.816 93.3472C136.234 93.3671 136.632 93.544 136.924 93.8447L158.463 115.899C158.741 116.185 158.907 116.558 158.931 116.956C159.02 118.336 159.022 119.749 158.942 121.158C158.639 126.272 157.392 131.007 155.126 135.593C155.747 136.678 156.154 137.839 156.335 139.051C156.873 142.711 155.486 147.504 151.167 149.391C150.336 149.753 149.456 149.979 148.551 150.058C149.117 153.435 148.193 156.781 146.037 158.58C144.228 160.089 141.523 160.524 138.828 159.876C139 163.012 137.937 165.911 135.9 167.392C134.617 168.323 132.888 168.71 131.044 168.544C131.031 169.999 130.681 171.388 130.007 172.6C128.934 174.534 127.068 175.963 124.755 176.624C123.859 176.876 122.939 177 122.026 177ZM111.573 165.849L116.528 170.503C116.628 170.599 116.716 170.705 116.792 170.822C117.353 171.706 118.11 172.429 118.976 172.911C120.416 173.714 122.19 173.9 123.844 173.429C125.303 173.013 126.462 172.144 127.105 170.983C127.749 169.827 127.897 168.352 127.521 166.835C127.375 166.245 127.563 165.621 128.012 165.212C128.459 164.803 129.096 164.675 129.671 164.869C131.342 165.444 133.019 165.378 133.95 164.708C135.265 163.75 136.075 160.816 135.086 157.745C134.876 157.092 135.088 156.378 135.621 155.947C136.156 155.518 136.9 155.46 137.492 155.799C140.066 157.285 142.722 157.024 143.912 156.029C145.272 154.894 145.979 151.914 144.807 148.886C144.588 148.323 144.695 147.684 145.084 147.219C145.475 146.757 146.088 146.543 146.68 146.662C147.782 146.883 148.867 146.773 149.84 146.348C152.441 145.214 153.423 142.063 153.051 139.535C152.901 138.514 152.501 137.541 151.864 136.641C151.506 136.132 151.71 135.551 152 135C154.32 130.566 155.336 125.919 155.628 120.961C155.689 119.893 155.696 118.82 155.652 117.768L135 96C129.244 95.8496 124.64 97.4015 122 99.5C120.631 100.586 119.181 102.569 118 104C117.675 104.394 117.002 105.498 116.5 105.5C115.994 105.487 116.232 105.217 115.927 104.806C111.911 99.4103 105.693 96.3124 98.8662 96.3124L98.466 96.3146C98.2095 96.319 97.9574 96.3323 97.7031 96.3522L78.535 115.975C77.8317 121.797 78.8202 127.723 81.3456 132.935L82.2102 132.05C84.5211 129.686 88.5657 129.691 90.8766 132.05L91.7899 132.986C93.0349 134.261 93.6231 135.96 93.5545 137.634C95.2838 137.587 96.9092 138.228 98.1166 139.462L99.0321 140.4C100.209 141.605 100.801 143.188 100.803 144.771C102.535 144.641 104.315 145.3 105.576 146.589L106.491 147.527C107.729 148.794 108.318 150.476 108.258 152.139C109.939 152.064 111.586 152.741 112.787 153.97L113.702 154.91C116.06 157.325 116.06 161.254 113.702 163.671L111.573 165.849Z"/>
</mask>
<path d="M122.026 177C120.389 177 118.773 176.595 117.362 175.81C116.077 175.094 114.956 174.05 114.111 172.788L108.068 167.111C107.745 166.806 107.557 166.384 107.546 165.939C107.537 165.493 108.186 165.321 108.5 165L111.5 161.5C112.61 160.361 112.44 158.362 111.33 157.227L110.414 156.287C109.364 155.215 107.546 155.208 106.493 156.29C105.852 156.946 104.802 156.955 104.147 156.316C103.815 155.993 103.647 155.56 103.647 155.131C103.647 154.713 103.804 154.295 104.12 153.972C105.231 152.836 105.231 150.983 104.12 149.848L103.205 148.911C102.148 147.832 100.332 147.832 99.282 148.911L99.0432 149.156C99.0409 149.158 99.0387 149.161 99.0365 149.163C98.3974 149.822 97.347 149.833 96.6903 149.194C96.0335 148.555 96.0512 148.048 96.6903 147.391L97.5 146C98.6035 144.861 97.7694 143.854 96.6615 142.722L95.746 141.784C94.6912 140.705 92.8779 140.705 91.8231 141.784L88.4131 145.271C88.0836 145.609 87.6281 145.8 87.146 145.769C86.6706 145.744 86.2305 145.521 85.932 145.15C85.4101 144.495 86.414 143.101 87 142.5L89.5 139.5C90.6101 138.363 90.5294 136.444 89.4171 135.305L88.506 134.372C87.4534 133.293 85.5548 132.921 84.5 134L82 136.5C81.6395 136.867 81.2682 137.432 80.7441 137.366C80.2311 137.302 79.7755 137.001 79.5146 136.554C75.773 130.109 74.2847 122.449 75.3218 114.988C75.3705 114.639 75.5319 114.312 75.7796 114.057L95.7703 93.5904C96.049 93.3029 96.4249 93.1283 96.8252 93.0951C97.4067 93.0486 97.9043 93.0111 98.4151 93.0022L98.8685 93C106.064 93 112.678 95.9852 117.313 101.255C118.267 100.244 119.273 99.3175 120.316 98.4883C123.503 95.9564 128.806 93.0111 135.816 93.3472C136.234 93.3671 136.632 93.544 136.924 93.8447L158.463 115.899C158.741 116.185 158.907 116.558 158.931 116.956C159.02 118.336 159.022 119.749 158.942 121.158C158.639 126.272 157.392 131.007 155.126 135.593C155.747 136.678 156.154 137.839 156.335 139.051C156.873 142.711 155.486 147.504 151.167 149.391C150.336 149.753 149.456 149.979 148.551 150.058C149.117 153.435 148.193 156.781 146.037 158.58C144.228 160.089 141.523 160.524 138.828 159.876C139 163.012 137.937 165.911 135.9 167.392C134.617 168.323 132.888 168.71 131.044 168.544C131.031 169.999 130.681 171.388 130.007 172.6C128.934 174.534 127.068 175.963 124.755 176.624C123.859 176.876 122.939 177 122.026 177ZM111.573 165.849L116.528 170.503C116.628 170.599 116.716 170.705 116.792 170.822C117.353 171.706 118.11 172.429 118.976 172.911C120.416 173.714 122.19 173.9 123.844 173.429C125.303 173.013 126.462 172.144 127.105 170.983C127.749 169.827 127.897 168.352 127.521 166.835C127.375 166.245 127.563 165.621 128.012 165.212C128.459 164.803 129.096 164.675 129.671 164.869C131.342 165.444 133.019 165.378 133.95 164.708C135.265 163.75 136.075 160.816 135.086 157.745C134.876 157.092 135.088 156.378 135.621 155.947C136.156 155.518 136.9 155.46 137.492 155.799C140.066 157.285 142.722 157.024 143.912 156.029C145.272 154.894 145.979 151.914 144.807 148.886C144.588 148.323 144.695 147.684 145.084 147.219C145.475 146.757 146.088 146.543 146.68 146.662C147.782 146.883 148.867 146.773 149.84 146.348C152.441 145.214 153.423 142.063 153.051 139.535C152.901 138.514 152.501 137.541 151.864 136.641C151.506 136.132 151.71 135.551 152 135C154.32 130.566 155.336 125.919 155.628 120.961C155.689 119.893 155.696 118.82 155.652 117.768L135 96C129.244 95.8496 124.64 97.4015 122 99.5C120.631 100.586 119.181 102.569 118 104C117.675 104.394 117.002 105.498 116.5 105.5C115.994 105.487 116.232 105.217 115.927 104.806C111.911 99.4103 105.693 96.3124 98.8662 96.3124L98.466 96.3146C98.2095 96.319 97.9574 96.3323 97.7031 96.3522L78.535 115.975C77.8317 121.797 78.8202 127.723 81.3456 132.935L82.2102 132.05C84.5211 129.686 88.5657 129.691 90.8766 132.05L91.7899 132.986C93.0349 134.261 93.6231 135.96 93.5545 137.634C95.2838 137.587 96.9092 138.228 98.1166 139.462L99.0321 140.4C100.209 141.605 100.801 143.188 100.803 144.771C102.535 144.641 104.315 145.3 105.576 146.589L106.491 147.527C107.729 148.794 108.318 150.476 108.258 152.139C109.939 152.064 111.586 152.741 112.787 153.97L113.702 154.91C116.06 157.325 116.06 161.254 113.702 163.671L111.573 165.849Z" fill="#2A77CE"/>
<path d="M122.026 177C120.389 177 118.773 176.595 117.362 175.81C116.077 175.094 114.956 174.05 114.111 172.788L108.068 167.111C107.745 166.806 107.557 166.384 107.546 165.939C107.537 165.493 108.186 165.321 108.5 165L111.5 161.5C112.61 160.361 112.44 158.362 111.33 157.227L110.414 156.287C109.364 155.215 107.546 155.208 106.493 156.29C105.852 156.946 104.802 156.955 104.147 156.316C103.815 155.993 103.647 155.56 103.647 155.131C103.647 154.713 103.804 154.295 104.12 153.972C105.231 152.836 105.231 150.983 104.12 149.848L103.205 148.911C102.148 147.832 100.332 147.832 99.282 148.911L99.0432 149.156C99.0409 149.158 99.0387 149.161 99.0365 149.163C98.3974 149.822 97.347 149.833 96.6903 149.194C96.0335 148.555 96.0512 148.048 96.6903 147.391L97.5 146C98.6035 144.861 97.7694 143.854 96.6615 142.722L95.746 141.784C94.6912 140.705 92.8779 140.705 91.8231 141.784L88.4131 145.271C88.0836 145.609 87.6281 145.8 87.146 145.769C86.6706 145.744 86.2305 145.521 85.932 145.15C85.4101 144.495 86.414 143.101 87 142.5L89.5 139.5C90.6101 138.363 90.5294 136.444 89.4171 135.305L88.506 134.372C87.4534 133.293 85.5548 132.921 84.5 134L82 136.5C81.6395 136.867 81.2682 137.432 80.7441 137.366C80.2311 137.302 79.7755 137.001 79.5146 136.554C75.773 130.109 74.2847 122.449 75.3218 114.988C75.3705 114.639 75.5319 114.312 75.7796 114.057L95.7703 93.5904C96.049 93.3029 96.4249 93.1283 96.8252 93.0951C97.4067 93.0486 97.9043 93.0111 98.4151 93.0022L98.8685 93C106.064 93 112.678 95.9852 117.313 101.255C118.267 100.244 119.273 99.3175 120.316 98.4883C123.503 95.9564 128.806 93.0111 135.816 93.3472C136.234 93.3671 136.632 93.544 136.924 93.8447L158.463 115.899C158.741 116.185 158.907 116.558 158.931 116.956C159.02 118.336 159.022 119.749 158.942 121.158C158.639 126.272 157.392 131.007 155.126 135.593C155.747 136.678 156.154 137.839 156.335 139.051C156.873 142.711 155.486 147.504 151.167 149.391C150.336 149.753 149.456 149.979 148.551 150.058C149.117 153.435 148.193 156.781 146.037 158.58C144.228 160.089 141.523 160.524 138.828 159.876C139 163.012 137.937 165.911 135.9 167.392C134.617 168.323 132.888 168.71 131.044 168.544C131.031 169.999 130.681 171.388 130.007 172.6C128.934 174.534 127.068 175.963 124.755 176.624C123.859 176.876 122.939 177 122.026 177ZM111.573 165.849L116.528 170.503C116.628 170.599 116.716 170.705 116.792 170.822C117.353 171.706 118.11 172.429 118.976 172.911C120.416 173.714 122.19 173.9 123.844 173.429C125.303 173.013 126.462 172.144 127.105 170.983C127.749 169.827 127.897 168.352 127.521 166.835C127.375 166.245 127.563 165.621 128.012 165.212C128.459 164.803 129.096 164.675 129.671 164.869C131.342 165.444 133.019 165.378 133.95 164.708C135.265 163.75 136.075 160.816 135.086 157.745C134.876 157.092 135.088 156.378 135.621 155.947C136.156 155.518 136.9 155.46 137.492 155.799C140.066 157.285 142.722 157.024 143.912 156.029C145.272 154.894 145.979 151.914 144.807 148.886C144.588 148.323 144.695 147.684 145.084 147.219C145.475 146.757 146.088 146.543 146.68 146.662C147.782 146.883 148.867 146.773 149.84 146.348C152.441 145.214 153.423 142.063 153.051 139.535C152.901 138.514 152.501 137.541 151.864 136.641C151.506 136.132 151.71 135.551 152 135C154.32 130.566 155.336 125.919 155.628 120.961C155.689 119.893 155.696 118.82 155.652 117.768L135 96C129.244 95.8496 124.64 97.4015 122 99.5C120.631 100.586 119.181 102.569 118 104C117.675 104.394 117.002 105.498 116.5 105.5C115.994 105.487 116.232 105.217 115.927 104.806C111.911 99.4103 105.693 96.3124 98.8662 96.3124L98.466 96.3146C98.2095 96.319 97.9574 96.3323 97.7031 96.3522L78.535 115.975C77.8317 121.797 78.8202 127.723 81.3456 132.935L82.2102 132.05C84.5211 129.686 88.5657 129.691 90.8766 132.05L91.7899 132.986C93.0349 134.261 93.6231 135.96 93.5545 137.634C95.2838 137.587 96.9092 138.228 98.1166 139.462L99.0321 140.4C100.209 141.605 100.801 143.188 100.803 144.771C102.535 144.641 104.315 145.3 105.576 146.589L106.491 147.527C107.729 148.794 108.318 150.476 108.258 152.139C109.939 152.064 111.586 152.741 112.787 153.97L113.702 154.91C116.06 157.325 116.06 161.254 113.702 163.671L111.573 165.849Z" stroke="#2A77CE" stroke-width="0.911917" mask="url(#path-14-outside-1_63_1288)"/>
<path d="M103.705 126.783L103.704 126.783C101.857 125.242 100.786 122.99 100.772 120.607L100.772 120.607C100.761 118.325 101.746 116.165 103.48 114.684L114.906 102.4C114.906 102.4 114.906 102.4 114.906 102.4C114.961 102.34 115.02 102.285 115.077 102.237C115.559 101.67 116.097 101.086 116.669 100.505L116.818 100.343L116.824 100.336L116.824 100.337C117.657 99.5011 118.482 98.7652 119.319 98.1017C122.599 95.4942 128.074 92.4522 135.313 92.7992C135.313 92.7992 135.313 92.7992 135.313 92.7992L135.302 93.0269C135.729 93.0473 136.136 93.2281 136.434 93.5355L103.705 126.783ZM103.705 126.783C106.953 129.49 111.635 129.248 114.587 126.225C114.587 126.225 114.588 126.225 114.588 126.224L123.943 116.751L151.934 137.841C152.271 138.095 152.678 138.228 153.091 138.228C153.232 138.228 153.372 138.213 153.509 138.185L153.509 138.185L153.514 138.184C154.066 138.061 154.533 137.699 154.794 137.199L103.705 126.783ZM158.614 115.922L136.598 93.3767L158.941 121.456C159.023 120.016 159.02 118.572 158.93 117.161L159.157 117.147C159.157 117.147 159.157 117.147 159.157 117.147C159.129 116.686 158.937 116.252 158.614 115.922ZM124.912 112.666L124.912 112.666C124.566 112.408 124.161 112.279 123.756 112.279C123.258 112.279 122.763 112.471 122.389 112.848L122.389 112.849L111.842 123.529L111.84 123.53C110.303 125.111 107.858 125.239 106.169 123.829L106.169 123.828C105.191 123.014 104.627 121.831 104.619 120.584C104.612 119.421 105.092 118.361 106.127 117.465L106.136 117.457L106.144 117.448L117.489 105.266C117.609 105.175 117.718 105.07 117.814 104.954L117.815 104.953C118.284 104.385 118.827 103.791 119.449 103.16L119.449 103.16L119.455 103.154L119.594 103.001C120.276 102.317 120.987 101.682 121.709 101.11L121.709 101.11C124.371 98.9947 128.624 96.491 134.388 96.6139L155.353 118.085C155.394 119.126 155.386 120.185 155.325 121.239C155.075 125.515 154.109 129.498 152.381 133.359L124.912 112.666Z" fill="#72A4DD" stroke="#72A4DD" stroke-width="0.455959"/>
<path d="M77.5562 145.527L77.5564 145.527L78.5284 146.506C78.5284 146.506 78.5285 146.506 78.5286 146.506C79.5602 147.541 81.3428 147.544 82.3708 146.506L82.371 146.506L88.4345 140.397L88.4347 140.397C89.5273 139.299 89.5275 137.508 88.4345 136.408L88.4345 136.408L87.467 135.434L87.4666 135.434C86.9526 134.913 86.2711 134.629 85.5481 134.629C84.8231 134.629 84.1436 134.913 83.6245 135.434L77.5562 145.527ZM77.5562 145.527C76.4661 144.432 76.4656 142.641 77.5565 141.54L83.6243 135.434L77.5562 145.527ZM75.69 149.247L75.6901 149.247C76.9587 150.523 78.6513 151.228 80.4545 151.228C82.2556 151.228 83.9456 150.523 85.2187 149.247L85.2191 149.247L91.2825 143.138C91.2825 143.138 91.2825 143.138 91.2825 143.138C93.8765 140.526 93.8764 136.28 91.2826 133.665L91.2825 133.665L90.3126 132.689L90.3124 132.688C87.7645 130.131 83.3268 130.136 80.7861 132.688L80.786 132.689L74.7155 138.797L74.7154 138.797C72.1238 141.41 72.1238 145.656 74.7178 148.268L74.7178 148.268L75.69 149.247Z" fill="#72A4DD" stroke="#72A4DD" stroke-width="0.455959"/>
<path d="M86.1252 149.017L86.125 149.018C85.1448 150.057 85.1446 151.758 86.1251 152.8L86.1252 152.8L86.9959 153.725L86.996 153.725C87.9138 154.701 89.497 154.698 90.4133 153.725L95.8744 147.924L86.1252 149.017ZM86.1252 149.017L91.582 143.215C91.5821 143.215 91.5821 143.215 91.5822 143.214C92.5026 142.239 94.0837 142.24 94.9995 143.214L94.9996 143.214L95.8746 144.144L95.8747 144.144M86.1252 149.017L95.8747 144.144M95.8747 144.144C96.8527 145.181 96.8532 146.882 95.8746 147.924L95.8747 144.144ZM84.3982 156.338L84.3983 156.338C85.5432 157.554 87.0736 158.228 88.7046 158.228C90.3377 158.228 91.8681 157.554 93.013 156.338L93.0131 156.338L98.4765 150.535L98.4766 150.535C100.812 148.05 100.812 144.016 98.4744 141.531L98.4744 141.531L97.5994 140.601L97.5993 140.601C95.3235 138.188 91.3626 138.161 89.0533 140.53H89.0499L88.9823 140.601L83.5253 146.404C83.5253 146.404 83.5253 146.404 83.5253 146.404C81.1876 148.889 81.1877 152.923 83.5252 155.41L83.5253 155.41L84.3982 156.338Z" fill="#72A4DD" stroke="#72A4DD" stroke-width="0.455959"/>
<path d="M91.3946 164.238L91.3943 164.238L90.5195 163.257L91.3946 164.238ZM91.3946 164.238C92.5382 165.516 94.0697 166.228 95.7049 166.228C97.3421 166.228 98.8736 165.516 100.017 164.238L100.017 164.238L105.479 158.13L105.479 158.13C107.811 155.52 107.811 151.287 105.479 148.678L105.479 148.678L104.604 147.699L104.604 147.699C102.329 145.158 98.3602 145.128 96.05 147.623M91.3946 164.238L96.05 147.623M96.05 147.623H96.0467L95.9787 147.699L90.5216 153.807C90.5216 153.807 90.5216 153.807 90.5216 153.807C88.1893 156.417 88.1891 160.65 90.5193 163.257L96.05 147.623ZM93.1292 156.533L93.1294 156.532L98.5862 150.425C98.5863 150.425 98.5864 150.424 98.5865 150.424C99.5065 149.399 101.083 149.4 101.996 150.424L101.996 150.424L102.871 151.403L102.871 151.403C103.854 152.501 103.855 154.304 102.871 155.405L102.871 155.405L97.4096 161.513L97.4095 161.513C96.4942 162.538 94.9157 162.536 94.0023 161.515C94.0023 161.515 94.0022 161.515 94.0022 161.515L93.1274 160.534L93.1271 160.534C92.1438 159.436 92.1436 157.633 93.1292 156.533Z" fill="#72A4DD" stroke="#72A4DD" stroke-width="0.455959"/>
<path d="M97.5255 170.411L97.5252 170.41C95.1877 167.923 95.1876 163.889 97.5253 161.404L97.5253 161.404L102.987 155.601L102.987 155.601C105.283 153.163 109.3 153.161 111.601 155.601L111.602 155.601L112.476 156.533L97.5255 170.411ZM97.5255 170.411L98.4004 171.338C99.5453 172.554 101.076 173.228 102.709 173.228C104.34 173.228 105.868 172.553 107.015 171.338L107.015 171.338L112.476 165.535L112.476 165.535M97.5255 170.411L112.476 165.535M112.476 165.535C114.812 163.05 114.812 159.016 112.476 156.534L112.476 165.535ZM100.123 164.017L100.123 164.017C99.1447 165.057 99.1445 166.758 100.125 167.8L100.998 168.725L100.998 168.725C101.914 169.7 103.497 169.7 104.415 168.725L109.874 162.924L100.123 164.017ZM100.123 164.017L105.584 158.215C106.503 157.241 108.088 157.24 108.999 158.212L108.999 158.212L109.874 159.144L109.875 159.144M100.123 164.017L109.875 159.144M109.875 159.144C110.852 160.181 110.853 161.882 109.874 162.924L109.875 159.144Z" fill="#72A4DD" stroke="#72A4DD" stroke-width="0.455959"/>
</svg>
