<svg width="1920" height="800" viewBox="0 0 1920 800" fill="none" xmlns="http://www.w3.org/2000/svg">
<rect width="1920" height="558" fill="#2A77CE"/>
<g opacity="0.2">
<path d="M36.7353 523.46L22.3364 534.623L33.2624 549.335L47.6613 538.171L36.7353 523.46ZM44.1682 537.682L33.7414 545.766L25.8295 535.112L36.2563 527.029L44.1682 537.682Z" fill="#06C1B0"/>
<path d="M1526.97 21.4559H1487V62.2906H1526.97V21.4559ZM1521.45 56.6582H1492.51V27.0883H1521.45V56.6582Z" fill="#F9B44D"/>
<path d="M73.4094 83.9639L108.015 57.4157L64.6727 35.0236L73.4094 83.9639ZM77.3731 73.8797L72.1203 45.1576L97.6512 58.3228L77.3731 73.8797Z" fill="#F9B44D"/>
<path d="M465.121 53.3768C476.147 53.3768 485.243 44.0834 485.243 32.8186C485.243 21.5539 476.147 12.2605 465.121 12.2605C454.096 12.2605 445 21.5539 445 32.8186C445 44.0834 454.096 53.3768 465.121 53.3768ZM465.121 18.1745C473.115 18.1745 479.73 24.9333 479.73 33.1003C479.73 41.2672 473.115 48.026 465.121 48.026C457.128 48.026 450.513 41.2672 450.513 33.1003C450.513 24.9333 457.128 18.1745 465.121 18.1745Z" fill="#184EA6"/>
<path d="M769.135 100.729L784.294 84.9586L799.454 100.729L803.589 96.5049L788.153 81.0159L803.589 65.5269L799.454 61.3026L784.294 77.0733L769.135 61.3026L765 65.5269L780.436 81.0159L765 96.5049L769.135 100.729Z" fill="#06C1B0"/>
<path d="M1716.13 484.893L1731.29 469.122L1746.45 484.893L1750.59 480.668L1735.15 465.179L1750.59 449.69L1746.45 445.466L1731.29 461.237L1716.13 445.466L1712 449.69L1727.44 465.179L1712 480.668L1716.13 484.893Z" fill="#06C1B0"/>
<path d="M1826 63.0259L1857.49 93.3573L1871.72 45.9135L1826 63.0259ZM1836.4 65.3033L1863.21 55.1342L1854.85 83.0771L1836.4 65.3033Z" fill="#06C1B0"/>
<path d="M1836.5 512.899C1830.75 512.899 1826 517.749 1826 523.627C1826 529.505 1830.75 534.355 1836.5 534.355C1842.25 534.355 1847 529.505 1847 523.627C1847 517.749 1842.25 512.899 1836.5 512.899ZM1836.5 531.269C1832.33 531.269 1828.88 527.742 1828.88 523.48C1828.88 519.218 1832.33 515.691 1836.5 515.691C1840.67 515.691 1844.12 519.218 1844.12 523.48C1844.12 527.742 1840.67 531.269 1836.5 531.269Z" fill="#184EA6"/>
<path d="M128.121 239.08C117.096 239.08 108 248.374 108 259.638C108 270.903 117.096 280.197 128.121 280.197C139.147 280.197 148.243 270.903 148.243 259.638C148.243 248.374 139.147 239.08 128.121 239.08ZM128.121 274.283C120.128 274.283 113.513 267.524 113.513 259.357C113.513 251.19 120.128 244.431 128.121 244.431C136.115 244.431 142.73 251.19 142.73 259.357C142.73 267.524 136.115 274.283 128.121 274.283Z" fill="#F9B44D"/>
<path d="M1577.12 487.356C1566.1 487.356 1557 496.65 1557 507.914C1557 519.179 1566.1 528.473 1577.12 528.473C1588.15 528.473 1597.24 519.179 1597.24 507.914C1597.24 496.65 1588.15 487.356 1577.12 487.356ZM1577.12 522.559C1569.13 522.559 1562.51 515.8 1562.51 507.633C1562.51 499.466 1569.13 492.707 1577.12 492.707C1585.11 492.707 1591.73 499.466 1591.73 507.633C1591.73 515.8 1585.11 522.559 1577.12 522.559Z" fill="#F9B44D"/>
<path d="M493 486.897H536.275L514.775 442.401L493 486.897ZM502.096 481.264L514.775 455.074L527.454 481.264H502.096Z" fill="#184EA6"/>
<path d="M275.8 495.458L292.93 478.331L276.166 460.83L259.037 477.957L275.8 495.458ZM263.712 478.009L276.116 465.606L288.255 478.279L275.851 490.682L263.712 478.009Z" fill="#184EA6"/>
<path d="M1836.21 217.625L1826 228.25L1815.79 217.625L1813 220.471L1823.4 230.907L1813 241.343L1815.79 244.189L1826 233.563L1836.21 244.189L1839 241.343L1828.6 230.907L1839 220.471L1836.21 217.625Z" fill="#F9B44D"/>
</g>
</svg>
