<svg width="599" height="720" viewBox="0 0 599 720" fill="none" xmlns="http://www.w3.org/2000/svg">
<g filter="url(#filter0_d_9_298)">
<rect x="77" y="73" width="445" height="567" rx="14.58" fill="white"/>
<circle cx="303.326" cy="222.169" r="89.6703" stroke="#06C1B0" stroke-opacity="0.1" stroke-width="9.31164"/>
<path fill-rule="evenodd" clip-rule="evenodd" d="M224.082 269.113C223.269 270.529 223.281 272.28 224.165 273.653C232.065 285.92 242.937 296.531 256.462 304.3C301.635 330.248 359.29 314.663 385.238 269.49C411.186 224.318 395.601 166.663 350.428 140.715C336.903 132.946 322.26 128.9 307.683 128.257C306.051 128.185 304.533 129.056 303.719 130.473C301.954 133.545 304.284 137.408 307.822 137.588C320.776 138.245 333.773 141.886 345.79 148.789C386.503 172.176 400.55 224.139 377.163 264.852C353.777 305.566 301.814 319.612 261.1 296.226C249.083 289.323 239.389 279.93 232.296 269.073C230.358 266.106 225.847 266.04 224.082 269.113Z" fill="#06C1B0"/>
<circle cx="303.326" cy="222.168" r="68.6223" stroke="#184EA6" stroke-opacity="0.1" stroke-width="9.31164"/>
<path fill-rule="evenodd" clip-rule="evenodd" d="M304.885 290.648C304.885 293.267 307.048 295.388 309.657 295.157C347.063 291.848 376.394 260.433 376.394 222.167C376.394 183.901 347.063 152.486 309.657 149.177C307.048 148.946 304.885 151.066 304.885 153.685C304.885 156.212 306.904 158.261 309.418 158.507C341.788 161.673 367.082 188.966 367.082 222.167C367.082 255.368 341.788 282.661 309.418 285.827C306.904 286.073 304.885 288.122 304.885 290.648Z" fill="#184EA6"/>
<circle cx="303.327" cy="222.168" r="48.7437" stroke="#F9B44D" stroke-opacity="0.1" stroke-width="9.31164"/>
<path fill-rule="evenodd" clip-rule="evenodd" d="M275.367 188.823C293.837 173.058 321.499 175.228 337.16 193.576C352.82 211.923 350.619 239.583 332.149 255.348C313.679 271.113 286.017 268.943 270.357 250.595C254.696 232.248 256.897 204.588 275.367 188.823ZM269.322 181.74C291.68 162.656 325.223 165.248 344.242 187.53C363.261 209.812 360.553 243.346 338.195 262.431C315.836 281.515 282.293 278.923 263.274 256.641C244.255 234.359 246.963 200.825 269.322 181.74Z" fill="#F9B44D"/>
<line opacity="0.2" x1="77" y1="504.5" x2="522" y2="504.5" stroke="black"/>
<path d="M107.774 538.718C107.774 537.494 108.05 536.396 108.602 535.424C109.154 534.44 109.904 533.672 110.852 533.12C111.812 532.568 112.874 532.292 114.038 532.292C115.406 532.292 116.6 532.622 117.62 533.282C118.64 533.942 119.384 534.878 119.852 536.09H117.89C117.542 535.334 117.038 534.752 116.378 534.344C115.73 533.936 114.95 533.732 114.038 533.732C113.162 533.732 112.376 533.936 111.68 534.344C110.984 534.752 110.438 535.334 110.042 536.09C109.646 536.834 109.448 537.71 109.448 538.718C109.448 539.714 109.646 540.59 110.042 541.346C110.438 542.09 110.984 542.666 111.68 543.074C112.376 543.482 113.162 543.686 114.038 543.686C114.95 543.686 115.73 543.488 116.378 543.092C117.038 542.684 117.542 542.102 117.89 541.346H119.852C119.384 542.546 118.64 543.476 117.62 544.136C116.6 544.784 115.406 545.108 114.038 545.108C112.874 545.108 111.812 544.838 110.852 544.298C109.904 543.746 109.154 542.984 108.602 542.012C108.05 541.04 107.774 539.942 107.774 538.718ZM126.412 545.162C125.488 545.162 124.648 544.952 123.892 544.532C123.148 544.112 122.56 543.518 122.128 542.75C121.708 541.97 121.498 541.07 121.498 540.05C121.498 539.042 121.714 538.154 122.146 537.386C122.59 536.606 123.19 536.012 123.946 535.604C124.702 535.184 125.548 534.974 126.484 534.974C127.42 534.974 128.266 535.184 129.022 535.604C129.778 536.012 130.372 536.6 130.804 537.368C131.248 538.136 131.47 539.03 131.47 540.05C131.47 541.07 131.242 541.97 130.786 542.75C130.342 543.518 129.736 544.112 128.968 544.532C128.2 544.952 127.348 545.162 126.412 545.162ZM126.412 543.722C127 543.722 127.552 543.584 128.068 543.308C128.584 543.032 128.998 542.618 129.31 542.066C129.634 541.514 129.796 540.842 129.796 540.05C129.796 539.258 129.64 538.586 129.328 538.034C129.016 537.482 128.608 537.074 128.104 536.81C127.6 536.534 127.054 536.396 126.466 536.396C125.866 536.396 125.314 536.534 124.81 536.81C124.318 537.074 123.922 537.482 123.622 538.034C123.322 538.586 123.172 539.258 123.172 540.05C123.172 540.854 123.316 541.532 123.604 542.084C123.904 542.636 124.3 543.05 124.792 543.326C125.284 543.59 125.824 543.722 126.412 543.722ZM145.306 534.956C146.074 534.956 146.758 535.118 147.358 535.442C147.958 535.754 148.432 536.228 148.78 536.864C149.128 537.5 149.302 538.274 149.302 539.186V545H147.682V539.42C147.682 538.436 147.436 537.686 146.944 537.17C146.464 536.642 145.81 536.378 144.982 536.378C144.13 536.378 143.452 536.654 142.948 537.206C142.444 537.746 142.192 538.532 142.192 539.564V545H140.572V539.42C140.572 538.436 140.326 537.686 139.834 537.17C139.354 536.642 138.7 536.378 137.872 536.378C137.02 536.378 136.342 536.654 135.838 537.206C135.334 537.746 135.082 538.532 135.082 539.564V545H133.444V535.136H135.082V536.558C135.406 536.042 135.838 535.646 136.378 535.37C136.93 535.094 137.536 534.956 138.196 534.956C139.024 534.956 139.756 535.142 140.392 535.514C141.028 535.886 141.502 536.432 141.814 537.152C142.09 536.456 142.546 535.916 143.182 535.532C143.818 535.148 144.526 534.956 145.306 534.956ZM153.447 536.954C153.771 536.39 154.251 535.922 154.887 535.55C155.535 535.166 156.285 534.974 157.137 534.974C158.013 534.974 158.805 535.184 159.513 535.604C160.233 536.024 160.797 536.618 161.205 537.386C161.613 538.142 161.817 539.024 161.817 540.032C161.817 541.028 161.613 541.916 161.205 542.696C160.797 543.476 160.233 544.082 159.513 544.514C158.805 544.946 158.013 545.162 157.137 545.162C156.297 545.162 155.553 544.976 154.905 544.604C154.269 544.22 153.783 543.746 153.447 543.182V549.68H151.809V535.136H153.447V536.954ZM160.143 540.032C160.143 539.288 159.993 538.64 159.693 538.088C159.393 537.536 158.985 537.116 158.469 536.828C157.965 536.54 157.407 536.396 156.795 536.396C156.195 536.396 155.637 536.546 155.121 536.846C154.617 537.134 154.209 537.56 153.897 538.124C153.597 538.676 153.447 539.318 153.447 540.05C153.447 540.794 153.597 541.448 153.897 542.012C154.209 542.564 154.617 542.99 155.121 543.29C155.637 543.578 156.195 543.722 156.795 543.722C157.407 543.722 157.965 543.578 158.469 543.29C158.985 542.99 159.393 542.564 159.693 542.012C159.993 541.448 160.143 540.788 160.143 540.032ZM165.431 531.68V545H163.793V531.68H165.431ZM177.043 539.69C177.043 540.002 177.025 540.332 176.989 540.68H169.105C169.165 541.652 169.495 542.414 170.095 542.966C170.707 543.506 171.445 543.776 172.309 543.776C173.017 543.776 173.605 543.614 174.073 543.29C174.553 542.954 174.889 542.51 175.081 541.958H176.845C176.581 542.906 176.053 543.68 175.261 544.28C174.469 544.868 173.485 545.162 172.309 545.162C171.373 545.162 170.533 544.952 169.789 544.532C169.057 544.112 168.481 543.518 168.061 542.75C167.641 541.97 167.431 541.07 167.431 540.05C167.431 539.03 167.635 538.136 168.043 537.368C168.451 536.6 169.021 536.012 169.753 535.604C170.497 535.184 171.349 534.974 172.309 534.974C173.245 534.974 174.073 535.178 174.793 535.586C175.513 535.994 176.065 536.558 176.449 537.278C176.845 537.986 177.043 538.79 177.043 539.69ZM175.351 539.348C175.351 538.724 175.213 538.19 174.937 537.746C174.661 537.29 174.283 536.948 173.803 536.72C173.335 536.48 172.813 536.36 172.237 536.36C171.409 536.36 170.701 536.624 170.113 537.152C169.537 537.68 169.207 538.412 169.123 539.348H175.351ZM181.023 536.486V542.3C181.023 542.78 181.125 543.122 181.329 543.326C181.533 543.518 181.887 543.614 182.391 543.614H183.597V545H182.121C181.209 545 180.525 544.79 180.069 544.37C179.613 543.95 179.385 543.26 179.385 542.3V536.486H178.107V535.136H179.385V532.652H181.023V535.136H183.597V536.486H181.023ZM194.401 539.69C194.401 540.002 194.383 540.332 194.347 540.68H186.463C186.523 541.652 186.853 542.414 187.453 542.966C188.065 543.506 188.803 543.776 189.667 543.776C190.375 543.776 190.963 543.614 191.431 543.29C191.911 542.954 192.247 542.51 192.439 541.958H194.203C193.939 542.906 193.411 543.68 192.619 544.28C191.827 544.868 190.843 545.162 189.667 545.162C188.731 545.162 187.891 544.952 187.147 544.532C186.415 544.112 185.839 543.518 185.419 542.75C184.999 541.97 184.789 541.07 184.789 540.05C184.789 539.03 184.993 538.136 185.401 537.368C185.809 536.6 186.379 536.012 187.111 535.604C187.855 535.184 188.707 534.974 189.667 534.974C190.603 534.974 191.431 535.178 192.151 535.586C192.871 535.994 193.423 536.558 193.807 537.278C194.203 537.986 194.401 538.79 194.401 539.69ZM192.709 539.348C192.709 538.724 192.571 538.19 192.295 537.746C192.019 537.29 191.641 536.948 191.161 536.72C190.693 536.48 190.171 536.36 189.595 536.36C188.767 536.36 188.059 536.624 187.471 537.152C186.895 537.68 186.565 538.412 186.481 539.348H192.709ZM195.771 540.032C195.771 539.024 195.975 538.142 196.383 537.386C196.791 536.618 197.349 536.024 198.057 535.604C198.777 535.184 199.581 534.974 200.469 534.974C201.237 534.974 201.951 535.154 202.611 535.514C203.271 535.862 203.775 536.324 204.123 536.9V531.68H205.779V545H204.123V543.146C203.799 543.734 203.319 544.22 202.683 544.604C202.047 544.976 201.303 545.162 200.451 545.162C199.575 545.162 198.777 544.946 198.057 544.514C197.349 544.082 196.791 543.476 196.383 542.696C195.975 541.916 195.771 541.028 195.771 540.032ZM204.123 540.05C204.123 539.306 203.973 538.658 203.673 538.106C203.373 537.554 202.965 537.134 202.449 536.846C201.945 536.546 201.387 536.396 200.775 536.396C200.163 536.396 199.605 536.54 199.101 536.828C198.597 537.116 198.195 537.536 197.895 538.088C197.595 538.64 197.445 539.288 197.445 540.032C197.445 540.788 197.595 541.448 197.895 542.012C198.195 542.564 198.597 542.99 199.101 543.29C199.605 543.578 200.163 543.722 200.775 543.722C201.387 543.722 201.945 543.578 202.449 543.29C202.965 542.99 203.373 542.564 203.673 542.012C203.973 541.448 204.123 540.794 204.123 540.05ZM217.198 548.348C216.046 547.22 215.146 545.786 214.498 544.046C213.862 542.306 213.544 540.428 213.544 538.412C213.544 536.348 213.88 534.422 214.552 532.634C215.236 530.834 216.208 529.352 217.468 528.188H219.178V528.35C217.834 529.61 216.82 531.128 216.136 532.904C215.464 534.668 215.128 536.504 215.128 538.412C215.128 540.272 215.446 542.048 216.082 543.74C216.73 545.432 217.672 546.914 218.908 548.186V548.348H217.198ZM220.512 543.686C222.036 542.462 223.23 541.46 224.094 540.68C224.958 539.888 225.684 539.066 226.272 538.214C226.872 537.35 227.172 536.504 227.172 535.676C227.172 534.896 226.98 534.284 226.596 533.84C226.224 533.384 225.618 533.156 224.778 533.156C223.962 533.156 223.326 533.414 222.87 533.93C222.426 534.434 222.186 535.112 222.15 535.964H220.566C220.614 534.62 221.022 533.582 221.79 532.85C222.558 532.118 223.548 531.752 224.76 531.752C225.996 531.752 226.974 532.094 227.694 532.778C228.426 533.462 228.792 534.404 228.792 535.604C228.792 536.6 228.492 537.572 227.892 538.52C227.304 539.456 226.632 540.284 225.876 541.004C225.12 541.712 224.154 542.54 222.978 543.488H229.17V544.856H220.512V543.686ZM230.632 548.348V548.186C231.868 546.914 232.804 545.432 233.44 543.74C234.088 542.048 234.412 540.272 234.412 538.412C234.412 536.504 234.07 534.668 233.386 532.904C232.714 531.128 231.706 529.61 230.362 528.35V528.188H232.072C233.332 529.352 234.298 530.834 234.97 532.634C235.654 534.422 235.996 536.348 235.996 538.412C235.996 540.428 235.672 542.306 235.024 544.046C234.388 545.786 233.494 547.22 232.342 548.348H230.632Z" fill="#434343"/>
<path d="M492 531L486.171 537L480 531" stroke="#434343" stroke-width="2" stroke-linecap="round" stroke-linejoin="round"/>
<path d="M150.42 394.06V395.54H144.36V400.24H149.28V401.72H144.36V408H142.54V394.06H150.42ZM153.358 395.26C153.011 395.26 152.718 395.14 152.478 394.9C152.238 394.66 152.118 394.367 152.118 394.02C152.118 393.673 152.238 393.38 152.478 393.14C152.718 392.9 153.011 392.78 153.358 392.78C153.691 392.78 153.971 392.9 154.198 393.14C154.438 393.38 154.558 393.673 154.558 394.02C154.558 394.367 154.438 394.66 154.198 394.9C153.971 395.14 153.691 395.26 153.358 395.26ZM154.238 397.04V408H152.418V397.04H154.238ZM162.48 396.84C163.813 396.84 164.893 397.247 165.72 398.06C166.547 398.86 166.96 400.02 166.96 401.54V408H165.16V401.8C165.16 400.707 164.887 399.873 164.34 399.3C163.793 398.713 163.047 398.42 162.1 398.42C161.14 398.42 160.373 398.72 159.8 399.32C159.24 399.92 158.96 400.793 158.96 401.94V408H157.14V397.04H158.96V398.6C159.32 398.04 159.807 397.607 160.42 397.3C161.047 396.993 161.733 396.84 162.48 396.84ZM170.673 395.26C170.326 395.26 170.033 395.14 169.793 394.9C169.553 394.66 169.433 394.367 169.433 394.02C169.433 393.673 169.553 393.38 169.793 393.14C170.033 392.9 170.326 392.78 170.673 392.78C171.006 392.78 171.286 392.9 171.513 393.14C171.753 393.38 171.873 393.673 171.873 394.02C171.873 394.367 171.753 394.66 171.513 394.9C171.286 395.14 171.006 395.26 170.673 395.26ZM171.553 397.04V408H169.733V397.04H171.553ZM178.335 408.18C177.495 408.18 176.742 408.04 176.075 407.76C175.408 407.467 174.882 407.067 174.495 406.56C174.108 406.04 173.895 405.447 173.855 404.78H175.735C175.788 405.327 176.042 405.773 176.495 406.12C176.962 406.467 177.568 406.64 178.315 406.64C179.008 406.64 179.555 406.487 179.955 406.18C180.355 405.873 180.555 405.487 180.555 405.02C180.555 404.54 180.342 404.187 179.915 403.96C179.488 403.72 178.828 403.487 177.935 403.26C177.122 403.047 176.455 402.833 175.935 402.62C175.428 402.393 174.988 402.067 174.615 401.64C174.255 401.2 174.075 400.627 174.075 399.92C174.075 399.36 174.242 398.847 174.575 398.38C174.908 397.913 175.382 397.547 175.995 397.28C176.608 397 177.308 396.86 178.095 396.86C179.308 396.86 180.288 397.167 181.035 397.78C181.782 398.393 182.182 399.233 182.235 400.3H180.415C180.375 399.727 180.142 399.267 179.715 398.92C179.302 398.573 178.742 398.4 178.035 398.4C177.382 398.4 176.862 398.54 176.475 398.82C176.088 399.1 175.895 399.467 175.895 399.92C175.895 400.28 176.008 400.58 176.235 400.82C176.475 401.047 176.768 401.233 177.115 401.38C177.475 401.513 177.968 401.667 178.595 401.84C179.382 402.053 180.022 402.267 180.515 402.48C181.008 402.68 181.428 402.987 181.775 403.4C182.135 403.813 182.322 404.353 182.335 405.02C182.335 405.62 182.168 406.16 181.835 406.64C181.502 407.12 181.028 407.5 180.415 407.78C179.815 408.047 179.122 408.18 178.335 408.18ZM190.144 396.84C190.971 396.84 191.717 397.02 192.384 397.38C193.051 397.727 193.571 398.253 193.944 398.96C194.331 399.667 194.524 400.527 194.524 401.54V408H192.724V401.8C192.724 400.707 192.451 399.873 191.904 399.3C191.357 398.713 190.611 398.42 189.664 398.42C188.704 398.42 187.937 398.72 187.364 399.32C186.804 399.92 186.524 400.793 186.524 401.94V408H184.704V393.2H186.524V398.6C186.884 398.04 187.377 397.607 188.004 397.3C188.644 396.993 189.357 396.84 190.144 396.84ZM201.749 402.5C201.749 401.367 201.976 400.38 202.429 399.54C202.882 398.687 203.509 398.027 204.309 397.56C205.122 397.093 206.049 396.86 207.089 396.86C208.436 396.86 209.542 397.187 210.409 397.84C211.289 398.493 211.869 399.4 212.149 400.56H210.189C210.002 399.893 209.636 399.367 209.089 398.98C208.556 398.593 207.889 398.4 207.089 398.4C206.049 398.4 205.209 398.76 204.569 399.48C203.929 400.187 203.609 401.193 203.609 402.5C203.609 403.82 203.929 404.84 204.569 405.56C205.209 406.28 206.049 406.64 207.089 406.64C207.889 406.64 208.556 406.453 209.089 406.08C209.622 405.707 209.989 405.173 210.189 404.48H212.149C211.856 405.6 211.269 406.5 210.389 407.18C209.509 407.847 208.409 408.18 207.089 408.18C206.049 408.18 205.122 407.947 204.309 407.48C203.509 407.013 202.882 406.353 202.429 405.5C201.976 404.647 201.749 403.647 201.749 402.5ZM219.158 408.18C218.131 408.18 217.198 407.947 216.358 407.48C215.531 407.013 214.878 406.353 214.398 405.5C213.931 404.633 213.698 403.633 213.698 402.5C213.698 401.38 213.938 400.393 214.418 399.54C214.911 398.673 215.578 398.013 216.418 397.56C217.258 397.093 218.198 396.86 219.238 396.86C220.278 396.86 221.218 397.093 222.058 397.56C222.898 398.013 223.558 398.667 224.038 399.52C224.531 400.373 224.778 401.367 224.778 402.5C224.778 403.633 224.524 404.633 224.018 405.5C223.524 406.353 222.851 407.013 221.998 407.48C221.144 407.947 220.198 408.18 219.158 408.18ZM219.158 406.58C219.811 406.58 220.424 406.427 220.998 406.12C221.571 405.813 222.031 405.353 222.378 404.74C222.738 404.127 222.918 403.38 222.918 402.5C222.918 401.62 222.744 400.873 222.398 400.26C222.051 399.647 221.598 399.193 221.038 398.9C220.478 398.593 219.871 398.44 219.218 398.44C218.551 398.44 217.938 398.593 217.378 398.9C216.831 399.193 216.391 399.647 216.058 400.26C215.724 400.873 215.558 401.62 215.558 402.5C215.558 403.393 215.718 404.147 216.038 404.76C216.371 405.373 216.811 405.833 217.358 406.14C217.904 406.433 218.504 406.58 219.158 406.58ZM226.29 402.48C226.29 401.36 226.517 400.38 226.97 399.54C227.424 398.687 228.044 398.027 228.83 397.56C229.63 397.093 230.524 396.86 231.51 396.86C232.364 396.86 233.157 397.06 233.89 397.46C234.624 397.847 235.184 398.36 235.57 399V393.2H237.41V408H235.57V405.94C235.21 406.593 234.677 407.133 233.97 407.56C233.264 407.973 232.437 408.18 231.49 408.18C230.517 408.18 229.63 407.94 228.83 407.46C228.044 406.98 227.424 406.307 226.97 405.44C226.517 404.573 226.29 403.587 226.29 402.48ZM235.57 402.5C235.57 401.673 235.404 400.953 235.07 400.34C234.737 399.727 234.284 399.26 233.71 398.94C233.15 398.607 232.53 398.44 231.85 398.44C231.17 398.44 230.55 398.6 229.99 398.92C229.43 399.24 228.984 399.707 228.65 400.32C228.317 400.933 228.15 401.653 228.15 402.48C228.15 403.32 228.317 404.053 228.65 404.68C228.984 405.293 229.43 405.767 229.99 406.1C230.55 406.42 231.17 406.58 231.85 406.58C232.53 406.58 233.15 406.42 233.71 406.1C234.284 405.767 234.737 405.293 235.07 404.68C235.404 404.053 235.57 403.327 235.57 402.5ZM241.226 395.26C240.879 395.26 240.586 395.14 240.346 394.9C240.106 394.66 239.986 394.367 239.986 394.02C239.986 393.673 240.106 393.38 240.346 393.14C240.586 392.9 240.879 392.78 241.226 392.78C241.559 392.78 241.839 392.9 242.066 393.14C242.306 393.38 242.426 393.673 242.426 394.02C242.426 394.367 242.306 394.66 242.066 394.9C241.839 395.14 241.559 395.26 241.226 395.26ZM242.106 397.04V408H240.286V397.04H242.106ZM250.348 396.84C251.681 396.84 252.761 397.247 253.588 398.06C254.415 398.86 254.828 400.02 254.828 401.54V408H253.028V401.8C253.028 400.707 252.755 399.873 252.208 399.3C251.661 398.713 250.915 398.42 249.968 398.42C249.008 398.42 248.241 398.72 247.668 399.32C247.108 399.92 246.828 400.793 246.828 401.94V408H245.008V397.04H246.828V398.6C247.188 398.04 247.675 397.607 248.288 397.3C248.915 396.993 249.601 396.84 250.348 396.84ZM262.121 396.86C263.068 396.86 263.894 397.067 264.601 397.48C265.321 397.893 265.854 398.413 266.201 399.04V397.04H268.041V408.24C268.041 409.24 267.828 410.127 267.401 410.9C266.974 411.687 266.361 412.3 265.561 412.74C264.774 413.18 263.854 413.4 262.801 413.4C261.361 413.4 260.161 413.06 259.201 412.38C258.241 411.7 257.674 410.773 257.501 409.6H259.301C259.501 410.267 259.914 410.8 260.541 411.2C261.168 411.613 261.921 411.82 262.801 411.82C263.801 411.82 264.614 411.507 265.241 410.88C265.881 410.253 266.201 409.373 266.201 408.24V405.94C265.841 406.58 265.308 407.113 264.601 407.54C263.894 407.967 263.068 408.18 262.121 408.18C261.148 408.18 260.261 407.94 259.461 407.46C258.674 406.98 258.054 406.307 257.601 405.44C257.148 404.573 256.921 403.587 256.921 402.48C256.921 401.36 257.148 400.38 257.601 399.54C258.054 398.687 258.674 398.027 259.461 397.56C260.261 397.093 261.148 396.86 262.121 396.86ZM266.201 402.5C266.201 401.673 266.034 400.953 265.701 400.34C265.368 399.727 264.914 399.26 264.341 398.94C263.781 398.607 263.161 398.44 262.481 398.44C261.801 398.44 261.181 398.6 260.621 398.92C260.061 399.24 259.614 399.707 259.281 400.32C258.948 400.933 258.781 401.653 258.781 402.48C258.781 403.32 258.948 404.053 259.281 404.68C259.614 405.293 260.061 405.767 260.621 406.1C261.181 406.42 261.801 406.58 262.481 406.58C263.161 406.58 263.781 406.42 264.341 406.1C264.914 405.767 265.368 405.293 265.701 404.68C266.034 404.053 266.201 403.327 266.201 402.5ZM285.489 397.04L278.889 413.16H277.009L279.169 407.88L274.749 397.04H276.769L280.209 405.92L283.609 397.04H285.489ZM291.898 408.18C290.871 408.18 289.938 407.947 289.098 407.48C288.271 407.013 287.618 406.353 287.138 405.5C286.671 404.633 286.438 403.633 286.438 402.5C286.438 401.38 286.678 400.393 287.158 399.54C287.651 398.673 288.318 398.013 289.158 397.56C289.998 397.093 290.938 396.86 291.978 396.86C293.018 396.86 293.958 397.093 294.798 397.56C295.638 398.013 296.298 398.667 296.778 399.52C297.271 400.373 297.518 401.367 297.518 402.5C297.518 403.633 297.265 404.633 296.758 405.5C296.265 406.353 295.591 407.013 294.738 407.48C293.885 407.947 292.938 408.18 291.898 408.18ZM291.898 406.58C292.551 406.58 293.165 406.427 293.738 406.12C294.311 405.813 294.771 405.353 295.118 404.74C295.478 404.127 295.658 403.38 295.658 402.5C295.658 401.62 295.485 400.873 295.138 400.26C294.791 399.647 294.338 399.193 293.778 398.9C293.218 398.593 292.611 398.44 291.958 398.44C291.291 398.44 290.678 398.593 290.118 398.9C289.571 399.193 289.131 399.647 288.798 400.26C288.465 400.873 288.298 401.62 288.298 402.5C288.298 403.393 288.458 404.147 288.778 404.76C289.111 405.373 289.551 405.833 290.098 406.14C290.645 406.433 291.245 406.58 291.898 406.58ZM309.431 397.04V408H307.611V406.38C307.264 406.94 306.778 407.38 306.151 407.7C305.538 408.007 304.858 408.16 304.111 408.16C303.258 408.16 302.491 407.987 301.811 407.64C301.131 407.28 300.591 406.747 300.191 406.04C299.804 405.333 299.611 404.473 299.611 403.46V397.04H301.411V403.22C301.411 404.3 301.684 405.133 302.231 405.72C302.778 406.293 303.524 406.58 304.471 406.58C305.444 406.58 306.211 406.28 306.771 405.68C307.331 405.08 307.611 404.207 307.611 403.06V397.04H309.431ZM314.124 398.82C314.444 398.193 314.897 397.707 315.484 397.36C316.084 397.013 316.811 396.84 317.664 396.84V398.72H317.184C315.144 398.72 314.124 399.827 314.124 402.04V408H312.304V397.04H314.124V398.82ZM324.017 402.48C324.017 401.36 324.244 400.38 324.697 399.54C325.15 398.687 325.77 398.027 326.557 397.56C327.357 397.093 328.244 396.86 329.217 396.86C330.177 396.86 331.01 397.067 331.717 397.48C332.424 397.893 332.95 398.413 333.297 399.04V397.04H335.137V408H333.297V405.96C332.937 406.6 332.397 407.133 331.677 407.56C330.97 407.973 330.144 408.18 329.197 408.18C328.224 408.18 327.344 407.94 326.557 407.46C325.77 406.98 325.15 406.307 324.697 405.44C324.244 404.573 324.017 403.587 324.017 402.48ZM333.297 402.5C333.297 401.673 333.13 400.953 332.797 400.34C332.464 399.727 332.01 399.26 331.437 398.94C330.877 398.607 330.257 398.44 329.577 398.44C328.897 398.44 328.277 398.6 327.717 398.92C327.157 399.24 326.71 399.707 326.377 400.32C326.044 400.933 325.877 401.653 325.877 402.48C325.877 403.32 326.044 404.053 326.377 404.68C326.71 405.293 327.157 405.767 327.717 406.1C328.277 406.42 328.897 406.58 329.577 406.58C330.257 406.58 330.877 406.42 331.437 406.1C332.01 405.767 332.464 405.293 332.797 404.68C333.13 404.053 333.297 403.327 333.297 402.5ZM339.833 399.06C340.193 398.433 340.726 397.913 341.433 397.5C342.153 397.073 342.986 396.86 343.933 396.86C344.906 396.86 345.786 397.093 346.573 397.56C347.373 398.027 347.999 398.687 348.453 399.54C348.906 400.38 349.133 401.36 349.133 402.48C349.133 403.587 348.906 404.573 348.453 405.44C347.999 406.307 347.373 406.98 346.573 407.46C345.786 407.94 344.906 408.18 343.933 408.18C342.999 408.18 342.173 407.973 341.453 407.56C340.746 407.133 340.206 406.607 339.833 405.98V413.2H338.013V397.04H339.833V399.06ZM347.273 402.48C347.273 401.653 347.106 400.933 346.773 400.32C346.439 399.707 345.986 399.24 345.413 398.92C344.853 398.6 344.233 398.44 343.553 398.44C342.886 398.44 342.266 398.607 341.693 398.94C341.133 399.26 340.679 399.733 340.333 400.36C339.999 400.973 339.833 401.687 339.833 402.5C339.833 403.327 339.999 404.053 340.333 404.68C340.679 405.293 341.133 405.767 341.693 406.1C342.266 406.42 342.886 406.58 343.553 406.58C344.233 406.58 344.853 406.42 345.413 406.1C345.986 405.767 346.439 405.293 346.773 404.68C347.106 404.053 347.273 403.32 347.273 402.48ZM353.148 399.06C353.508 398.433 354.042 397.913 354.748 397.5C355.468 397.073 356.302 396.86 357.248 396.86C358.222 396.86 359.102 397.093 359.888 397.56C360.688 398.027 361.315 398.687 361.768 399.54C362.222 400.38 362.448 401.36 362.448 402.48C362.448 403.587 362.222 404.573 361.768 405.44C361.315 406.307 360.688 406.98 359.888 407.46C359.102 407.94 358.222 408.18 357.248 408.18C356.315 408.18 355.488 407.973 354.768 407.56C354.062 407.133 353.522 406.607 353.148 405.98V413.2H351.328V397.04H353.148V399.06ZM360.588 402.48C360.588 401.653 360.422 400.933 360.088 400.32C359.755 399.707 359.302 399.24 358.728 398.92C358.168 398.6 357.548 398.44 356.868 398.44C356.202 398.44 355.582 398.607 355.008 398.94C354.448 399.26 353.995 399.733 353.648 400.36C353.315 400.973 353.148 401.687 353.148 402.5C353.148 403.327 353.315 404.053 353.648 404.68C353.995 405.293 354.448 405.767 355.008 406.1C355.582 406.42 356.202 406.58 356.868 406.58C357.548 406.58 358.168 406.42 358.728 406.1C359.302 405.767 359.755 405.293 360.088 404.68C360.422 404.053 360.588 403.32 360.588 402.48Z" fill="#434343"/>
<path fill-rule="evenodd" clip-rule="evenodd" d="M115 407.633C118.663 407.633 121.633 404.663 121.633 401C121.633 397.337 118.663 394.367 115 394.367C111.337 394.367 108.367 397.337 108.367 401C108.367 404.663 111.337 407.633 115 407.633ZM115 409C119.418 409 123 405.418 123 401C123 396.582 119.418 393 115 393C110.582 393 107 396.582 107 401C107 405.418 110.582 409 115 409Z" fill="#434343"/>
<path d="M146.96 464.14C146.04 464.14 145.213 463.98 144.48 463.66C143.76 463.327 143.193 462.873 142.78 462.3C142.367 461.713 142.153 461.04 142.14 460.28H144.08C144.147 460.933 144.413 461.487 144.88 461.94C145.36 462.38 146.053 462.6 146.96 462.6C147.827 462.6 148.507 462.387 149 461.96C149.507 461.52 149.76 460.96 149.76 460.28C149.76 459.747 149.613 459.313 149.32 458.98C149.027 458.647 148.66 458.393 148.22 458.22C147.78 458.047 147.187 457.86 146.44 457.66C145.52 457.42 144.78 457.18 144.22 456.94C143.673 456.7 143.2 456.327 142.8 455.82C142.413 455.3 142.22 454.607 142.22 453.74C142.22 452.98 142.413 452.307 142.8 451.72C143.187 451.133 143.727 450.68 144.42 450.36C145.127 450.04 145.933 449.88 146.84 449.88C148.147 449.88 149.213 450.207 150.04 450.86C150.88 451.513 151.353 452.38 151.46 453.46H149.46C149.393 452.927 149.113 452.46 148.62 452.06C148.127 451.647 147.473 451.44 146.66 451.44C145.9 451.44 145.28 451.64 144.8 452.04C144.32 452.427 144.08 452.973 144.08 453.68C144.08 454.187 144.22 454.6 144.5 454.92C144.793 455.24 145.147 455.487 145.56 455.66C145.987 455.82 146.58 456.007 147.34 456.22C148.26 456.473 149 456.727 149.56 456.98C150.12 457.22 150.6 457.6 151 458.12C151.4 458.627 151.6 459.32 151.6 460.2C151.6 460.88 151.42 461.52 151.06 462.12C150.7 462.72 150.167 463.207 149.46 463.58C148.753 463.953 147.92 464.14 146.96 464.14ZM156.298 454.54V461C156.298 461.533 156.412 461.913 156.638 462.14C156.865 462.353 157.258 462.46 157.818 462.46H159.158V464H157.518C156.505 464 155.745 463.767 155.238 463.3C154.732 462.833 154.478 462.067 154.478 461V454.54H153.058V453.04H154.478V450.28H156.298V453.04H159.158V454.54H156.298ZM170.883 453.04V464H169.063V462.38C168.717 462.94 168.23 463.38 167.603 463.7C166.99 464.007 166.31 464.16 165.563 464.16C164.71 464.16 163.943 463.987 163.263 463.64C162.583 463.28 162.043 462.747 161.643 462.04C161.257 461.333 161.063 460.473 161.063 459.46V453.04H162.863V459.22C162.863 460.3 163.137 461.133 163.683 461.72C164.23 462.293 164.977 462.58 165.923 462.58C166.897 462.58 167.663 462.28 168.223 461.68C168.783 461.08 169.063 460.207 169.063 459.06V453.04H170.883ZM173.076 458.48C173.076 457.36 173.303 456.38 173.756 455.54C174.21 454.687 174.83 454.027 175.616 453.56C176.416 453.093 177.31 452.86 178.296 452.86C179.15 452.86 179.943 453.06 180.676 453.46C181.41 453.847 181.97 454.36 182.356 455V449.2H184.196V464H182.356V461.94C181.996 462.593 181.463 463.133 180.756 463.56C180.05 463.973 179.223 464.18 178.276 464.18C177.303 464.18 176.416 463.94 175.616 463.46C174.83 462.98 174.21 462.307 173.756 461.44C173.303 460.573 173.076 459.587 173.076 458.48ZM182.356 458.5C182.356 457.673 182.19 456.953 181.856 456.34C181.523 455.727 181.07 455.26 180.496 454.94C179.936 454.607 179.316 454.44 178.636 454.44C177.956 454.44 177.336 454.6 176.776 454.92C176.216 455.24 175.77 455.707 175.436 456.32C175.103 456.933 174.936 457.653 174.936 458.48C174.936 459.32 175.103 460.053 175.436 460.68C175.77 461.293 176.216 461.767 176.776 462.1C177.336 462.42 177.956 462.58 178.636 462.58C179.316 462.58 179.936 462.42 180.496 462.1C181.07 461.767 181.523 461.293 181.856 460.68C182.19 460.053 182.356 459.327 182.356 458.5ZM196.512 453.04L189.912 469.16H188.032L190.192 463.88L185.772 453.04H187.792L191.232 461.92L194.632 453.04H196.512ZM207.734 454.54H205.434V464H203.614V454.54H202.194V453.04H203.614V452.26C203.614 451.033 203.927 450.14 204.554 449.58C205.194 449.007 206.214 448.72 207.614 448.72V450.24C206.814 450.24 206.247 450.4 205.914 450.72C205.594 451.027 205.434 451.54 205.434 452.26V453.04H207.734V454.54ZM214.436 464.18C213.409 464.18 212.476 463.947 211.636 463.48C210.809 463.013 210.156 462.353 209.676 461.5C209.209 460.633 208.976 459.633 208.976 458.5C208.976 457.38 209.216 456.393 209.696 455.54C210.189 454.673 210.856 454.013 211.696 453.56C212.536 453.093 213.476 452.86 214.516 452.86C215.556 452.86 216.496 453.093 217.336 453.56C218.176 454.013 218.836 454.667 219.316 455.52C219.809 456.373 220.056 457.367 220.056 458.5C220.056 459.633 219.802 460.633 219.296 461.5C218.802 462.353 218.129 463.013 217.276 463.48C216.422 463.947 215.476 464.18 214.436 464.18ZM214.436 462.58C215.089 462.58 215.702 462.427 216.276 462.12C216.849 461.813 217.309 461.353 217.656 460.74C218.016 460.127 218.196 459.38 218.196 458.5C218.196 457.62 218.022 456.873 217.676 456.26C217.329 455.647 216.876 455.193 216.316 454.9C215.756 454.593 215.149 454.44 214.496 454.44C213.829 454.44 213.216 454.593 212.656 454.9C212.109 455.193 211.669 455.647 211.336 456.26C211.002 456.873 210.836 457.62 210.836 458.5C210.836 459.393 210.996 460.147 211.316 460.76C211.649 461.373 212.089 461.833 212.636 462.14C213.182 462.433 213.782 462.58 214.436 462.58ZM224.069 454.82C224.389 454.193 224.842 453.707 225.429 453.36C226.029 453.013 226.755 452.84 227.609 452.84V454.72H227.129C225.089 454.72 224.069 455.827 224.069 458.04V464H222.249V453.04H224.069V454.82ZM236.862 454.54V461C236.862 461.533 236.975 461.913 237.202 462.14C237.428 462.353 237.822 462.46 238.382 462.46H239.722V464H238.082C237.068 464 236.308 463.767 235.802 463.3C235.295 462.833 235.042 462.067 235.042 461V454.54H233.622V453.04H235.042V450.28H236.862V453.04H239.722V454.54H236.862ZM247.167 452.84C247.993 452.84 248.74 453.02 249.407 453.38C250.073 453.727 250.593 454.253 250.967 454.96C251.353 455.667 251.547 456.527 251.547 457.54V464H249.747V457.8C249.747 456.707 249.473 455.873 248.927 455.3C248.38 454.713 247.633 454.42 246.687 454.42C245.727 454.42 244.96 454.72 244.387 455.32C243.827 455.92 243.547 456.793 243.547 457.94V464H241.727V449.2H243.547V454.6C243.907 454.04 244.4 453.607 245.027 453.3C245.667 452.993 246.38 452.84 247.167 452.84ZM264.32 458.1C264.32 458.447 264.3 458.813 264.26 459.2H255.5C255.566 460.28 255.933 461.127 256.6 461.74C257.28 462.34 258.1 462.64 259.06 462.64C259.846 462.64 260.5 462.46 261.02 462.1C261.553 461.727 261.926 461.233 262.14 460.62H264.1C263.806 461.673 263.22 462.533 262.34 463.2C261.46 463.853 260.366 464.18 259.06 464.18C258.02 464.18 257.086 463.947 256.26 463.48C255.446 463.013 254.806 462.353 254.34 461.5C253.873 460.633 253.64 459.633 253.64 458.5C253.64 457.367 253.866 456.373 254.32 455.52C254.773 454.667 255.406 454.013 256.22 453.56C257.046 453.093 257.993 452.86 259.06 452.86C260.1 452.86 261.02 453.087 261.82 453.54C262.62 453.993 263.233 454.62 263.66 455.42C264.1 456.207 264.32 457.1 264.32 458.1ZM262.44 457.72C262.44 457.027 262.286 456.433 261.98 455.94C261.673 455.433 261.253 455.053 260.72 454.8C260.2 454.533 259.62 454.4 258.98 454.4C258.06 454.4 257.273 454.693 256.62 455.28C255.98 455.867 255.613 456.68 255.52 457.72H262.44ZM285.794 450.16V464H283.974V453.68L279.374 464H278.094L273.474 453.66V464H271.654V450.16H273.614L278.734 461.6L283.854 450.16H285.794ZM288.001 458.48C288.001 457.36 288.227 456.38 288.681 455.54C289.134 454.687 289.754 454.027 290.541 453.56C291.341 453.093 292.227 452.86 293.201 452.86C294.161 452.86 294.994 453.067 295.701 453.48C296.407 453.893 296.934 454.413 297.281 455.04V453.04H299.121V464H297.281V461.96C296.921 462.6 296.381 463.133 295.661 463.56C294.954 463.973 294.127 464.18 293.181 464.18C292.207 464.18 291.327 463.94 290.541 463.46C289.754 462.98 289.134 462.307 288.681 461.44C288.227 460.573 288.001 459.587 288.001 458.48ZM297.281 458.5C297.281 457.673 297.114 456.953 296.781 456.34C296.447 455.727 295.994 455.26 295.421 454.94C294.861 454.607 294.241 454.44 293.561 454.44C292.881 454.44 292.261 454.6 291.701 454.92C291.141 455.24 290.694 455.707 290.361 456.32C290.027 456.933 289.861 457.653 289.861 458.48C289.861 459.32 290.027 460.053 290.361 460.68C290.694 461.293 291.141 461.767 291.701 462.1C292.261 462.42 292.881 462.58 293.561 462.58C294.241 462.58 294.861 462.42 295.421 462.1C295.994 461.767 296.447 461.293 296.781 460.68C297.114 460.053 297.281 459.327 297.281 458.5ZM301.316 458.5C301.316 457.367 301.543 456.38 301.996 455.54C302.45 454.687 303.076 454.027 303.876 453.56C304.69 453.093 305.616 452.86 306.656 452.86C308.003 452.86 309.11 453.187 309.976 453.84C310.856 454.493 311.436 455.4 311.716 456.56H309.756C309.57 455.893 309.203 455.367 308.656 454.98C308.123 454.593 307.456 454.4 306.656 454.4C305.616 454.4 304.776 454.76 304.136 455.48C303.496 456.187 303.176 457.193 303.176 458.5C303.176 459.82 303.496 460.84 304.136 461.56C304.776 462.28 305.616 462.64 306.656 462.64C307.456 462.64 308.123 462.453 308.656 462.08C309.19 461.707 309.556 461.173 309.756 460.48H311.716C311.423 461.6 310.836 462.5 309.956 463.18C309.076 463.847 307.976 464.18 306.656 464.18C305.616 464.18 304.69 463.947 303.876 463.48C303.076 463.013 302.45 462.353 301.996 461.5C301.543 460.647 301.316 459.647 301.316 458.5ZM319.385 452.84C320.211 452.84 320.958 453.02 321.625 453.38C322.291 453.727 322.811 454.253 323.185 454.96C323.571 455.667 323.765 456.527 323.765 457.54V464H321.965V457.8C321.965 456.707 321.691 455.873 321.145 455.3C320.598 454.713 319.851 454.42 318.905 454.42C317.945 454.42 317.178 454.72 316.605 455.32C316.045 455.92 315.765 456.793 315.765 457.94V464H313.945V449.2H315.765V454.6C316.125 454.04 316.618 453.607 317.245 453.3C317.885 452.993 318.598 452.84 319.385 452.84ZM327.478 451.26C327.131 451.26 326.838 451.14 326.598 450.9C326.358 450.66 326.238 450.367 326.238 450.02C326.238 449.673 326.358 449.38 326.598 449.14C326.838 448.9 327.131 448.78 327.478 448.78C327.811 448.78 328.091 448.9 328.318 449.14C328.558 449.38 328.678 449.673 328.678 450.02C328.678 450.367 328.558 450.66 328.318 450.9C328.091 451.14 327.811 451.26 327.478 451.26ZM328.358 453.04V464H326.538V453.04H328.358ZM336.6 452.84C337.933 452.84 339.013 453.247 339.84 454.06C340.666 454.86 341.08 456.02 341.08 457.54V464H339.28V457.8C339.28 456.707 339.006 455.873 338.46 455.3C337.913 454.713 337.166 454.42 336.22 454.42C335.26 454.42 334.493 454.72 333.92 455.32C333.36 455.92 333.08 456.793 333.08 457.94V464H331.26V453.04H333.08V454.6C333.44 454.04 333.926 453.607 334.54 453.3C335.166 452.993 335.853 452.84 336.6 452.84ZM353.853 458.1C353.853 458.447 353.833 458.813 353.793 459.2H345.033C345.099 460.28 345.466 461.127 346.133 461.74C346.813 462.34 347.633 462.64 348.593 462.64C349.379 462.64 350.033 462.46 350.553 462.1C351.086 461.727 351.459 461.233 351.673 460.62H353.633C353.339 461.673 352.753 462.533 351.873 463.2C350.993 463.853 349.899 464.18 348.593 464.18C347.553 464.18 346.619 463.947 345.793 463.48C344.979 463.013 344.339 462.353 343.873 461.5C343.406 460.633 343.173 459.633 343.173 458.5C343.173 457.367 343.399 456.373 343.853 455.52C344.306 454.667 344.939 454.013 345.753 453.56C346.579 453.093 347.526 452.86 348.593 452.86C349.633 452.86 350.553 453.087 351.353 453.54C352.153 453.993 352.766 454.62 353.193 455.42C353.633 456.207 353.853 457.1 353.853 458.1ZM351.973 457.72C351.973 457.027 351.819 456.433 351.513 455.94C351.206 455.433 350.786 455.053 350.253 454.8C349.733 454.533 349.153 454.4 348.513 454.4C347.593 454.4 346.806 454.693 346.153 455.28C345.513 455.867 345.146 456.68 345.053 457.72H351.973ZM363.007 462.52H367.887V464H361.187V450.06H363.007V462.52ZM379.62 458.1C379.62 458.447 379.6 458.813 379.56 459.2H370.8C370.866 460.28 371.233 461.127 371.9 461.74C372.58 462.34 373.4 462.64 374.36 462.64C375.146 462.64 375.8 462.46 376.32 462.1C376.853 461.727 377.226 461.233 377.44 460.62H379.4C379.106 461.673 378.52 462.533 377.64 463.2C376.76 463.853 375.666 464.18 374.36 464.18C373.32 464.18 372.386 463.947 371.56 463.48C370.746 463.013 370.106 462.353 369.64 461.5C369.173 460.633 368.94 459.633 368.94 458.5C368.94 457.367 369.166 456.373 369.62 455.52C370.073 454.667 370.706 454.013 371.52 453.56C372.346 453.093 373.293 452.86 374.36 452.86C375.4 452.86 376.32 453.087 377.12 453.54C377.92 453.993 378.533 454.62 378.96 455.42C379.4 456.207 379.62 457.1 379.62 458.1ZM377.74 457.72C377.74 457.027 377.586 456.433 377.28 455.94C376.973 455.433 376.553 455.053 376.02 454.8C375.5 454.533 374.92 454.4 374.28 454.4C373.36 454.4 372.573 454.693 371.92 455.28C371.28 455.867 370.913 456.68 370.82 457.72H377.74ZM381.142 458.48C381.142 457.36 381.369 456.38 381.822 455.54C382.275 454.687 382.895 454.027 383.682 453.56C384.482 453.093 385.369 452.86 386.342 452.86C387.302 452.86 388.135 453.067 388.842 453.48C389.549 453.893 390.075 454.413 390.422 455.04V453.04H392.262V464H390.422V461.96C390.062 462.6 389.522 463.133 388.802 463.56C388.095 463.973 387.269 464.18 386.322 464.18C385.349 464.18 384.469 463.94 383.682 463.46C382.895 462.98 382.275 462.307 381.822 461.44C381.369 460.573 381.142 459.587 381.142 458.48ZM390.422 458.5C390.422 457.673 390.255 456.953 389.922 456.34C389.589 455.727 389.135 455.26 388.562 454.94C388.002 454.607 387.382 454.44 386.702 454.44C386.022 454.44 385.402 454.6 384.842 454.92C384.282 455.24 383.835 455.707 383.502 456.32C383.169 456.933 383.002 457.653 383.002 458.48C383.002 459.32 383.169 460.053 383.502 460.68C383.835 461.293 384.282 461.767 384.842 462.1C385.402 462.42 386.022 462.58 386.702 462.58C387.382 462.58 388.002 462.42 388.562 462.1C389.135 461.767 389.589 461.293 389.922 460.68C390.255 460.053 390.422 459.327 390.422 458.5ZM396.958 454.82C397.278 454.193 397.731 453.707 398.318 453.36C398.918 453.013 399.644 452.84 400.498 452.84V454.72H400.018C397.978 454.72 396.958 455.827 396.958 458.04V464H395.138V453.04H396.958V454.82ZM407.739 452.84C409.072 452.84 410.152 453.247 410.979 454.06C411.805 454.86 412.219 456.02 412.219 457.54V464H410.419V457.8C410.419 456.707 410.145 455.873 409.599 455.3C409.052 454.713 408.305 454.42 407.359 454.42C406.399 454.42 405.632 454.72 405.059 455.32C404.499 455.92 404.219 456.793 404.219 457.94V464H402.399V453.04H404.219V454.6C404.579 454.04 405.065 453.607 405.679 453.3C406.305 452.993 406.992 452.84 407.739 452.84ZM415.932 451.26C415.585 451.26 415.292 451.14 415.052 450.9C414.812 450.66 414.692 450.367 414.692 450.02C414.692 449.673 414.812 449.38 415.052 449.14C415.292 448.9 415.585 448.78 415.932 448.78C416.265 448.78 416.545 448.9 416.772 449.14C417.012 449.38 417.132 449.673 417.132 450.02C417.132 450.367 417.012 450.66 416.772 450.9C416.545 451.14 416.265 451.26 415.932 451.26ZM416.812 453.04V464H414.992V453.04H416.812ZM425.053 452.84C426.387 452.84 427.467 453.247 428.293 454.06C429.12 454.86 429.533 456.02 429.533 457.54V464H427.733V457.8C427.733 456.707 427.46 455.873 426.913 455.3C426.367 454.713 425.62 454.42 424.673 454.42C423.713 454.42 422.947 454.72 422.373 455.32C421.813 455.92 421.533 456.793 421.533 457.94V464H419.713V453.04H421.533V454.6C421.893 454.04 422.38 453.607 422.993 453.3C423.62 452.993 424.307 452.84 425.053 452.84ZM436.826 452.86C437.773 452.86 438.6 453.067 439.306 453.48C440.026 453.893 440.56 454.413 440.906 455.04V453.04H442.746V464.24C442.746 465.24 442.533 466.127 442.106 466.9C441.68 467.687 441.066 468.3 440.266 468.74C439.48 469.18 438.56 469.4 437.506 469.4C436.066 469.4 434.866 469.06 433.906 468.38C432.946 467.7 432.38 466.773 432.206 465.6H434.006C434.206 466.267 434.62 466.8 435.246 467.2C435.873 467.613 436.626 467.82 437.506 467.82C438.506 467.82 439.32 467.507 439.946 466.88C440.586 466.253 440.906 465.373 440.906 464.24V461.94C440.546 462.58 440.013 463.113 439.306 463.54C438.6 463.967 437.773 464.18 436.826 464.18C435.853 464.18 434.966 463.94 434.166 463.46C433.38 462.98 432.76 462.307 432.306 461.44C431.853 460.573 431.626 459.587 431.626 458.48C431.626 457.36 431.853 456.38 432.306 455.54C432.76 454.687 433.38 454.027 434.166 453.56C434.966 453.093 435.853 452.86 436.826 452.86ZM440.906 458.5C440.906 457.673 440.74 456.953 440.406 456.34C440.073 455.727 439.62 455.26 439.046 454.94C438.486 454.607 437.866 454.44 437.186 454.44C436.506 454.44 435.886 454.6 435.326 454.92C434.766 455.24 434.32 455.707 433.986 456.32C433.653 456.933 433.486 457.653 433.486 458.48C433.486 459.32 433.653 460.053 433.986 460.68C434.32 461.293 434.766 461.767 435.326 462.1C435.886 462.42 436.506 462.58 437.186 462.58C437.866 462.58 438.486 462.42 439.046 462.1C439.62 461.767 440.073 461.293 440.406 460.68C440.74 460.053 440.906 459.327 440.906 458.5ZM450.074 458.48C450.074 457.36 450.301 456.38 450.754 455.54C451.207 454.687 451.827 454.027 452.614 453.56C453.414 453.093 454.307 452.86 455.294 452.86C456.241 452.86 457.067 453.073 457.774 453.5C458.494 453.913 459.021 454.427 459.354 455.04V453.04H461.194V469.2H459.354V461.98C459.007 462.593 458.474 463.113 457.754 463.54C457.034 463.967 456.194 464.18 455.234 464.18C454.274 464.18 453.401 463.94 452.614 463.46C451.827 462.98 451.207 462.307 450.754 461.44C450.301 460.573 450.074 459.587 450.074 458.48ZM459.354 458.5C459.354 457.673 459.187 456.953 458.854 456.34C458.521 455.727 458.067 455.26 457.494 454.94C456.934 454.607 456.314 454.44 455.634 454.44C454.954 454.44 454.334 454.6 453.774 454.92C453.214 455.24 452.767 455.707 452.434 456.32C452.101 456.933 451.934 457.653 451.934 458.48C451.934 459.32 452.101 460.053 452.434 460.68C452.767 461.293 453.214 461.767 453.774 462.1C454.334 462.42 454.954 462.58 455.634 462.58C456.314 462.58 456.934 462.42 457.494 462.1C458.067 461.767 458.521 461.293 458.854 460.68C459.187 460.053 459.354 459.327 459.354 458.5ZM473.79 453.04V464H471.97V462.38C471.623 462.94 471.136 463.38 470.51 463.7C469.896 464.007 469.216 464.16 468.47 464.16C467.616 464.16 466.85 463.987 466.17 463.64C465.49 463.28 464.95 462.747 464.55 462.04C464.163 461.333 463.97 460.473 463.97 459.46V453.04H465.77V459.22C465.77 460.3 466.043 461.133 466.59 461.72C467.136 462.293 467.883 462.58 468.83 462.58C469.803 462.58 470.57 462.28 471.13 461.68C471.69 461.08 471.97 460.207 471.97 459.06V453.04H473.79ZM477.603 451.26C477.256 451.26 476.963 451.14 476.723 450.9C476.483 450.66 476.363 450.367 476.363 450.02C476.363 449.673 476.483 449.38 476.723 449.14C476.963 448.9 477.256 448.78 477.603 448.78C477.936 448.78 478.216 448.9 478.443 449.14C478.683 449.38 478.803 449.673 478.803 450.02C478.803 450.367 478.683 450.66 478.443 450.9C478.216 451.14 477.936 451.26 477.603 451.26ZM478.483 453.04V464H476.663V453.04H478.483ZM482.745 462.5H488.125V464H480.665V462.5L485.985 454.52H480.705V453.04H488.085V454.52L482.745 462.5Z" fill="#434343"/>
<path fill-rule="evenodd" clip-rule="evenodd" d="M115 462.633C118.663 462.633 121.633 459.663 121.633 456C121.633 452.337 118.663 449.367 115 449.367C111.337 449.367 108.367 452.337 108.367 456C108.367 459.663 111.337 462.633 115 462.633ZM115 464C119.418 464 123 460.418 123 456C123 451.582 119.418 448 115 448C110.582 448 107 451.582 107 456C107 460.418 110.582 464 115 464Z" fill="#434343"/>
</g>
<defs>
<filter id="filter0_d_9_298" x="0.860001" y="0.100001" width="597.28" height="719.28" filterUnits="userSpaceOnUse" color-interpolation-filters="sRGB">
<feFlood flood-opacity="0" result="BackgroundImageFix"/>
<feColorMatrix in="SourceAlpha" type="matrix" values="0 0 0 0 0 0 0 0 0 0 0 0 0 0 0 0 0 0 127 0" result="hardAlpha"/>
<feOffset dy="3.24"/>
<feGaussianBlur stdDeviation="38.07"/>
<feColorMatrix type="matrix" values="0 0 0 0 0.587565 0 0 0 0 0.587565 0 0 0 0 0.587565 0 0 0 0.25 0"/>
<feBlend mode="normal" in2="BackgroundImageFix" result="effect1_dropShadow_9_298"/>
<feBlend mode="normal" in="SourceGraphic" in2="effect1_dropShadow_9_298" result="shape"/>
</filter>
</defs>
</svg>
