<svg width="742" height="572" viewBox="0 0 742 572" fill="none" xmlns="http://www.w3.org/2000/svg">
<g filter="url(#filter0_d_9_180)">
<rect x="76.1461" y="73" width="588.888" height="419.288" rx="14.58" fill="white"/>
<path d="M108.499 125.44C108.499 123.944 108.837 122.602 109.511 121.414C110.186 120.212 111.103 119.273 112.261 118.598C113.435 117.924 114.733 117.586 116.155 117.586C117.827 117.586 119.287 117.99 120.533 118.796C121.78 119.603 122.689 120.747 123.261 122.228H120.863C120.438 121.304 119.822 120.593 119.015 120.094C118.223 119.596 117.27 119.346 116.155 119.346C115.085 119.346 114.124 119.596 113.273 120.094C112.423 120.593 111.755 121.304 111.271 122.228C110.787 123.138 110.545 124.208 110.545 125.44C110.545 126.658 110.787 127.728 111.271 128.652C111.755 129.562 112.423 130.266 113.273 130.764C114.124 131.263 115.085 131.512 116.155 131.512C117.27 131.512 118.223 131.27 119.015 130.786C119.822 130.288 120.438 129.576 120.863 128.652H123.261C122.689 130.119 121.78 131.256 120.533 132.062C119.287 132.854 117.827 133.25 116.155 133.25C114.733 133.25 113.435 132.92 112.261 132.26C111.103 131.586 110.186 130.654 109.511 129.466C108.837 128.278 108.499 126.936 108.499 125.44ZM131.28 133.316C130.15 133.316 129.124 133.06 128.2 132.546C127.29 132.033 126.572 131.307 126.044 130.368C125.53 129.415 125.274 128.315 125.274 127.068C125.274 125.836 125.538 124.751 126.066 123.812C126.608 122.859 127.342 122.133 128.266 121.634C129.19 121.121 130.224 120.864 131.368 120.864C132.512 120.864 133.546 121.121 134.47 121.634C135.394 122.133 136.12 122.852 136.648 123.79C137.19 124.729 137.462 125.822 137.462 127.068C137.462 128.315 137.183 129.415 136.626 130.368C136.083 131.307 135.342 132.033 134.404 132.546C133.465 133.06 132.424 133.316 131.28 133.316ZM131.28 131.556C131.998 131.556 132.673 131.388 133.304 131.05C133.934 130.713 134.44 130.207 134.822 129.532C135.218 128.858 135.416 128.036 135.416 127.068C135.416 126.1 135.225 125.279 134.844 124.604C134.462 123.93 133.964 123.431 133.348 123.108C132.732 122.771 132.064 122.602 131.346 122.602C130.612 122.602 129.938 122.771 129.322 123.108C128.72 123.431 128.236 123.93 127.87 124.604C127.503 125.279 127.32 126.1 127.32 127.068C127.32 128.051 127.496 128.88 127.848 129.554C128.214 130.229 128.698 130.735 129.3 131.072C129.901 131.395 130.561 131.556 131.28 131.556ZM154.372 120.842C155.311 120.842 156.147 121.04 156.88 121.436C157.613 121.818 158.193 122.397 158.618 123.174C159.043 123.952 159.256 124.898 159.256 126.012V133.118H157.276V126.298C157.276 125.096 156.975 124.179 156.374 123.548C155.787 122.903 154.988 122.58 153.976 122.58C152.935 122.58 152.106 122.918 151.49 123.592C150.874 124.252 150.566 125.213 150.566 126.474V133.118H148.586V126.298C148.586 125.096 148.285 124.179 147.684 123.548C147.097 122.903 146.298 122.58 145.286 122.58C144.245 122.58 143.416 122.918 142.8 123.592C142.184 124.252 141.876 125.213 141.876 126.474V133.118H139.874V121.062H141.876V122.8C142.272 122.17 142.8 121.686 143.46 121.348C144.135 121.011 144.875 120.842 145.682 120.842C146.694 120.842 147.589 121.07 148.366 121.524C149.143 121.979 149.723 122.646 150.104 123.526C150.441 122.676 150.999 122.016 151.776 121.546C152.553 121.077 153.419 120.842 154.372 120.842ZM164.322 123.284C164.718 122.595 165.305 122.023 166.082 121.568C166.874 121.099 167.791 120.864 168.832 120.864C169.903 120.864 170.871 121.121 171.736 121.634C172.616 122.148 173.305 122.874 173.804 123.812C174.303 124.736 174.552 125.814 174.552 127.046C174.552 128.264 174.303 129.349 173.804 130.302C173.305 131.256 172.616 131.996 171.736 132.524C170.871 133.052 169.903 133.316 168.832 133.316C167.805 133.316 166.896 133.089 166.104 132.634C165.327 132.165 164.733 131.586 164.322 130.896V138.838H162.32V121.062H164.322V123.284ZM172.506 127.046C172.506 126.137 172.323 125.345 171.956 124.67C171.589 123.996 171.091 123.482 170.46 123.13C169.844 122.778 169.162 122.602 168.414 122.602C167.681 122.602 166.999 122.786 166.368 123.152C165.752 123.504 165.253 124.025 164.872 124.714C164.505 125.389 164.322 126.174 164.322 127.068C164.322 127.978 164.505 128.777 164.872 129.466C165.253 130.141 165.752 130.662 166.368 131.028C166.999 131.38 167.681 131.556 168.414 131.556C169.162 131.556 169.844 131.38 170.46 131.028C171.091 130.662 171.589 130.141 171.956 129.466C172.323 128.777 172.506 127.97 172.506 127.046ZM178.969 116.838V133.118H176.967V116.838H178.969ZM193.161 126.628C193.161 127.01 193.139 127.413 193.095 127.838H183.459C183.532 129.026 183.936 129.958 184.669 130.632C185.417 131.292 186.319 131.622 187.375 131.622C188.24 131.622 188.959 131.424 189.531 131.028C190.118 130.618 190.528 130.075 190.763 129.4H192.919C192.596 130.559 191.951 131.505 190.983 132.238C190.015 132.957 188.812 133.316 187.375 133.316C186.231 133.316 185.204 133.06 184.295 132.546C183.4 132.033 182.696 131.307 182.183 130.368C181.67 129.415 181.413 128.315 181.413 127.068C181.413 125.822 181.662 124.729 182.161 123.79C182.66 122.852 183.356 122.133 184.251 121.634C185.16 121.121 186.202 120.864 187.375 120.864C188.519 120.864 189.531 121.114 190.411 121.612C191.291 122.111 191.966 122.8 192.435 123.68C192.919 124.546 193.161 125.528 193.161 126.628ZM191.093 126.21C191.093 125.448 190.924 124.795 190.587 124.252C190.25 123.695 189.788 123.277 189.201 122.998C188.629 122.705 187.991 122.558 187.287 122.558C186.275 122.558 185.41 122.881 184.691 123.526C183.987 124.172 183.584 125.066 183.481 126.21H191.093ZM198.026 122.712V129.818C198.026 130.405 198.15 130.823 198.4 131.072C198.649 131.307 199.082 131.424 199.698 131.424H201.172V133.118H199.368C198.253 133.118 197.417 132.862 196.86 132.348C196.302 131.835 196.024 130.992 196.024 129.818V122.712H194.462V121.062H196.024V118.026H198.026V121.062H201.172V122.712H198.026ZM214.377 126.628C214.377 127.01 214.355 127.413 214.311 127.838H204.675C204.749 129.026 205.152 129.958 205.885 130.632C206.633 131.292 207.535 131.622 208.591 131.622C209.457 131.622 210.175 131.424 210.747 131.028C211.334 130.618 211.745 130.075 211.979 129.4H214.135C213.813 130.559 213.167 131.505 212.199 132.238C211.231 132.957 210.029 133.316 208.591 133.316C207.447 133.316 206.421 133.06 205.511 132.546C204.617 132.033 203.913 131.307 203.399 130.368C202.886 129.415 202.629 128.315 202.629 127.068C202.629 125.822 202.879 124.729 203.377 123.79C203.876 122.852 204.573 122.133 205.467 121.634C206.377 121.121 207.418 120.864 208.591 120.864C209.735 120.864 210.747 121.114 211.627 121.612C212.507 122.111 213.182 122.8 213.651 123.68C214.135 124.546 214.377 125.528 214.377 126.628ZM212.309 126.21C212.309 125.448 212.141 124.795 211.803 124.252C211.466 123.695 211.004 123.277 210.417 122.998C209.845 122.705 209.207 122.558 208.503 122.558C207.491 122.558 206.626 122.881 205.907 123.526C205.203 124.172 204.8 125.066 204.697 126.21H212.309ZM221.697 127.046C221.697 125.814 221.947 124.736 222.445 123.812C222.944 122.874 223.626 122.148 224.491 121.634C225.371 121.121 226.347 120.864 227.417 120.864C228.473 120.864 229.39 121.092 230.167 121.546C230.945 122.001 231.524 122.573 231.905 123.262V121.062H233.929V133.118H231.905V130.874C231.509 131.578 230.915 132.165 230.123 132.634C229.346 133.089 228.437 133.316 227.395 133.316C226.325 133.316 225.357 133.052 224.491 132.524C223.626 131.996 222.944 131.256 222.445 130.302C221.947 129.349 221.697 128.264 221.697 127.046ZM231.905 127.068C231.905 126.159 231.722 125.367 231.355 124.692C230.989 124.018 230.49 123.504 229.859 123.152C229.243 122.786 228.561 122.602 227.813 122.602C227.065 122.602 226.383 122.778 225.767 123.13C225.151 123.482 224.66 123.996 224.293 124.67C223.927 125.345 223.743 126.137 223.743 127.046C223.743 127.97 223.927 128.777 224.293 129.466C224.66 130.141 225.151 130.662 225.767 131.028C226.383 131.38 227.065 131.556 227.813 131.556C228.561 131.556 229.243 131.38 229.859 131.028C230.49 130.662 230.989 130.141 231.355 129.466C231.722 128.777 231.905 127.978 231.905 127.068ZM239.094 116.838V133.118H237.092V116.838H239.094ZM244.288 116.838V133.118H242.286V116.838H244.288ZM252.312 129.576V128.058L260.034 117.366H262.432V127.838H264.632V129.576H262.432V133.118H260.452V129.576H252.312ZM260.54 119.456L254.622 127.838H260.54V119.456ZM271.639 127.046C271.639 125.814 271.888 124.736 272.387 123.812C272.886 122.874 273.568 122.148 274.433 121.634C275.313 121.121 276.288 120.864 277.359 120.864C278.415 120.864 279.332 121.092 280.109 121.546C280.886 122.001 281.466 122.573 281.847 123.262V121.062H283.871V133.118H281.847V130.874C281.451 131.578 280.857 132.165 280.065 132.634C279.288 133.089 278.378 133.316 277.337 133.316C276.266 133.316 275.298 133.052 274.433 132.524C273.568 131.996 272.886 131.256 272.387 130.302C271.888 129.349 271.639 128.264 271.639 127.046ZM281.847 127.068C281.847 126.159 281.664 125.367 281.297 124.692C280.93 124.018 280.432 123.504 279.801 123.152C279.185 122.786 278.503 122.602 277.755 122.602C277.007 122.602 276.325 122.778 275.709 123.13C275.093 123.482 274.602 123.996 274.235 124.67C273.868 125.345 273.685 126.137 273.685 127.046C273.685 127.97 273.868 128.777 274.235 129.466C274.602 130.141 275.093 130.662 275.709 131.028C276.325 131.38 277.007 131.556 277.755 131.556C278.503 131.556 279.185 131.38 279.801 131.028C280.432 130.662 280.93 130.141 281.297 129.466C281.664 128.777 281.847 127.978 281.847 127.068ZM291.302 133.316C290.378 133.316 289.549 133.162 288.816 132.854C288.083 132.532 287.503 132.092 287.078 131.534C286.653 130.962 286.418 130.31 286.374 129.576H288.442C288.501 130.178 288.779 130.669 289.278 131.05C289.791 131.432 290.459 131.622 291.28 131.622C292.043 131.622 292.644 131.454 293.084 131.116C293.524 130.779 293.744 130.354 293.744 129.84C293.744 129.312 293.509 128.924 293.04 128.674C292.571 128.41 291.845 128.154 290.862 127.904C289.967 127.67 289.234 127.435 288.662 127.2C288.105 126.951 287.621 126.592 287.21 126.122C286.814 125.638 286.616 125.008 286.616 124.23C286.616 123.614 286.799 123.05 287.166 122.536C287.533 122.023 288.053 121.62 288.728 121.326C289.403 121.018 290.173 120.864 291.038 120.864C292.373 120.864 293.451 121.202 294.272 121.876C295.093 122.551 295.533 123.475 295.592 124.648H293.59C293.546 124.018 293.289 123.512 292.82 123.13C292.365 122.749 291.749 122.558 290.972 122.558C290.253 122.558 289.681 122.712 289.256 123.02C288.831 123.328 288.618 123.732 288.618 124.23C288.618 124.626 288.743 124.956 288.992 125.22C289.256 125.47 289.579 125.675 289.96 125.836C290.356 125.983 290.899 126.152 291.588 126.342C292.453 126.577 293.157 126.812 293.7 127.046C294.243 127.266 294.705 127.604 295.086 128.058C295.482 128.513 295.687 129.107 295.702 129.84C295.702 130.5 295.519 131.094 295.152 131.622C294.785 132.15 294.265 132.568 293.59 132.876C292.93 133.17 292.167 133.316 291.302 133.316ZM302.576 133.316C301.652 133.316 300.824 133.162 300.09 132.854C299.357 132.532 298.778 132.092 298.352 131.534C297.927 130.962 297.692 130.31 297.648 129.576H299.716C299.775 130.178 300.054 130.669 300.552 131.05C301.066 131.432 301.733 131.622 302.554 131.622C303.317 131.622 303.918 131.454 304.358 131.116C304.798 130.779 305.018 130.354 305.018 129.84C305.018 129.312 304.784 128.924 304.314 128.674C303.845 128.41 303.119 128.154 302.136 127.904C301.242 127.67 300.508 127.435 299.936 127.2C299.379 126.951 298.895 126.592 298.484 126.122C298.088 125.638 297.89 125.008 297.89 124.23C297.89 123.614 298.074 123.05 298.44 122.536C298.807 122.023 299.328 121.62 300.002 121.326C300.677 121.018 301.447 120.864 302.312 120.864C303.647 120.864 304.725 121.202 305.546 121.876C306.368 122.551 306.808 123.475 306.866 124.648H304.864C304.82 124.018 304.564 123.512 304.094 123.13C303.64 122.749 303.024 122.558 302.246 122.558C301.528 122.558 300.956 122.712 300.53 123.02C300.105 123.328 299.892 123.732 299.892 124.23C299.892 124.626 300.017 124.956 300.266 125.22C300.53 125.47 300.853 125.675 301.234 125.836C301.63 125.983 302.173 126.152 302.862 126.342C303.728 126.577 304.432 126.812 304.974 127.046C305.517 127.266 305.979 127.604 306.36 128.058C306.756 128.513 306.962 129.107 306.976 129.84C306.976 130.5 306.793 131.094 306.426 131.622C306.06 132.15 305.539 132.568 304.864 132.876C304.204 133.17 303.442 133.316 302.576 133.316ZM310.616 119.104C310.235 119.104 309.912 118.972 309.648 118.708C309.384 118.444 309.252 118.122 309.252 117.74C309.252 117.359 309.384 117.036 309.648 116.772C309.912 116.508 310.235 116.376 310.616 116.376C310.983 116.376 311.291 116.508 311.54 116.772C311.804 117.036 311.936 117.359 311.936 117.74C311.936 118.122 311.804 118.444 311.54 118.708C311.291 118.972 310.983 119.104 310.616 119.104ZM311.584 121.062V133.118H309.582V121.062H311.584ZM319.748 120.864C320.79 120.864 321.699 121.092 322.476 121.546C323.268 122.001 323.855 122.573 324.236 123.262V121.062H326.26V133.382C326.26 134.482 326.026 135.458 325.556 136.308C325.087 137.174 324.412 137.848 323.532 138.332C322.667 138.816 321.655 139.058 320.496 139.058C318.912 139.058 317.592 138.684 316.536 137.936C315.48 137.188 314.857 136.169 314.666 134.878H316.646C316.866 135.612 317.321 136.198 318.01 136.638C318.7 137.093 319.528 137.32 320.496 137.32C321.596 137.32 322.491 136.976 323.18 136.286C323.884 135.597 324.236 134.629 324.236 133.382V130.852C323.84 131.556 323.254 132.143 322.476 132.612C321.699 133.082 320.79 133.316 319.748 133.316C318.678 133.316 317.702 133.052 316.822 132.524C315.957 131.996 315.275 131.256 314.776 130.302C314.278 129.349 314.028 128.264 314.028 127.046C314.028 125.814 314.278 124.736 314.776 123.812C315.275 122.874 315.957 122.148 316.822 121.634C317.702 121.121 318.678 120.864 319.748 120.864ZM324.236 127.068C324.236 126.159 324.053 125.367 323.686 124.692C323.32 124.018 322.821 123.504 322.19 123.152C321.574 122.786 320.892 122.602 320.144 122.602C319.396 122.602 318.714 122.778 318.098 123.13C317.482 123.482 316.991 123.996 316.624 124.67C316.258 125.345 316.074 126.137 316.074 127.046C316.074 127.97 316.258 128.777 316.624 129.466C316.991 130.141 317.482 130.662 318.098 131.028C318.714 131.38 319.396 131.556 320.144 131.556C320.892 131.556 321.574 131.38 322.19 131.028C322.821 130.662 323.32 130.141 323.686 129.466C324.053 128.777 324.236 127.978 324.236 127.068ZM335.298 120.842C336.764 120.842 337.952 121.29 338.862 122.184C339.771 123.064 340.226 124.34 340.226 126.012V133.118H338.246V126.298C338.246 125.096 337.945 124.179 337.344 123.548C336.742 122.903 335.921 122.58 334.88 122.58C333.824 122.58 332.98 122.91 332.35 123.57C331.734 124.23 331.426 125.191 331.426 126.452V133.118H329.424V121.062H331.426V122.778C331.822 122.162 332.357 121.686 333.032 121.348C333.721 121.011 334.476 120.842 335.298 120.842ZM357.774 120.842C358.713 120.842 359.549 121.04 360.282 121.436C361.015 121.818 361.595 122.397 362.02 123.174C362.445 123.952 362.658 124.898 362.658 126.012V133.118H360.678V126.298C360.678 125.096 360.377 124.179 359.776 123.548C359.189 122.903 358.39 122.58 357.378 122.58C356.337 122.58 355.508 122.918 354.892 123.592C354.276 124.252 353.968 125.213 353.968 126.474V133.118H351.988V126.298C351.988 125.096 351.687 124.179 351.086 123.548C350.499 122.903 349.7 122.58 348.688 122.58C347.647 122.58 346.818 122.918 346.202 123.592C345.586 124.252 345.278 125.213 345.278 126.474V133.118H343.276V121.062H345.278V122.8C345.674 122.17 346.202 121.686 346.862 121.348C347.537 121.011 348.277 120.842 349.084 120.842C350.096 120.842 350.991 121.07 351.768 121.524C352.545 121.979 353.125 122.646 353.506 123.526C353.843 122.676 354.401 122.016 355.178 121.546C355.955 121.077 356.821 120.842 357.774 120.842ZM376.722 126.628C376.722 127.01 376.7 127.413 376.656 127.838H367.02C367.093 129.026 367.497 129.958 368.23 130.632C368.978 131.292 369.88 131.622 370.936 131.622C371.801 131.622 372.52 131.424 373.092 131.028C373.679 130.618 374.089 130.075 374.324 129.4H376.48C376.157 130.559 375.512 131.505 374.544 132.238C373.576 132.957 372.373 133.316 370.936 133.316C369.792 133.316 368.765 133.06 367.856 132.546C366.961 132.033 366.257 131.307 365.744 130.368C365.231 129.415 364.974 128.315 364.974 127.068C364.974 125.822 365.223 124.729 365.722 123.79C366.221 122.852 366.917 122.133 367.812 121.634C368.721 121.121 369.763 120.864 370.936 120.864C372.08 120.864 373.092 121.114 373.972 121.612C374.852 122.111 375.527 122.8 375.996 123.68C376.48 124.546 376.722 125.528 376.722 126.628ZM374.654 126.21C374.654 125.448 374.485 124.795 374.148 124.252C373.811 123.695 373.349 123.277 372.762 122.998C372.19 122.705 371.552 122.558 370.848 122.558C369.836 122.558 368.971 122.881 368.252 123.526C367.548 124.172 367.145 125.066 367.042 126.21H374.654ZM385.019 120.842C386.485 120.842 387.673 121.29 388.583 122.184C389.492 123.064 389.947 124.34 389.947 126.012V133.118H387.967V126.298C387.967 125.096 387.666 124.179 387.065 123.548C386.463 122.903 385.642 122.58 384.601 122.58C383.545 122.58 382.701 122.91 382.071 123.57C381.455 124.23 381.147 125.191 381.147 126.452V133.118H379.145V121.062H381.147V122.778C381.543 122.162 382.078 121.686 382.753 121.348C383.442 121.011 384.197 120.842 385.019 120.842ZM395.439 122.712V129.818C395.439 130.405 395.563 130.823 395.813 131.072C396.062 131.307 396.495 131.424 397.111 131.424H398.585V133.118H396.781C395.666 133.118 394.83 132.862 394.273 132.348C393.715 131.835 393.437 130.992 393.437 129.818V122.712H391.875V121.062H393.437V118.026H395.439V121.062H398.585V122.712H395.439ZM405.058 133.316C404.134 133.316 403.306 133.162 402.572 132.854C401.839 132.532 401.26 132.092 400.834 131.534C400.409 130.962 400.174 130.31 400.13 129.576H402.198C402.257 130.178 402.536 130.669 403.034 131.05C403.548 131.432 404.215 131.622 405.036 131.622C405.799 131.622 406.4 131.454 406.84 131.116C407.28 130.779 407.5 130.354 407.5 129.84C407.5 129.312 407.266 128.924 406.796 128.674C406.327 128.41 405.601 128.154 404.618 127.904C403.724 127.67 402.99 127.435 402.418 127.2C401.861 126.951 401.377 126.592 400.966 126.122C400.57 125.638 400.372 125.008 400.372 124.23C400.372 123.614 400.556 123.05 400.922 122.536C401.289 122.023 401.81 121.62 402.484 121.326C403.159 121.018 403.929 120.864 404.794 120.864C406.129 120.864 407.207 121.202 408.028 121.876C408.85 122.551 409.29 123.475 409.348 124.648H407.346C407.302 124.018 407.046 123.512 406.576 123.13C406.122 122.749 405.506 122.558 404.728 122.558C404.01 122.558 403.438 122.712 403.012 123.02C402.587 123.328 402.374 123.732 402.374 124.23C402.374 124.626 402.499 124.956 402.748 125.22C403.012 125.47 403.335 125.675 403.716 125.836C404.112 125.983 404.655 126.152 405.344 126.342C406.21 126.577 406.914 126.812 407.456 127.046C407.999 127.266 408.461 127.604 408.842 128.058C409.238 128.513 409.444 129.107 409.458 129.84C409.458 130.5 409.275 131.094 408.908 131.622C408.542 132.15 408.021 132.568 407.346 132.876C406.686 133.17 405.924 133.316 405.058 133.316ZM422.616 122.712H420.086V133.118H418.084V122.712H416.522V121.062H418.084V120.204C418.084 118.855 418.428 117.872 419.118 117.256C419.822 116.626 420.944 116.31 422.484 116.31V117.982C421.604 117.982 420.98 118.158 420.614 118.51C420.262 118.848 420.086 119.412 420.086 120.204V121.062H422.616V122.712ZM429.988 133.316C428.859 133.316 427.832 133.06 426.908 132.546C425.999 132.033 425.28 131.307 424.752 130.368C424.239 129.415 423.982 128.315 423.982 127.068C423.982 125.836 424.246 124.751 424.774 123.812C425.317 122.859 426.05 122.133 426.974 121.634C427.898 121.121 428.932 120.864 430.076 120.864C431.22 120.864 432.254 121.121 433.178 121.634C434.102 122.133 434.828 122.852 435.356 123.79C435.899 124.729 436.17 125.822 436.17 127.068C436.17 128.315 435.891 129.415 435.334 130.368C434.791 131.307 434.051 132.033 433.112 132.546C432.173 133.06 431.132 133.316 429.988 133.316ZM429.988 131.556C430.707 131.556 431.381 131.388 432.012 131.05C432.643 130.713 433.149 130.207 433.53 129.532C433.926 128.858 434.124 128.036 434.124 127.068C434.124 126.1 433.933 125.279 433.552 124.604C433.171 123.93 432.672 123.431 432.056 123.108C431.44 122.771 430.773 122.602 430.054 122.602C429.321 122.602 428.646 122.771 428.03 123.108C427.429 123.431 426.945 123.93 426.578 124.604C426.211 125.279 426.028 126.1 426.028 127.068C426.028 128.051 426.204 128.88 426.556 129.554C426.923 130.229 427.407 130.735 428.008 131.072C428.609 131.395 429.269 131.556 429.988 131.556ZM440.584 123.02C440.936 122.331 441.435 121.796 442.08 121.414C442.74 121.033 443.54 120.842 444.478 120.842V122.91H443.95C441.706 122.91 440.584 124.128 440.584 126.562V133.118H438.582V121.062H440.584V123.02ZM454.657 122.712V129.818C454.657 130.405 454.781 130.823 455.031 131.072C455.28 131.307 455.713 131.424 456.329 131.424H457.803V133.118H455.999C454.884 133.118 454.048 132.862 453.491 132.348C452.933 131.835 452.655 130.992 452.655 129.818V122.712H451.093V121.062H452.655V118.026H454.657V121.062H457.803V122.712H454.657ZM465.992 120.842C466.902 120.842 467.723 121.04 468.456 121.436C469.19 121.818 469.762 122.397 470.172 123.174C470.598 123.952 470.81 124.898 470.81 126.012V133.118H468.83V126.298C468.83 125.096 468.53 124.179 467.928 123.548C467.327 122.903 466.506 122.58 465.464 122.58C464.408 122.58 463.565 122.91 462.934 123.57C462.318 124.23 462.01 125.191 462.01 126.452V133.118H460.008V116.838H462.01V122.778C462.406 122.162 462.949 121.686 463.638 121.348C464.342 121.011 465.127 120.842 465.992 120.842ZM484.861 126.628C484.861 127.01 484.839 127.413 484.795 127.838H475.159C475.232 129.026 475.635 129.958 476.369 130.632C477.117 131.292 478.019 131.622 479.075 131.622C479.94 131.622 480.659 131.424 481.231 131.028C481.817 130.618 482.228 130.075 482.463 129.4H484.619C484.296 130.559 483.651 131.505 482.683 132.238C481.715 132.957 480.512 133.316 479.075 133.316C477.931 133.316 476.904 133.06 475.995 132.546C475.1 132.033 474.396 131.307 473.883 130.368C473.369 129.415 473.113 128.315 473.113 127.068C473.113 125.822 473.362 124.729 473.861 123.79C474.359 122.852 475.056 122.133 475.951 121.634C476.86 121.121 477.901 120.864 479.075 120.864C480.219 120.864 481.231 121.114 482.111 121.612C482.991 122.111 483.665 122.8 484.135 123.68C484.619 124.546 484.861 125.528 484.861 126.628ZM482.793 126.21C482.793 125.448 482.624 124.795 482.287 124.252C481.949 123.695 481.487 123.277 480.901 122.998C480.329 122.705 479.691 122.558 478.987 122.558C477.975 122.558 477.109 122.881 476.391 123.526C475.687 124.172 475.283 125.066 475.181 126.21H482.793ZM495.37 122.712V129.818C495.37 130.405 495.495 130.823 495.744 131.072C495.994 131.307 496.426 131.424 497.042 131.424H498.516V133.118H496.712C495.598 133.118 494.762 132.862 494.204 132.348C493.647 131.835 493.368 130.992 493.368 129.818V122.712H491.806V121.062H493.368V118.026H495.37V121.062H498.516V122.712H495.37ZM511.722 126.628C511.722 127.01 511.7 127.413 511.656 127.838H502.02C502.093 129.026 502.497 129.958 503.23 130.632C503.978 131.292 504.88 131.622 505.936 131.622C506.801 131.622 507.52 131.424 508.092 131.028C508.679 130.618 509.089 130.075 509.324 129.4H511.48C511.157 130.559 510.512 131.505 509.544 132.238C508.576 132.957 507.373 133.316 505.936 133.316C504.792 133.316 503.765 133.06 502.856 132.546C501.961 132.033 501.257 131.307 500.744 130.368C500.231 129.415 499.974 128.315 499.974 127.068C499.974 125.822 500.223 124.729 500.722 123.79C501.221 122.852 501.917 122.133 502.812 121.634C503.721 121.121 504.763 120.864 505.936 120.864C507.08 120.864 508.092 121.114 508.972 121.612C509.852 122.111 510.527 122.8 510.996 123.68C511.48 124.546 511.722 125.528 511.722 126.628ZM509.654 126.21C509.654 125.448 509.485 124.795 509.148 124.252C508.811 123.695 508.349 123.277 507.762 122.998C507.19 122.705 506.552 122.558 505.848 122.558C504.836 122.558 503.971 122.881 503.252 123.526C502.548 124.172 502.145 125.066 502.042 126.21H509.654ZM513.397 127.046C513.397 125.814 513.646 124.736 514.145 123.812C514.643 122.874 515.325 122.148 516.191 121.634C517.071 121.121 518.046 120.864 519.117 120.864C520.173 120.864 521.089 121.092 521.867 121.546C522.644 122.001 523.223 122.573 523.605 123.262V121.062H525.629V133.118H523.605V130.874C523.209 131.578 522.615 132.165 521.823 132.634C521.045 133.089 520.136 133.316 519.095 133.316C518.024 133.316 517.056 133.052 516.191 132.524C515.325 131.996 514.643 131.256 514.145 130.302C513.646 129.349 513.397 128.264 513.397 127.046ZM523.605 127.068C523.605 126.159 523.421 125.367 523.055 124.692C522.688 124.018 522.189 123.504 521.559 123.152C520.943 122.786 520.261 122.602 519.513 122.602C518.765 122.602 518.083 122.778 517.467 123.13C516.851 123.482 516.359 123.996 515.993 124.67C515.626 125.345 515.443 126.137 515.443 127.046C515.443 127.97 515.626 128.777 515.993 129.466C516.359 130.141 516.851 130.662 517.467 131.028C518.083 131.38 518.765 131.556 519.513 131.556C520.261 131.556 520.943 131.38 521.559 131.028C522.189 130.662 522.688 130.141 523.055 129.466C523.421 128.777 523.605 127.978 523.605 127.068ZM543.29 120.842C544.228 120.842 545.064 121.04 545.798 121.436C546.531 121.818 547.11 122.397 547.536 123.174C547.961 123.952 548.174 124.898 548.174 126.012V133.118H546.194V126.298C546.194 125.096 545.893 124.179 545.292 123.548C544.705 122.903 543.906 122.58 542.894 122.58C541.852 122.58 541.024 122.918 540.408 123.592C539.792 124.252 539.484 125.213 539.484 126.474V133.118H537.504V126.298C537.504 125.096 537.203 124.179 536.602 123.548C536.015 122.903 535.216 122.58 534.204 122.58C533.162 122.58 532.334 122.918 531.718 123.592C531.102 124.252 530.794 125.213 530.794 126.474V133.118H528.792V121.062H530.794V122.8C531.19 122.17 531.718 121.686 532.378 121.348C533.052 121.011 533.793 120.842 534.6 120.842C535.612 120.842 536.506 121.07 537.284 121.524C538.061 121.979 538.64 122.646 539.022 123.526C539.359 122.676 539.916 122.016 540.694 121.546C541.471 121.077 542.336 120.842 543.29 120.842ZM556.135 127.046C556.135 125.814 556.384 124.736 556.883 123.812C557.382 122.874 558.064 122.148 558.929 121.634C559.809 121.121 560.784 120.864 561.855 120.864C562.911 120.864 563.828 121.092 564.605 121.546C565.382 122.001 565.962 122.573 566.343 123.262V121.062H568.367V133.118H566.343V130.874C565.947 131.578 565.353 132.165 564.561 132.634C563.784 133.089 562.874 133.316 561.833 133.316C560.762 133.316 559.794 133.052 558.929 132.524C558.064 131.996 557.382 131.256 556.883 130.302C556.384 129.349 556.135 128.264 556.135 127.046ZM566.343 127.068C566.343 126.159 566.16 125.367 565.793 124.692C565.426 124.018 564.928 123.504 564.297 123.152C563.681 122.786 562.999 122.602 562.251 122.602C561.503 122.602 560.821 122.778 560.205 123.13C559.589 123.482 559.098 123.996 558.731 124.67C558.364 125.345 558.181 126.137 558.181 127.046C558.181 127.97 558.364 128.777 558.731 129.466C559.098 130.141 559.589 130.662 560.205 131.028C560.821 131.38 561.503 131.556 562.251 131.556C562.999 131.556 563.681 131.38 564.297 131.028C564.928 130.662 565.426 130.141 565.793 129.466C566.16 128.777 566.343 127.978 566.343 127.068ZM577.404 120.842C578.871 120.842 580.059 121.29 580.968 122.184C581.878 123.064 582.332 124.34 582.332 126.012V133.118H580.352V126.298C580.352 125.096 580.052 124.179 579.45 123.548C578.849 122.903 578.028 122.58 576.986 122.58C575.93 122.58 575.087 122.91 574.456 123.57C573.84 124.23 573.532 125.191 573.532 126.452V133.118H571.53V121.062H573.532V122.778C573.928 122.162 574.464 121.686 575.138 121.348C575.828 121.011 576.583 120.842 577.404 120.842ZM584.634 127.046C584.634 125.814 584.884 124.736 585.382 123.812C585.881 122.874 586.563 122.148 587.428 121.634C588.308 121.121 589.291 120.864 590.376 120.864C591.315 120.864 592.188 121.084 592.994 121.524C593.801 121.95 594.417 122.514 594.842 123.218V116.838H596.866V133.118H594.842V130.852C594.446 131.571 593.86 132.165 593.082 132.634C592.305 133.089 591.396 133.316 590.354 133.316C589.284 133.316 588.308 133.052 587.428 132.524C586.563 131.996 585.881 131.256 585.382 130.302C584.884 129.349 584.634 128.264 584.634 127.046ZM594.842 127.068C594.842 126.159 594.659 125.367 594.292 124.692C593.926 124.018 593.427 123.504 592.796 123.152C592.18 122.786 591.498 122.602 590.75 122.602C590.002 122.602 589.32 122.778 588.704 123.13C588.088 123.482 587.597 123.996 587.23 124.67C586.864 125.345 586.68 126.137 586.68 127.046C586.68 127.97 586.864 128.777 587.23 129.466C587.597 130.141 588.088 130.662 588.704 131.028C589.32 131.38 590.002 131.556 590.75 131.556C591.498 131.556 592.18 131.38 592.796 131.028C593.427 130.662 593.926 130.141 594.292 129.466C594.659 128.777 594.842 127.978 594.842 127.068ZM605.103 131.512C606.966 130.016 608.425 128.792 609.481 127.838C610.537 126.87 611.424 125.866 612.143 124.824C612.876 123.768 613.243 122.734 613.243 121.722C613.243 120.769 613.008 120.021 612.539 119.478C612.084 118.921 611.344 118.642 610.317 118.642C609.32 118.642 608.542 118.958 607.985 119.588C607.442 120.204 607.149 121.033 607.105 122.074H605.169C605.228 120.432 605.726 119.163 606.665 118.268C607.604 117.374 608.814 116.926 610.295 116.926C611.806 116.926 613.001 117.344 613.881 118.18C614.776 119.016 615.223 120.168 615.223 121.634C615.223 122.852 614.856 124.04 614.123 125.198C613.404 126.342 612.583 127.354 611.659 128.234C610.735 129.1 609.554 130.112 608.117 131.27H615.685V132.942H605.103V131.512ZM108.499 160.046C108.499 158.814 108.749 157.736 109.247 156.812C109.746 155.874 110.428 155.148 111.293 154.634C112.173 154.121 113.149 153.864 114.219 153.864C115.275 153.864 116.192 154.092 116.969 154.546C117.747 155.001 118.326 155.573 118.707 156.262V154.062H120.731V166.118H118.707V163.874C118.311 164.578 117.717 165.165 116.925 165.634C116.148 166.089 115.239 166.316 114.197 166.316C113.127 166.316 112.159 166.052 111.293 165.524C110.428 164.996 109.746 164.256 109.247 163.302C108.749 162.349 108.499 161.264 108.499 160.046ZM118.707 160.068C118.707 159.159 118.524 158.367 118.157 157.692C117.791 157.018 117.292 156.504 116.661 156.152C116.045 155.786 115.363 155.602 114.615 155.602C113.867 155.602 113.185 155.778 112.569 156.13C111.953 156.482 111.462 156.996 111.095 157.67C110.729 158.345 110.545 159.137 110.545 160.046C110.545 160.97 110.729 161.777 111.095 162.466C111.462 163.141 111.953 163.662 112.569 164.028C113.185 164.38 113.867 164.556 114.615 164.556C115.363 164.556 116.045 164.38 116.661 164.028C117.292 163.662 117.791 163.141 118.157 162.466C118.524 161.777 118.707 160.978 118.707 160.068ZM128.163 166.316C127.239 166.316 126.41 166.162 125.677 165.854C124.943 165.532 124.364 165.092 123.939 164.534C123.513 163.962 123.279 163.31 123.235 162.576H125.303C125.361 163.178 125.64 163.669 126.139 164.05C126.652 164.432 127.319 164.622 128.141 164.622C128.903 164.622 129.505 164.454 129.945 164.116C130.385 163.779 130.605 163.354 130.605 162.84C130.605 162.312 130.37 161.924 129.901 161.674C129.431 161.41 128.705 161.154 127.723 160.904C126.828 160.67 126.095 160.435 125.523 160.2C124.965 159.951 124.481 159.592 124.071 159.122C123.675 158.638 123.477 158.008 123.477 157.23C123.477 156.614 123.66 156.05 124.027 155.536C124.393 155.023 124.914 154.62 125.589 154.326C126.263 154.018 127.033 153.864 127.899 153.864C129.233 153.864 130.311 154.202 131.133 154.876C131.954 155.551 132.394 156.475 132.453 157.648H130.451C130.407 157.018 130.15 156.512 129.681 156.13C129.226 155.749 128.61 155.558 127.833 155.558C127.114 155.558 126.542 155.712 126.117 156.02C125.691 156.328 125.479 156.732 125.479 157.23C125.479 157.626 125.603 157.956 125.853 158.22C126.117 158.47 126.439 158.675 126.821 158.836C127.217 158.983 127.759 159.152 128.449 159.342C129.314 159.577 130.018 159.812 130.561 160.046C131.103 160.266 131.565 160.604 131.947 161.058C132.343 161.513 132.548 162.107 132.563 162.84C132.563 163.5 132.379 164.094 132.013 164.622C131.646 165.15 131.125 165.568 130.451 165.876C129.791 166.17 129.028 166.316 128.163 166.316ZM139.437 166.316C138.513 166.316 137.684 166.162 136.951 165.854C136.217 165.532 135.638 165.092 135.213 164.534C134.787 163.962 134.553 163.31 134.509 162.576H136.577C136.635 163.178 136.914 163.669 137.413 164.05C137.926 164.432 138.593 164.622 139.415 164.622C140.177 164.622 140.779 164.454 141.219 164.116C141.659 163.779 141.879 163.354 141.879 162.84C141.879 162.312 141.644 161.924 141.175 161.674C140.705 161.41 139.979 161.154 138.997 160.904C138.102 160.67 137.369 160.435 136.797 160.2C136.239 159.951 135.755 159.592 135.345 159.122C134.949 158.638 134.751 158.008 134.751 157.23C134.751 156.614 134.934 156.05 135.301 155.536C135.667 155.023 136.188 154.62 136.863 154.326C137.537 154.018 138.307 153.864 139.173 153.864C140.507 153.864 141.585 154.202 142.407 154.876C143.228 155.551 143.668 156.475 143.727 157.648H141.725C141.681 157.018 141.424 156.512 140.955 156.13C140.5 155.749 139.884 155.558 139.107 155.558C138.388 155.558 137.816 155.712 137.391 156.02C136.965 156.328 136.753 156.732 136.753 157.23C136.753 157.626 136.877 157.956 137.127 158.22C137.391 158.47 137.713 158.675 138.095 158.836C138.491 158.983 139.033 159.152 139.723 159.342C140.588 159.577 141.292 159.812 141.835 160.046C142.377 160.266 142.839 160.604 143.221 161.058C143.617 161.513 143.822 162.107 143.837 162.84C143.837 163.5 143.653 164.094 143.287 164.622C142.92 165.15 142.399 165.568 141.725 165.876C141.065 166.17 140.302 166.316 139.437 166.316ZM147.477 152.104C147.096 152.104 146.773 151.972 146.509 151.708C146.245 151.444 146.113 151.122 146.113 150.74C146.113 150.359 146.245 150.036 146.509 149.772C146.773 149.508 147.096 149.376 147.477 149.376C147.844 149.376 148.152 149.508 148.401 149.772C148.665 150.036 148.797 150.359 148.797 150.74C148.797 151.122 148.665 151.444 148.401 151.708C148.152 151.972 147.844 152.104 147.477 152.104ZM148.445 154.062V166.118H146.443V154.062H148.445ZM156.609 153.864C157.65 153.864 158.56 154.092 159.337 154.546C160.129 155.001 160.716 155.573 161.097 156.262V154.062H163.121V166.382C163.121 167.482 162.886 168.458 162.417 169.308C161.948 170.174 161.273 170.848 160.393 171.332C159.528 171.816 158.516 172.058 157.357 172.058C155.773 172.058 154.453 171.684 153.397 170.936C152.341 170.188 151.718 169.169 151.527 167.878H153.507C153.727 168.612 154.182 169.198 154.871 169.638C155.56 170.093 156.389 170.32 157.357 170.32C158.457 170.32 159.352 169.976 160.041 169.286C160.745 168.597 161.097 167.629 161.097 166.382V163.852C160.701 164.556 160.114 165.143 159.337 165.612C158.56 166.082 157.65 166.316 156.609 166.316C155.538 166.316 154.563 166.052 153.683 165.524C152.818 164.996 152.136 164.256 151.637 163.302C151.138 162.349 150.889 161.264 150.889 160.046C150.889 158.814 151.138 157.736 151.637 156.812C152.136 155.874 152.818 155.148 153.683 154.634C154.563 154.121 155.538 153.864 156.609 153.864ZM161.097 160.068C161.097 159.159 160.914 158.367 160.547 157.692C160.18 157.018 159.682 156.504 159.051 156.152C158.435 155.786 157.753 155.602 157.005 155.602C156.257 155.602 155.575 155.778 154.959 156.13C154.343 156.482 153.852 156.996 153.485 157.67C153.118 158.345 152.935 159.137 152.935 160.046C152.935 160.97 153.118 161.777 153.485 162.466C153.852 163.141 154.343 163.662 154.959 164.028C155.575 164.38 156.257 164.556 157.005 164.556C157.753 164.556 158.435 164.38 159.051 164.028C159.682 163.662 160.18 163.141 160.547 162.466C160.914 161.777 161.097 160.978 161.097 160.068ZM172.158 153.842C173.625 153.842 174.813 154.29 175.722 155.184C176.632 156.064 177.086 157.34 177.086 159.012V166.118H175.106V159.298C175.106 158.096 174.806 157.179 174.204 156.548C173.603 155.903 172.782 155.58 171.74 155.58C170.684 155.58 169.841 155.91 169.21 156.57C168.594 157.23 168.286 158.191 168.286 159.452V166.118H166.284V154.062H168.286V155.778C168.682 155.162 169.218 154.686 169.892 154.348C170.582 154.011 171.337 153.842 172.158 153.842ZM194.634 153.842C195.573 153.842 196.409 154.04 197.142 154.436C197.876 154.818 198.455 155.397 198.88 156.174C199.306 156.952 199.518 157.898 199.518 159.012V166.118H197.538V159.298C197.538 158.096 197.238 157.179 196.636 156.548C196.05 155.903 195.25 155.58 194.238 155.58C193.197 155.58 192.368 155.918 191.752 156.592C191.136 157.252 190.828 158.213 190.828 159.474V166.118H188.848V159.298C188.848 158.096 188.548 157.179 187.946 156.548C187.36 155.903 186.56 155.58 185.548 155.58C184.507 155.58 183.678 155.918 183.062 156.592C182.446 157.252 182.138 158.213 182.138 159.474V166.118H180.136V154.062H182.138V155.8C182.534 155.17 183.062 154.686 183.722 154.348C184.397 154.011 185.138 153.842 185.944 153.842C186.956 153.842 187.851 154.07 188.628 154.524C189.406 154.979 189.985 155.646 190.366 156.526C190.704 155.676 191.261 155.016 192.038 154.546C192.816 154.077 193.681 153.842 194.634 153.842ZM213.582 159.628C213.582 160.01 213.56 160.413 213.516 160.838H203.88C203.954 162.026 204.357 162.958 205.09 163.632C205.838 164.292 206.74 164.622 207.796 164.622C208.662 164.622 209.38 164.424 209.952 164.028C210.539 163.618 210.95 163.075 211.184 162.4H213.34C213.018 163.559 212.372 164.505 211.404 165.238C210.436 165.957 209.234 166.316 207.796 166.316C206.652 166.316 205.626 166.06 204.716 165.546C203.822 165.033 203.118 164.307 202.604 163.368C202.091 162.415 201.834 161.315 201.834 160.068C201.834 158.822 202.084 157.729 202.582 156.79C203.081 155.852 203.778 155.133 204.672 154.634C205.582 154.121 206.623 153.864 207.796 153.864C208.94 153.864 209.952 154.114 210.832 154.612C211.712 155.111 212.387 155.8 212.856 156.68C213.34 157.546 213.582 158.528 213.582 159.628ZM211.514 159.21C211.514 158.448 211.346 157.795 211.008 157.252C210.671 156.695 210.209 156.277 209.622 155.998C209.05 155.705 208.412 155.558 207.708 155.558C206.696 155.558 205.831 155.881 205.112 156.526C204.408 157.172 204.005 158.066 203.902 159.21H211.514ZM221.879 153.842C223.346 153.842 224.534 154.29 225.443 155.184C226.352 156.064 226.807 157.34 226.807 159.012V166.118H224.827V159.298C224.827 158.096 224.526 157.179 223.925 156.548C223.324 155.903 222.502 155.58 221.461 155.58C220.405 155.58 219.562 155.91 218.931 156.57C218.315 157.23 218.007 158.191 218.007 159.452V166.118H216.005V154.062H218.007V155.778C218.403 155.162 218.938 154.686 219.613 154.348C220.302 154.011 221.058 153.842 221.879 153.842ZM232.299 155.712V162.818C232.299 163.405 232.424 163.823 232.673 164.072C232.923 164.307 233.355 164.424 233.971 164.424H235.445V166.118H233.641C232.527 166.118 231.691 165.862 231.133 165.348C230.576 164.835 230.297 163.992 230.297 162.818V155.712H228.735V154.062H230.297V151.026H232.299V154.062H235.445V155.712H232.299ZM241.919 166.316C240.995 166.316 240.166 166.162 239.433 165.854C238.7 165.532 238.12 165.092 237.695 164.534C237.27 163.962 237.035 163.31 236.991 162.576H239.059C239.118 163.178 239.396 163.669 239.895 164.05C240.408 164.432 241.076 164.622 241.897 164.622C242.66 164.622 243.261 164.454 243.701 164.116C244.141 163.779 244.361 163.354 244.361 162.84C244.361 162.312 244.126 161.924 243.657 161.674C243.188 161.41 242.462 161.154 241.479 160.904C240.584 160.67 239.851 160.435 239.279 160.2C238.722 159.951 238.238 159.592 237.827 159.122C237.431 158.638 237.233 158.008 237.233 157.23C237.233 156.614 237.416 156.05 237.783 155.536C238.15 155.023 238.67 154.62 239.345 154.326C240.02 154.018 240.79 153.864 241.655 153.864C242.99 153.864 244.068 154.202 244.889 154.876C245.71 155.551 246.15 156.475 246.209 157.648H244.207C244.163 157.018 243.906 156.512 243.437 156.13C242.982 155.749 242.366 155.558 241.589 155.558C240.87 155.558 240.298 155.712 239.873 156.02C239.448 156.328 239.235 156.732 239.235 157.23C239.235 157.626 239.36 157.956 239.609 158.22C239.873 158.47 240.196 158.675 240.577 158.836C240.973 158.983 241.516 159.152 242.205 159.342C243.07 159.577 243.774 159.812 244.317 160.046C244.86 160.266 245.322 160.604 245.703 161.058C246.099 161.513 246.304 162.107 246.319 162.84C246.319 163.5 246.136 164.094 245.769 164.622C245.402 165.15 244.882 165.568 244.207 165.876C243.547 166.17 242.784 166.316 241.919 166.316ZM259.476 155.712H256.946V166.118H254.944V155.712H253.382V154.062H254.944V153.204C254.944 151.855 255.289 150.872 255.978 150.256C256.682 149.626 257.804 149.31 259.344 149.31V150.982C258.464 150.982 257.841 151.158 257.474 151.51C257.122 151.848 256.946 152.412 256.946 153.204V154.062H259.476V155.712ZM266.849 166.316C265.719 166.316 264.693 166.06 263.769 165.546C262.859 165.033 262.141 164.307 261.613 163.368C261.099 162.415 260.843 161.315 260.843 160.068C260.843 158.836 261.107 157.751 261.635 156.812C262.177 155.859 262.911 155.133 263.835 154.634C264.759 154.121 265.793 153.864 266.937 153.864C268.081 153.864 269.115 154.121 270.039 154.634C270.963 155.133 271.689 155.852 272.217 156.79C272.759 157.729 273.031 158.822 273.031 160.068C273.031 161.315 272.752 162.415 272.195 163.368C271.652 164.307 270.911 165.033 269.973 165.546C269.034 166.06 267.993 166.316 266.849 166.316ZM266.849 164.556C267.567 164.556 268.242 164.388 268.873 164.05C269.503 163.713 270.009 163.207 270.391 162.532C270.787 161.858 270.985 161.036 270.985 160.068C270.985 159.1 270.794 158.279 270.413 157.604C270.031 156.93 269.533 156.431 268.917 156.108C268.301 155.771 267.633 155.602 266.915 155.602C266.181 155.602 265.507 155.771 264.891 156.108C264.289 156.431 263.805 156.93 263.439 157.604C263.072 158.279 262.889 159.1 262.889 160.068C262.889 161.051 263.065 161.88 263.417 162.554C263.783 163.229 264.267 163.735 264.869 164.072C265.47 164.395 266.13 164.556 266.849 164.556ZM277.445 156.02C277.797 155.331 278.296 154.796 278.941 154.414C279.601 154.033 280.4 153.842 281.339 153.842V155.91H280.811C278.567 155.91 277.445 157.128 277.445 159.562V166.118H275.443V154.062H277.445V156.02ZM299.459 154.062L292.199 171.794H290.131L292.507 165.986L287.645 154.062H289.867L293.651 163.83L297.391 154.062H299.459ZM306.51 166.316C305.38 166.316 304.354 166.06 303.43 165.546C302.52 165.033 301.802 164.307 301.274 163.368C300.76 162.415 300.504 161.315 300.504 160.068C300.504 158.836 300.768 157.751 301.296 156.812C301.838 155.859 302.572 155.133 303.496 154.634C304.42 154.121 305.454 153.864 306.598 153.864C307.742 153.864 308.776 154.121 309.7 154.634C310.624 155.133 311.35 155.852 311.878 156.79C312.42 157.729 312.692 158.822 312.692 160.068C312.692 161.315 312.413 162.415 311.856 163.368C311.313 164.307 310.572 165.033 309.634 165.546C308.695 166.06 307.654 166.316 306.51 166.316ZM306.51 164.556C307.228 164.556 307.903 164.388 308.534 164.05C309.164 163.713 309.67 163.207 310.052 162.532C310.448 161.858 310.646 161.036 310.646 160.068C310.646 159.1 310.455 158.279 310.074 157.604C309.692 156.93 309.194 156.431 308.578 156.108C307.962 155.771 307.294 155.602 306.576 155.602C305.842 155.602 305.168 155.771 304.552 156.108C303.95 156.431 303.466 156.93 303.1 157.604C302.733 158.279 302.55 159.1 302.55 160.068C302.55 161.051 302.726 161.88 303.078 162.554C303.444 163.229 303.928 163.735 304.53 164.072C305.131 164.395 305.791 164.556 306.51 164.556ZM325.796 154.062V166.118H323.794V164.336C323.413 164.952 322.877 165.436 322.188 165.788C321.513 166.126 320.765 166.294 319.944 166.294C319.005 166.294 318.162 166.104 317.414 165.722C316.666 165.326 316.072 164.74 315.632 163.962C315.207 163.185 314.994 162.239 314.994 161.124V154.062H316.974V160.86C316.974 162.048 317.275 162.965 317.876 163.61C318.477 164.241 319.299 164.556 320.34 164.556C321.411 164.556 322.254 164.226 322.87 163.566C323.486 162.906 323.794 161.946 323.794 160.684V154.062H325.796ZM330.958 156.02C331.31 155.331 331.809 154.796 332.454 154.414C333.114 154.033 333.913 153.842 334.852 153.842V155.91H334.324C332.08 155.91 330.958 157.128 330.958 159.562V166.118H328.956V154.062H330.958V156.02ZM341.84 160.068C341.84 158.822 342.09 157.736 342.588 156.812C343.087 155.874 343.776 155.148 344.656 154.634C345.551 154.121 346.57 153.864 347.714 153.864C349.196 153.864 350.413 154.224 351.366 154.942C352.334 155.661 352.972 156.658 353.28 157.934H351.124C350.919 157.201 350.516 156.622 349.914 156.196C349.328 155.771 348.594 155.558 347.714 155.558C346.57 155.558 345.646 155.954 344.942 156.746C344.238 157.524 343.886 158.631 343.886 160.068C343.886 161.52 344.238 162.642 344.942 163.434C345.646 164.226 346.57 164.622 347.714 164.622C348.594 164.622 349.328 164.417 349.914 164.006C350.501 163.596 350.904 163.009 351.124 162.246H353.28C352.958 163.478 352.312 164.468 351.344 165.216C350.376 165.95 349.166 166.316 347.714 166.316C346.57 166.316 345.551 166.06 344.656 165.546C343.776 165.033 343.087 164.307 342.588 163.368C342.09 162.43 341.84 161.33 341.84 160.068ZM357.734 149.838V166.118H355.732V149.838H357.734ZM360.178 160.046C360.178 158.814 360.427 157.736 360.926 156.812C361.424 155.874 362.106 155.148 362.972 154.634C363.852 154.121 364.827 153.864 365.898 153.864C366.954 153.864 367.87 154.092 368.648 154.546C369.425 155.001 370.004 155.573 370.386 156.262V154.062H372.41V166.118H370.386V163.874C369.99 164.578 369.396 165.165 368.604 165.634C367.826 166.089 366.917 166.316 365.876 166.316C364.805 166.316 363.837 166.052 362.972 165.524C362.106 164.996 361.424 164.256 360.926 163.302C360.427 162.349 360.178 161.264 360.178 160.046ZM370.386 160.068C370.386 159.159 370.202 158.367 369.836 157.692C369.469 157.018 368.97 156.504 368.34 156.152C367.724 155.786 367.042 155.602 366.294 155.602C365.546 155.602 364.864 155.778 364.248 156.13C363.632 156.482 363.14 156.996 362.774 157.67C362.407 158.345 362.224 159.137 362.224 160.046C362.224 160.97 362.407 161.777 362.774 162.466C363.14 163.141 363.632 163.662 364.248 164.028C364.864 164.38 365.546 164.556 366.294 164.556C367.042 164.556 367.724 164.38 368.34 164.028C368.97 163.662 369.469 163.141 369.836 162.466C370.202 161.777 370.386 160.978 370.386 160.068ZM379.841 166.316C378.917 166.316 378.088 166.162 377.355 165.854C376.622 165.532 376.042 165.092 375.617 164.534C375.192 163.962 374.957 163.31 374.913 162.576H376.981C377.04 163.178 377.318 163.669 377.817 164.05C378.33 164.432 378.998 164.622 379.819 164.622C380.582 164.622 381.183 164.454 381.623 164.116C382.063 163.779 382.283 163.354 382.283 162.84C382.283 162.312 382.048 161.924 381.579 161.674C381.11 161.41 380.384 161.154 379.401 160.904C378.506 160.67 377.773 160.435 377.201 160.2C376.644 159.951 376.16 159.592 375.749 159.122C375.353 158.638 375.155 158.008 375.155 157.23C375.155 156.614 375.338 156.05 375.705 155.536C376.072 155.023 376.592 154.62 377.267 154.326C377.942 154.018 378.712 153.864 379.577 153.864C380.912 153.864 381.99 154.202 382.811 154.876C383.632 155.551 384.072 156.475 384.131 157.648H382.129C382.085 157.018 381.828 156.512 381.359 156.13C380.904 155.749 380.288 155.558 379.511 155.558C378.792 155.558 378.22 155.712 377.795 156.02C377.37 156.328 377.157 156.732 377.157 157.23C377.157 157.626 377.282 157.956 377.531 158.22C377.795 158.47 378.118 158.675 378.499 158.836C378.895 158.983 379.438 159.152 380.127 159.342C380.992 159.577 381.696 159.812 382.239 160.046C382.782 160.266 383.244 160.604 383.625 161.058C384.021 161.513 384.226 162.107 384.241 162.84C384.241 163.5 384.058 164.094 383.691 164.622C383.324 165.15 382.804 165.568 382.129 165.876C381.469 166.17 380.706 166.316 379.841 166.316ZM391.115 166.316C390.191 166.316 389.362 166.162 388.629 165.854C387.896 165.532 387.316 165.092 386.891 164.534C386.466 163.962 386.231 163.31 386.187 162.576H388.255C388.314 163.178 388.592 163.669 389.091 164.05C389.604 164.432 390.272 164.622 391.093 164.622C391.856 164.622 392.457 164.454 392.897 164.116C393.337 163.779 393.557 163.354 393.557 162.84C393.557 162.312 393.322 161.924 392.853 161.674C392.384 161.41 391.658 161.154 390.675 160.904C389.78 160.67 389.047 160.435 388.475 160.2C387.918 159.951 387.434 159.592 387.023 159.122C386.627 158.638 386.429 158.008 386.429 157.23C386.429 156.614 386.612 156.05 386.979 155.536C387.346 155.023 387.866 154.62 388.541 154.326C389.216 154.018 389.986 153.864 390.851 153.864C392.186 153.864 393.264 154.202 394.085 154.876C394.906 155.551 395.346 156.475 395.405 157.648H393.403C393.359 157.018 393.102 156.512 392.633 156.13C392.178 155.749 391.562 155.558 390.785 155.558C390.066 155.558 389.494 155.712 389.069 156.02C388.644 156.328 388.431 156.732 388.431 157.23C388.431 157.626 388.556 157.956 388.805 158.22C389.069 158.47 389.392 158.675 389.773 158.836C390.169 158.983 390.712 159.152 391.401 159.342C392.266 159.577 392.97 159.812 393.513 160.046C394.056 160.266 394.518 160.604 394.899 161.058C395.295 161.513 395.5 162.107 395.515 162.84C395.515 163.5 395.332 164.094 394.965 164.622C394.598 165.15 394.078 165.568 393.403 165.876C392.743 166.17 391.98 166.316 391.115 166.316Z" fill="#434343"/>
<rect x="154.664" y="330.54" width="120.918" height="25.1259" rx="12.5629" fill="#184EA6" fill-opacity="0.1"/>
<path d="M266.78 339.325L259.255 346.85" stroke="#184EA6" stroke-width="1.57037" stroke-linecap="round" stroke-linejoin="round"/>
<path d="M266.783 346.856L259.252 339.323" stroke="#184EA6" stroke-width="1.57037" stroke-linecap="round" stroke-linejoin="round"/>
<path d="M166.22 344.161L166.434 345.634L166.749 344.307L168.957 336.517H170.199L172.354 344.307L172.661 345.657L172.898 344.154L174.631 336.517H176.111L173.405 347.681H172.063L169.762 339.545L169.586 338.694L169.41 339.545L167.025 347.681H165.683L162.984 336.517H164.456L166.22 344.161ZM179.228 347.681H177.81V339.384H179.228V347.681ZM177.695 337.184C177.695 336.954 177.764 336.759 177.902 336.601C178.045 336.443 178.254 336.363 178.53 336.363C178.806 336.363 179.016 336.443 179.159 336.601C179.302 336.759 179.374 336.954 179.374 337.184C179.374 337.414 179.302 337.605 179.159 337.759C179.016 337.912 178.806 337.989 178.53 337.989C178.254 337.989 178.045 337.912 177.902 337.759C177.764 337.605 177.695 337.414 177.695 337.184ZM185.673 340.657C185.458 340.621 185.225 340.604 184.975 340.604C184.045 340.604 183.413 341 183.081 341.792V347.681H181.662V339.384H183.043L183.066 340.343C183.531 339.602 184.19 339.231 185.044 339.231C185.32 339.231 185.53 339.267 185.673 339.338V340.657ZM190.43 347.834C189.306 347.834 188.391 347.466 187.685 346.73C186.98 345.989 186.627 345 186.627 343.763V343.502C186.627 342.679 186.783 341.945 187.095 341.301C187.412 340.652 187.851 340.146 188.414 339.783C188.981 339.415 189.595 339.231 190.254 339.231C191.333 339.231 192.171 339.586 192.769 340.297C193.367 341.007 193.666 342.025 193.666 343.349V343.939H188.046C188.066 344.757 188.304 345.419 188.759 345.925C189.219 346.426 189.802 346.676 190.507 346.676C191.008 346.676 191.432 346.574 191.78 346.37C192.128 346.165 192.432 345.894 192.692 345.557L193.559 346.232C192.864 347.3 191.821 347.834 190.43 347.834ZM190.254 340.397C189.682 340.397 189.201 340.606 188.813 341.025C188.424 341.439 188.184 342.022 188.092 342.774H192.248V342.666C192.207 341.945 192.013 341.388 191.665 340.995C191.317 340.596 190.847 340.397 190.254 340.397ZM196.17 347.681V340.481H194.858V339.384H196.17V338.533C196.17 337.644 196.407 336.956 196.883 336.471C197.358 335.985 198.03 335.742 198.899 335.742C199.227 335.742 199.551 335.786 199.873 335.873L199.797 337.023C199.556 336.977 199.301 336.954 199.03 336.954C198.57 336.954 198.214 337.089 197.964 337.36C197.713 337.626 197.588 338.009 197.588 338.51V339.384H199.359V340.481H197.588V347.681H196.17ZM205.099 340.657C204.884 340.621 204.651 340.604 204.401 340.604C203.471 340.604 202.839 341 202.507 341.792V347.681H201.088V339.384H202.469L202.492 340.343C202.957 339.602 203.616 339.231 204.47 339.231C204.746 339.231 204.956 339.267 205.099 339.338V340.657ZM211.382 347.681C211.3 347.517 211.234 347.226 211.183 346.807C210.523 347.492 209.736 347.834 208.821 347.834C208.003 347.834 207.331 347.604 206.805 347.144C206.283 346.679 206.022 346.091 206.022 345.381C206.022 344.517 206.35 343.847 207.004 343.372C207.663 342.891 208.589 342.651 209.78 342.651H211.16V341.999C211.16 341.503 211.012 341.11 210.715 340.818C210.419 340.522 209.982 340.374 209.404 340.374C208.898 340.374 208.474 340.501 208.131 340.757C207.789 341.013 207.617 341.322 207.617 341.685H206.191C206.191 341.271 206.337 340.872 206.628 340.489C206.925 340.1 207.323 339.793 207.824 339.568C208.33 339.344 208.885 339.231 209.488 339.231C210.444 339.231 211.193 339.471 211.735 339.952C212.277 340.427 212.558 341.084 212.578 341.922V345.741C212.578 346.503 212.676 347.108 212.87 347.558V347.681H211.382ZM209.028 346.6C209.473 346.6 209.895 346.485 210.293 346.255C210.692 346.025 210.981 345.726 211.16 345.358V343.655H210.048C208.31 343.655 207.441 344.164 207.441 345.181C207.441 345.626 207.589 345.974 207.886 346.224C208.182 346.475 208.563 346.6 209.028 346.6ZM216.293 339.384L216.332 340.305C216.94 339.589 217.76 339.231 218.793 339.231C219.953 339.231 220.743 339.676 221.162 340.565C221.438 340.167 221.796 339.844 222.236 339.599C222.681 339.354 223.205 339.231 223.808 339.231C225.628 339.231 226.553 340.195 226.584 342.122V347.681H225.165V342.206C225.165 341.613 225.03 341.171 224.759 340.88C224.488 340.583 224.033 340.435 223.394 340.435C222.867 340.435 222.43 340.593 222.083 340.91C221.735 341.222 221.533 341.644 221.477 342.175V347.681H220.051V342.244C220.051 341.038 219.46 340.435 218.279 340.435C217.349 340.435 216.713 340.831 216.37 341.623V347.681H214.951V339.384H216.293ZM230.429 347.681H229.01V339.384H230.429V347.681ZM228.895 337.184C228.895 336.954 228.964 336.759 229.102 336.601C229.245 336.443 229.455 336.363 229.731 336.363C230.007 336.363 230.217 336.443 230.36 336.601C230.503 336.759 230.574 336.954 230.574 337.184C230.574 337.414 230.503 337.605 230.36 337.759C230.217 337.912 230.007 337.989 229.731 337.989C229.455 337.989 229.245 337.912 229.102 337.759C228.964 337.605 228.895 337.414 228.895 337.184ZM234.205 339.384L234.251 340.427C234.885 339.63 235.713 339.231 236.735 339.231C238.489 339.231 239.373 340.22 239.388 342.198V347.681H237.97V342.191C237.965 341.593 237.827 341.151 237.556 340.864C237.29 340.578 236.873 340.435 236.306 340.435C235.846 340.435 235.442 340.558 235.094 340.803C234.747 341.048 234.476 341.37 234.282 341.769V347.681H232.863V339.384H234.205ZM241.347 343.464C241.347 342.17 241.646 341.143 242.245 340.381C242.843 339.614 243.635 339.231 244.622 339.231C245.634 339.231 246.424 339.589 246.991 340.305L247.06 339.384H248.356V347.482C248.356 348.555 248.036 349.401 247.397 350.02C246.763 350.638 245.91 350.947 244.836 350.947C244.238 350.947 243.653 350.82 243.08 350.564C242.508 350.308 242.071 349.958 241.769 349.514L242.505 348.662C243.114 349.414 243.857 349.79 244.737 349.79C245.427 349.79 245.963 349.595 246.347 349.207C246.735 348.818 246.93 348.271 246.93 347.566V346.853C246.362 347.507 245.588 347.834 244.606 347.834C243.635 347.834 242.848 347.443 242.245 346.661C241.646 345.879 241.347 344.813 241.347 343.464ZM242.774 343.625C242.774 344.56 242.965 345.296 243.349 345.833C243.732 346.365 244.269 346.63 244.959 346.63C245.854 346.63 246.51 346.224 246.93 345.411V341.623C246.495 340.831 245.843 340.435 244.974 340.435C244.284 340.435 243.745 340.703 243.356 341.24C242.968 341.777 242.774 342.572 242.774 343.625Z" fill="#184EA6"/>
<rect x="285.625" y="331" width="153" height="24" rx="12" fill="#06C1B0" fill-opacity="0.1"/>
<path d="M298.274 343.686H295.769V348H294.355V337.336H297.886C299.087 337.336 300.01 337.609 300.654 338.156C301.304 338.703 301.628 339.499 301.628 340.544C301.628 341.208 301.448 341.787 301.086 342.28C300.73 342.773 300.232 343.142 299.592 343.386L302.097 347.912V348H300.588L298.274 343.686ZM295.769 342.536H297.93C298.628 342.536 299.182 342.355 299.592 341.994C300.007 341.633 300.215 341.149 300.215 340.544C300.215 339.885 300.017 339.379 299.622 339.028C299.231 338.676 298.665 338.498 297.922 338.493H295.769V342.536ZM308.436 348C308.358 347.844 308.295 347.565 308.246 347.165C307.616 347.819 306.864 348.146 305.99 348.146C305.209 348.146 304.567 347.927 304.064 347.487C303.566 347.043 303.317 346.481 303.317 345.803C303.317 344.978 303.629 344.338 304.254 343.884C304.884 343.425 305.768 343.195 306.905 343.195H308.224V342.573C308.224 342.099 308.082 341.723 307.799 341.445C307.516 341.162 307.098 341.02 306.546 341.02C306.063 341.02 305.658 341.142 305.331 341.386C305.004 341.63 304.84 341.926 304.84 342.272H303.478C303.478 341.877 303.617 341.496 303.895 341.13C304.178 340.759 304.559 340.466 305.038 340.251C305.521 340.036 306.051 339.929 306.627 339.929C307.54 339.929 308.255 340.158 308.773 340.617C309.291 341.071 309.559 341.699 309.579 342.5V346.147C309.579 346.875 309.671 347.453 309.857 347.883V348H308.436ZM306.188 346.967C306.612 346.967 307.015 346.857 307.396 346.638C307.777 346.418 308.053 346.132 308.224 345.781V344.155H307.162C305.502 344.155 304.671 344.641 304.671 345.612C304.671 346.037 304.813 346.369 305.096 346.608C305.379 346.848 305.743 346.967 306.188 346.967ZM318.547 344.125C318.547 345.332 318.271 346.303 317.719 347.041C317.168 347.778 316.421 348.146 315.478 348.146C314.516 348.146 313.759 347.841 313.208 347.231V351.047H311.853V340.075H313.091L313.156 340.954C313.708 340.271 314.475 339.929 315.456 339.929C316.408 339.929 317.16 340.288 317.712 341.005C318.269 341.723 318.547 342.722 318.547 344.001V344.125ZM317.192 343.972C317.192 343.078 317.002 342.373 316.621 341.855C316.24 341.337 315.717 341.079 315.053 341.079C314.233 341.079 313.618 341.442 313.208 342.17V345.957C313.613 346.679 314.233 347.041 315.068 347.041C315.717 347.041 316.233 346.784 316.613 346.271C316.999 345.754 317.192 344.987 317.192 343.972ZM321.898 348H320.543V340.075H321.898V348ZM320.433 337.973C320.433 337.753 320.499 337.568 320.631 337.417C320.767 337.265 320.968 337.189 321.231 337.189C321.495 337.189 321.695 337.265 321.832 337.417C321.969 337.568 322.037 337.753 322.037 337.973C322.037 338.193 321.969 338.376 321.832 338.522C321.695 338.669 321.495 338.742 321.231 338.742C320.968 338.742 320.767 338.669 320.631 338.522C320.499 338.376 320.433 338.193 320.433 337.973ZM323.893 343.972C323.893 342.756 324.182 341.779 324.758 341.042C325.334 340.3 326.088 339.929 327.021 339.929C327.949 339.929 328.683 340.246 329.225 340.881V336.75H330.58V348H329.335L329.269 347.15C328.727 347.814 327.973 348.146 327.006 348.146C326.088 348.146 325.339 347.771 324.758 347.019C324.182 346.267 323.893 345.285 323.893 344.074V343.972ZM325.248 344.125C325.248 345.024 325.434 345.727 325.805 346.235C326.176 346.743 326.689 346.997 327.343 346.997C328.203 346.997 328.83 346.611 329.225 345.839V342.199C328.82 341.452 328.198 341.079 327.358 341.079C326.694 341.079 326.176 341.335 325.805 341.848C325.434 342.36 325.248 343.12 325.248 344.125ZM338.329 343.825V348H336.923V337.336H340.856C342.023 337.336 342.936 337.634 343.595 338.229C344.259 338.825 344.591 339.614 344.591 340.595C344.591 341.63 344.267 342.429 343.617 342.99C342.973 343.547 342.047 343.825 340.841 343.825H338.329ZM338.329 342.675H340.856C341.608 342.675 342.184 342.5 342.585 342.148C342.985 341.792 343.185 341.279 343.185 340.61C343.185 339.975 342.985 339.467 342.585 339.086C342.184 338.706 341.635 338.508 340.937 338.493H338.329V342.675ZM350.154 341.291C349.949 341.257 349.727 341.24 349.487 341.24C348.599 341.24 347.996 341.618 347.678 342.375V348H346.323V340.075H347.642L347.664 340.991C348.108 340.283 348.738 339.929 349.553 339.929C349.817 339.929 350.017 339.963 350.154 340.031V341.291ZM351.051 343.964C351.051 343.188 351.202 342.49 351.505 341.87C351.813 341.25 352.238 340.771 352.78 340.434C353.326 340.097 353.949 339.929 354.647 339.929C355.726 339.929 356.598 340.302 357.262 341.049C357.931 341.796 358.265 342.79 358.265 344.03V344.125C358.265 344.897 358.117 345.59 357.819 346.206C357.526 346.816 357.103 347.292 356.552 347.634C356.005 347.976 355.375 348.146 354.662 348.146C353.588 348.146 352.716 347.773 352.047 347.026C351.383 346.279 351.051 345.29 351.051 344.06V343.964ZM352.413 344.125C352.413 345.004 352.616 345.71 353.021 346.242C353.431 346.774 353.978 347.041 354.662 347.041C355.35 347.041 355.897 346.772 356.303 346.235C356.708 345.693 356.91 344.936 356.91 343.964C356.91 343.095 356.703 342.392 356.288 341.855C355.878 341.313 355.331 341.042 354.647 341.042C353.978 341.042 353.439 341.308 353.029 341.84C352.618 342.373 352.413 343.134 352.413 344.125ZM361.953 338.156V340.075H363.433V341.123H361.953V346.037C361.953 346.354 362.019 346.594 362.151 346.755C362.283 346.911 362.507 346.989 362.825 346.989C362.981 346.989 363.196 346.96 363.469 346.901V348C363.113 348.098 362.766 348.146 362.429 348.146C361.824 348.146 361.367 347.963 361.059 347.597C360.752 347.231 360.598 346.711 360.598 346.037V341.123H359.155V340.075H360.598V338.156H361.953ZM364.667 343.964C364.667 343.188 364.818 342.49 365.121 341.87C365.428 341.25 365.853 340.771 366.395 340.434C366.942 340.097 367.564 339.929 368.263 339.929C369.342 339.929 370.213 340.302 370.877 341.049C371.546 341.796 371.881 342.79 371.881 344.03V344.125C371.881 344.897 371.732 345.59 371.434 346.206C371.141 346.816 370.719 347.292 370.167 347.634C369.62 347.976 368.99 348.146 368.277 348.146C367.203 348.146 366.332 347.773 365.663 347.026C364.999 346.279 364.667 345.29 364.667 344.06V343.964ZM366.029 344.125C366.029 345.004 366.231 345.71 366.637 346.242C367.047 346.774 367.594 347.041 368.277 347.041C368.966 347.041 369.513 346.772 369.918 346.235C370.323 345.693 370.526 344.936 370.526 343.964C370.526 343.095 370.318 342.392 369.903 341.855C369.493 341.313 368.946 341.042 368.263 341.042C367.594 341.042 367.054 341.308 366.644 341.84C366.234 342.373 366.029 343.134 366.029 344.125ZM375.568 338.156V340.075H377.048V341.123H375.568V346.037C375.568 346.354 375.634 346.594 375.766 346.755C375.898 346.911 376.123 346.989 376.44 346.989C376.596 346.989 376.811 346.96 377.085 346.901V348C376.728 348.098 376.381 348.146 376.045 348.146C375.439 348.146 374.983 347.963 374.675 347.597C374.367 347.231 374.213 346.711 374.213 346.037V341.123H372.771V340.075H374.213V338.156H375.568ZM381.38 346.015L383.226 340.075H384.676L381.49 349.223C380.997 350.542 380.213 351.201 379.139 351.201L378.883 351.179L378.377 351.083V349.985L378.743 350.014C379.202 350.014 379.559 349.921 379.813 349.736C380.071 349.55 380.284 349.211 380.45 348.718L380.75 347.912L377.923 340.075H379.403L381.38 346.015ZM392.736 344.125C392.736 345.332 392.46 346.303 391.908 347.041C391.357 347.778 390.61 348.146 389.667 348.146C388.705 348.146 387.949 347.841 387.397 347.231V351.047H386.042V340.075H387.28L387.346 340.954C387.897 340.271 388.664 339.929 389.645 339.929C390.597 339.929 391.349 340.288 391.901 341.005C392.458 341.723 392.736 342.722 392.736 344.001V344.125ZM391.381 343.972C391.381 343.078 391.191 342.373 390.81 341.855C390.429 341.337 389.907 341.079 389.242 341.079C388.422 341.079 387.807 341.442 387.397 342.17V345.957C387.802 346.679 388.422 347.041 389.257 347.041C389.907 347.041 390.422 346.784 390.803 346.271C391.188 345.754 391.381 344.987 391.381 343.972ZM396.087 348H394.732V340.075H396.087V348ZM394.622 337.973C394.622 337.753 394.688 337.568 394.82 337.417C394.956 337.265 395.157 337.189 395.42 337.189C395.684 337.189 395.884 337.265 396.021 337.417C396.158 337.568 396.226 337.753 396.226 337.973C396.226 338.193 396.158 338.376 396.021 338.522C395.884 338.669 395.684 338.742 395.42 338.742C395.157 338.742 394.956 338.669 394.82 338.522C394.688 338.376 394.622 338.193 394.622 337.973ZM399.694 340.075L399.738 341.071C400.343 340.31 401.134 339.929 402.111 339.929C403.786 339.929 404.63 340.874 404.645 342.763V348H403.29V342.756C403.285 342.185 403.153 341.762 402.895 341.489C402.641 341.215 402.243 341.079 401.701 341.079C401.261 341.079 400.875 341.196 400.543 341.43C400.211 341.665 399.953 341.972 399.767 342.353V348H398.412V340.075H399.694ZM406.516 343.972C406.516 342.736 406.802 341.755 407.373 341.027C407.944 340.295 408.701 339.929 409.644 339.929C410.61 339.929 411.365 340.271 411.907 340.954L411.973 340.075H413.211V347.81C413.211 348.835 412.905 349.643 412.295 350.234C411.69 350.825 410.874 351.12 409.849 351.12C409.277 351.12 408.718 350.998 408.171 350.754C407.625 350.51 407.207 350.175 406.919 349.75L407.622 348.938C408.203 349.655 408.914 350.014 409.754 350.014C410.413 350.014 410.925 349.829 411.292 349.458C411.663 349.086 411.848 348.564 411.848 347.89V347.209C411.306 347.834 410.567 348.146 409.629 348.146C408.701 348.146 407.949 347.773 407.373 347.026C406.802 346.279 406.516 345.261 406.516 343.972ZM407.879 344.125C407.879 345.019 408.062 345.722 408.428 346.235C408.794 346.743 409.307 346.997 409.966 346.997C410.82 346.997 411.448 346.608 411.848 345.832V342.214C411.433 341.457 410.811 341.079 409.981 341.079C409.321 341.079 408.806 341.335 408.435 341.848C408.064 342.36 407.879 343.12 407.879 344.125Z" fill="#06C1B0"/>
<path d="M430.218 339.392L423.03 346.58" stroke="#06C1B0" stroke-width="1.5" stroke-linecap="round" stroke-linejoin="round"/>
<path d="M430.22 346.585L423.026 339.389" stroke="#06C1B0" stroke-width="1.5" stroke-linecap="round" stroke-linejoin="round"/>
<path d="M120.793 350.937H111.326" stroke="#434343" stroke-width="1.96296" stroke-linecap="round" stroke-linejoin="round"/>
<path fill-rule="evenodd" clip-rule="evenodd" d="M135.189 350.937C135.189 353.019 133.502 354.706 131.42 354.706C129.339 354.706 127.651 353.019 127.651 350.937C127.651 348.854 129.339 347.169 131.42 347.169C133.502 347.169 135.189 348.854 135.189 350.937Z" stroke="#434343" stroke-width="1.96296" stroke-linecap="round" stroke-linejoin="round"/>
<path d="M125.721 335.594H135.189" stroke="#434343" stroke-width="1.96296" stroke-linecap="round" stroke-linejoin="round"/>
<path fill-rule="evenodd" clip-rule="evenodd" d="M111.326 335.594C111.326 337.677 113.013 339.363 115.095 339.363C117.176 339.363 118.863 337.677 118.863 335.594C118.863 333.513 117.176 331.825 115.095 331.825C113.013 331.825 111.326 333.513 111.326 335.594Z" stroke="#434343" stroke-width="1.96296" stroke-linecap="round" stroke-linejoin="round"/>
<rect x="155.45" y="406.703" width="153.896" height="23.5555" rx="11.7778" stroke="#184EA6" stroke-width="1.57037"/>
<path d="M301.328 414.703L293.803 422.228" stroke="#184EA6" stroke-width="1.57037" stroke-linecap="round" stroke-linejoin="round"/>
<path d="M301.331 422.234L293.8 414.701" stroke="#184EA6" stroke-width="1.57037" stroke-linecap="round" stroke-linejoin="round"/>
<path d="M169.969 418.128H165.284V423.059H163.812V411.894H170.728V413.106H165.284V416.924H169.969V418.128ZM176.238 416.035C176.023 415.999 175.79 415.981 175.54 415.981C174.609 415.981 173.978 416.377 173.646 417.17V423.059H172.227V414.762H173.608L173.631 415.72C174.096 414.979 174.755 414.609 175.609 414.609C175.885 414.609 176.094 414.644 176.238 414.716V416.035ZM179.247 423.059H177.829V414.762H179.247V423.059ZM177.714 412.561C177.714 412.331 177.783 412.137 177.921 411.979C178.064 411.82 178.273 411.741 178.549 411.741C178.825 411.741 179.035 411.82 179.178 411.979C179.321 412.137 179.393 412.331 179.393 412.561C179.393 412.791 179.321 412.983 179.178 413.136C179.035 413.29 178.825 413.366 178.549 413.366C178.273 413.366 178.064 413.29 177.921 413.136C177.783 412.983 177.714 412.791 177.714 412.561ZM181.635 425.282L180.83 424.73C181.311 424.06 181.561 423.37 181.582 422.66V421.379H182.97V422.491C182.97 423.007 182.842 423.524 182.586 424.04C182.336 424.556 182.019 424.97 181.635 425.282ZM196.143 423.059H188.828V422.039L192.692 417.745C193.265 417.096 193.658 416.569 193.873 416.165C194.093 415.756 194.203 415.334 194.203 414.9C194.203 414.317 194.026 413.839 193.674 413.466C193.321 413.093 192.851 412.906 192.263 412.906C191.557 412.906 191.008 413.108 190.614 413.512C190.226 413.911 190.031 414.468 190.031 415.184H188.613C188.613 414.156 188.943 413.326 189.602 412.692C190.267 412.058 191.153 411.741 192.263 411.741C193.3 411.741 194.121 412.014 194.724 412.561C195.327 413.103 195.629 413.826 195.629 414.731C195.629 415.83 194.929 417.139 193.528 418.657L190.537 421.901H196.143V423.059ZM198.454 417.461L199.022 411.894H204.742V413.205H200.226L199.888 416.25C200.435 415.927 201.056 415.766 201.751 415.766C202.769 415.766 203.576 416.104 204.175 416.779C204.773 417.448 205.072 418.356 205.072 419.501C205.072 420.651 204.76 421.558 204.136 422.223C203.518 422.882 202.651 423.212 201.537 423.212C200.55 423.212 199.745 422.938 199.121 422.391C198.498 421.844 198.143 421.088 198.056 420.122H199.397C199.484 420.761 199.712 421.244 200.08 421.571C200.448 421.893 200.934 422.054 201.537 422.054C202.196 422.054 202.713 421.829 203.086 421.379C203.464 420.929 203.653 420.308 203.653 419.516C203.653 418.77 203.449 418.172 203.04 417.722C202.636 417.267 202.097 417.039 201.422 417.039C200.803 417.039 200.318 417.175 199.965 417.446L199.589 417.752L198.454 417.461ZM214.487 418.082C213.225 417.719 212.305 417.274 211.727 416.748C211.154 416.216 210.868 415.562 210.868 414.785C210.868 413.906 211.218 413.18 211.919 412.607C212.624 412.03 213.539 411.741 214.664 411.741C215.431 411.741 216.113 411.889 216.711 412.186C217.314 412.482 217.779 412.891 218.107 413.412C218.439 413.934 218.605 414.504 218.605 415.122H217.125C217.125 414.448 216.91 413.919 216.481 413.535C216.052 413.147 215.446 412.952 214.664 412.952C213.938 412.952 213.37 413.113 212.962 413.435C212.558 413.752 212.356 414.195 212.356 414.762C212.356 415.217 212.547 415.603 212.931 415.92C213.319 416.232 213.976 416.518 214.901 416.779C215.832 417.039 216.558 417.328 217.079 417.645C217.606 417.957 217.994 418.322 218.245 418.742C218.5 419.161 218.628 419.654 218.628 420.221C218.628 421.126 218.275 421.852 217.57 422.399C216.864 422.941 215.921 423.212 214.74 423.212C213.974 423.212 213.258 423.066 212.593 422.775C211.929 422.478 211.415 422.074 211.052 421.563C210.694 421.052 210.515 420.472 210.515 419.823H211.995C211.995 420.497 212.243 421.032 212.739 421.425C213.24 421.814 213.907 422.008 214.74 422.008C215.517 422.008 216.113 421.85 216.527 421.533C216.941 421.216 217.148 420.784 217.148 420.237C217.148 419.69 216.956 419.268 216.573 418.972C216.19 418.67 215.494 418.374 214.487 418.082ZM223.899 423.212C222.775 423.212 221.86 422.844 221.154 422.108C220.449 421.367 220.096 420.377 220.096 419.14V418.88C220.096 418.057 220.252 417.323 220.564 416.679C220.881 416.03 221.321 415.524 221.883 415.161C222.45 414.793 223.064 414.609 223.723 414.609C224.802 414.609 225.64 414.964 226.238 415.674C226.836 416.385 227.135 417.402 227.135 418.726V419.317H221.515C221.535 420.135 221.773 420.797 222.228 421.303C222.688 421.804 223.271 422.054 223.976 422.054C224.477 422.054 224.901 421.952 225.249 421.747C225.597 421.543 225.901 421.272 226.161 420.935L227.028 421.609C226.333 422.678 225.29 423.212 223.899 423.212ZM223.723 415.774C223.151 415.774 222.67 415.984 222.282 416.403C221.893 416.817 221.653 417.4 221.561 418.151H225.717V418.044C225.676 417.323 225.482 416.766 225.134 416.372C224.786 415.973 224.316 415.774 223.723 415.774ZM235.949 419.002C235.949 420.265 235.66 421.282 235.083 422.054C234.505 422.826 233.723 423.212 232.736 423.212C231.729 423.212 230.937 422.892 230.359 422.253V426.248H228.941V414.762H230.237L230.306 415.682C230.883 414.966 231.686 414.609 232.713 414.609C233.71 414.609 234.498 414.984 235.075 415.736C235.658 416.487 235.949 417.533 235.949 418.872V419.002ZM234.531 418.841C234.531 417.906 234.331 417.167 233.933 416.625C233.534 416.083 232.987 415.812 232.292 415.812C231.433 415.812 230.789 416.193 230.359 416.955V420.919C230.784 421.676 231.433 422.054 232.307 422.054C232.987 422.054 233.526 421.786 233.925 421.249C234.329 420.707 234.531 419.905 234.531 418.841ZM237.87 425.282L237.065 424.73C237.545 424.06 237.796 423.37 237.816 422.66V421.379H239.204V422.491C239.204 423.007 239.076 423.524 238.821 424.04C238.57 424.556 238.253 424.97 237.87 425.282ZM249.724 423.059H248.298V413.604L245.438 414.655V413.366L249.502 411.841H249.724V423.059ZM261.245 412.692L256.621 423.059H255.134L259.742 413.06H253.7V411.894H261.245V412.692ZM263.112 422.315C263.112 422.069 263.183 421.865 263.326 421.701C263.475 421.538 263.694 421.456 263.986 421.456C264.277 421.456 264.497 421.538 264.645 421.701C264.799 421.865 264.875 422.069 264.875 422.315C264.875 422.55 264.799 422.747 264.645 422.905C264.497 423.064 264.277 423.143 263.986 423.143C263.694 423.143 263.475 423.064 263.326 422.905C263.183 422.747 263.112 422.55 263.112 422.315ZM263.119 415.544C263.119 415.299 263.191 415.094 263.334 414.931C263.482 414.767 263.702 414.685 263.994 414.685C264.285 414.685 264.505 414.767 264.653 414.931C264.806 415.094 264.883 415.299 264.883 415.544C264.883 415.779 264.806 415.976 264.653 416.135C264.505 416.293 264.285 416.372 263.994 416.372C263.702 416.372 263.482 416.293 263.334 416.135C263.191 415.976 263.119 415.779 263.119 415.544ZM269.035 416.786H270.101C270.77 416.776 271.297 416.6 271.68 416.257C272.064 415.915 272.255 415.452 272.255 414.869C272.255 413.561 271.604 412.906 270.3 412.906C269.687 412.906 269.196 413.083 268.828 413.435C268.465 413.783 268.284 414.246 268.284 414.823H266.865C266.865 413.939 267.187 413.205 267.831 412.623C268.48 412.035 269.303 411.741 270.3 411.741C271.353 411.741 272.179 412.019 272.777 412.577C273.375 413.134 273.674 413.908 273.674 414.9C273.674 415.386 273.516 415.856 273.199 416.311C272.887 416.766 272.46 417.106 271.918 417.331C272.531 417.525 273.004 417.847 273.337 418.297C273.674 418.747 273.843 419.296 273.843 419.945C273.843 420.947 273.516 421.742 272.861 422.33C272.207 422.918 271.356 423.212 270.308 423.212C269.26 423.212 268.406 422.928 267.747 422.361C267.092 421.793 266.765 421.044 266.765 420.114H268.192C268.192 420.702 268.383 421.172 268.767 421.525C269.15 421.878 269.664 422.054 270.308 422.054C270.993 422.054 271.517 421.875 271.88 421.517C272.243 421.159 272.424 420.646 272.424 419.976C272.424 419.327 272.225 418.828 271.826 418.481C271.427 418.133 270.852 417.954 270.101 417.944H269.035V416.786ZM282.948 418.297C282.948 419.958 282.664 421.193 282.097 422C281.529 422.808 280.643 423.212 279.436 423.212C278.245 423.212 277.363 422.818 276.791 422.031C276.218 421.239 275.922 420.058 275.901 418.489V416.595C275.901 414.954 276.185 413.734 276.752 412.937C277.32 412.14 278.209 411.741 279.421 411.741C280.622 411.741 281.506 412.127 282.074 412.899C282.641 413.665 282.933 414.851 282.948 416.457V418.297ZM281.529 416.357C281.529 415.156 281.361 414.281 281.023 413.734C280.686 413.182 280.152 412.906 279.421 412.906C278.695 412.906 278.166 413.18 277.834 413.727C277.501 414.274 277.33 415.115 277.32 416.25V418.519C277.32 419.726 277.494 420.618 277.841 421.195C278.194 421.768 278.726 422.054 279.436 422.054C280.137 422.054 280.655 421.783 280.993 421.241C281.335 420.699 281.514 419.846 281.529 418.68V416.357Z" fill="#184EA6"/>
<path d="M130.782 429.277H115.732C113.926 429.277 112.461 427.812 112.461 426.005V410.956C112.461 409.149 113.926 407.684 115.732 407.684H130.782C132.588 407.684 134.053 409.149 134.053 410.956V426.005C134.053 427.812 132.588 429.277 130.782 429.277Z" stroke="#434343" stroke-width="1.96296" stroke-miterlimit="10"/>
<path d="M112.461 412.919H134.053" stroke="#434343" stroke-width="1.96296" stroke-miterlimit="10"/>
<path d="M117.695 419.789C118.599 419.789 119.331 419.057 119.331 418.154C119.331 417.25 118.599 416.518 117.695 416.518C116.792 416.518 116.06 417.25 116.06 418.154C116.06 419.057 116.792 419.789 117.695 419.789Z" fill="#434343"/>
<path d="M123.257 419.789C124.161 419.789 124.893 419.057 124.893 418.154C124.893 417.25 124.161 416.518 123.257 416.518C122.354 416.518 121.621 417.25 121.621 418.154C121.621 419.057 122.354 419.789 123.257 419.789Z" fill="#434343"/>
<path d="M117.695 425.678C118.599 425.678 119.331 424.946 119.331 424.043C119.331 423.139 118.599 422.407 117.695 422.407C116.792 422.407 116.06 423.139 116.06 424.043C116.06 424.946 116.792 425.678 117.695 425.678Z" fill="#434343"/>
<path d="M123.257 425.678C124.161 425.678 124.893 424.946 124.893 424.043C124.893 423.139 124.161 422.407 123.257 422.407C122.354 422.407 121.621 423.139 121.621 424.043C121.621 424.946 122.354 425.678 123.257 425.678Z" fill="#434343"/>
<path d="M128.819 419.789C129.722 419.789 130.455 419.057 130.455 418.154C130.455 417.25 129.722 416.518 128.819 416.518C127.915 416.518 127.183 417.25 127.183 418.154C127.183 419.057 127.915 419.789 128.819 419.789Z" fill="#434343"/>
<path d="M165.554 266.252C165.206 265.52 164.702 264.956 164.042 264.56C163.382 264.152 162.614 263.948 161.738 263.948C160.862 263.948 160.07 264.152 159.362 264.56C158.666 264.956 158.114 265.532 157.706 266.288C157.31 267.032 157.112 267.896 157.112 268.88C157.112 269.864 157.31 270.728 157.706 271.472C158.114 272.216 158.666 272.792 159.362 273.2C160.07 273.596 160.862 273.794 161.738 273.794C162.962 273.794 163.97 273.428 164.762 272.696C165.554 271.964 166.016 270.974 166.148 269.726H161.144V268.394H167.894V269.654C167.798 270.686 167.474 271.634 166.922 272.498C166.37 273.35 165.644 274.028 164.744 274.532C163.844 275.024 162.842 275.27 161.738 275.27C160.574 275.27 159.512 275 158.552 274.46C157.592 273.908 156.83 273.146 156.266 272.174C155.714 271.202 155.438 270.104 155.438 268.88C155.438 267.656 155.714 266.558 156.266 265.586C156.83 264.602 157.592 263.84 158.552 263.3C159.512 262.748 160.574 262.472 161.738 262.472C163.07 262.472 164.246 262.802 165.266 263.462C166.298 264.122 167.048 265.052 167.516 266.252H165.554ZM179.06 269.852C179.06 270.164 179.042 270.494 179.006 270.842H171.122C171.182 271.814 171.512 272.576 172.112 273.128C172.724 273.668 173.462 273.938 174.326 273.938C175.034 273.938 175.622 273.776 176.09 273.452C176.57 273.116 176.906 272.672 177.098 272.12H178.862C178.598 273.068 178.07 273.842 177.278 274.442C176.486 275.03 175.502 275.324 174.326 275.324C173.39 275.324 172.55 275.114 171.806 274.694C171.074 274.274 170.498 273.68 170.078 272.912C169.658 272.132 169.448 271.232 169.448 270.212C169.448 269.192 169.652 268.298 170.06 267.53C170.468 266.762 171.038 266.174 171.77 265.766C172.514 265.346 173.366 265.136 174.326 265.136C175.262 265.136 176.09 265.34 176.81 265.748C177.53 266.156 178.082 266.72 178.466 267.44C178.862 268.148 179.06 268.952 179.06 269.852ZM177.368 269.51C177.368 268.886 177.23 268.352 176.954 267.908C176.678 267.452 176.3 267.11 175.82 266.882C175.352 266.642 174.83 266.522 174.254 266.522C173.426 266.522 172.718 266.786 172.13 267.314C171.554 267.842 171.224 268.574 171.14 269.51H177.368ZM186.028 265.118C187.228 265.118 188.2 265.484 188.944 266.216C189.688 266.936 190.06 267.98 190.06 269.348V275.162H188.44V269.582C188.44 268.598 188.194 267.848 187.702 267.332C187.21 266.804 186.538 266.54 185.686 266.54C184.822 266.54 184.132 266.81 183.616 267.35C183.112 267.89 182.86 268.676 182.86 269.708V275.162H181.222V265.298H182.86V266.702C183.184 266.198 183.622 265.808 184.174 265.532C184.738 265.256 185.356 265.118 186.028 265.118ZM201.736 269.852C201.736 270.164 201.718 270.494 201.682 270.842H193.798C193.858 271.814 194.188 272.576 194.788 273.128C195.4 273.668 196.138 273.938 197.002 273.938C197.71 273.938 198.298 273.776 198.766 273.452C199.246 273.116 199.582 272.672 199.774 272.12H201.538C201.274 273.068 200.746 273.842 199.954 274.442C199.162 275.03 198.178 275.324 197.002 275.324C196.066 275.324 195.226 275.114 194.482 274.694C193.75 274.274 193.174 273.68 192.754 272.912C192.334 272.132 192.124 271.232 192.124 270.212C192.124 269.192 192.328 268.298 192.736 267.53C193.144 266.762 193.714 266.174 194.446 265.766C195.19 265.346 196.042 265.136 197.002 265.136C197.938 265.136 198.766 265.34 199.486 265.748C200.206 266.156 200.758 266.72 201.142 267.44C201.538 268.148 201.736 268.952 201.736 269.852ZM200.044 269.51C200.044 268.886 199.906 268.352 199.63 267.908C199.354 267.452 198.976 267.11 198.496 266.882C198.028 266.642 197.506 266.522 196.93 266.522C196.102 266.522 195.394 266.786 194.806 267.314C194.23 267.842 193.9 268.574 193.816 269.51H200.044ZM205.536 266.9C205.824 266.336 206.232 265.898 206.76 265.586C207.3 265.274 207.954 265.118 208.722 265.118V266.81H208.29C206.454 266.81 205.536 267.806 205.536 269.798V275.162H203.898V265.298H205.536V266.9ZM211.459 263.696C211.147 263.696 210.883 263.588 210.667 263.372C210.451 263.156 210.343 262.892 210.343 262.58C210.343 262.268 210.451 262.004 210.667 261.788C210.883 261.572 211.147 261.464 211.459 261.464C211.759 261.464 212.011 261.572 212.215 261.788C212.431 262.004 212.539 262.268 212.539 262.58C212.539 262.892 212.431 263.156 212.215 263.372C212.011 263.588 211.759 263.696 211.459 263.696ZM212.251 265.298V275.162H210.613V265.298H212.251ZM214.431 270.212C214.431 269.192 214.635 268.304 215.043 267.548C215.451 266.78 216.015 266.186 216.735 265.766C217.467 265.346 218.301 265.136 219.237 265.136C220.449 265.136 221.445 265.43 222.225 266.018C223.017 266.606 223.539 267.422 223.791 268.466H222.027C221.859 267.866 221.529 267.392 221.037 267.044C220.557 266.696 219.957 266.522 219.237 266.522C218.301 266.522 217.545 266.846 216.969 267.494C216.393 268.13 216.105 269.036 216.105 270.212C216.105 271.4 216.393 272.318 216.969 272.966C217.545 273.614 218.301 273.938 219.237 273.938C219.957 273.938 220.557 273.77 221.037 273.434C221.517 273.098 221.847 272.618 222.027 271.994H223.791C223.527 273.002 222.999 273.812 222.207 274.424C221.415 275.024 220.425 275.324 219.237 275.324C218.301 275.324 217.467 275.114 216.735 274.694C216.015 274.274 215.451 273.68 215.043 272.912C214.635 272.144 214.431 271.244 214.431 270.212ZM230.163 270.194C230.163 269.186 230.367 268.304 230.775 267.548C231.183 266.78 231.741 266.186 232.449 265.766C233.169 265.346 233.973 265.136 234.861 265.136C235.629 265.136 236.343 265.316 237.003 265.676C237.663 266.024 238.167 266.486 238.515 267.062V261.842H240.171V275.162H238.515V273.308C238.191 273.896 237.711 274.382 237.075 274.766C236.439 275.138 235.695 275.324 234.843 275.324C233.967 275.324 233.169 275.108 232.449 274.676C231.741 274.244 231.183 273.638 230.775 272.858C230.367 272.078 230.163 271.19 230.163 270.194ZM238.515 270.212C238.515 269.468 238.365 268.82 238.065 268.268C237.765 267.716 237.357 267.296 236.841 267.008C236.337 266.708 235.779 266.558 235.167 266.558C234.555 266.558 233.997 266.702 233.493 266.99C232.989 267.278 232.587 267.698 232.287 268.25C231.987 268.802 231.837 269.45 231.837 270.194C231.837 270.95 231.987 271.61 232.287 272.174C232.587 272.726 232.989 273.152 233.493 273.452C233.997 273.74 234.555 273.884 235.167 273.884C235.779 273.884 236.337 273.74 236.841 273.452C237.357 273.152 237.765 272.726 238.065 272.174C238.365 271.61 238.515 270.956 238.515 270.212ZM251.939 269.852C251.939 270.164 251.921 270.494 251.885 270.842H244.001C244.061 271.814 244.391 272.576 244.991 273.128C245.603 273.668 246.341 273.938 247.205 273.938C247.913 273.938 248.501 273.776 248.969 273.452C249.449 273.116 249.785 272.672 249.977 272.12H251.741C251.477 273.068 250.949 273.842 250.157 274.442C249.365 275.03 248.381 275.324 247.205 275.324C246.269 275.324 245.429 275.114 244.685 274.694C243.953 274.274 243.377 273.68 242.957 272.912C242.537 272.132 242.327 271.232 242.327 270.212C242.327 269.192 242.531 268.298 242.939 267.53C243.347 266.762 243.917 266.174 244.649 265.766C245.393 265.346 246.245 265.136 247.205 265.136C248.141 265.136 248.969 265.34 249.689 265.748C250.409 266.156 250.961 266.72 251.345 267.44C251.741 268.148 251.939 268.952 251.939 269.852ZM250.247 269.51C250.247 268.886 250.109 268.352 249.833 267.908C249.557 267.452 249.179 267.11 248.699 266.882C248.231 266.642 247.709 266.522 247.133 266.522C246.305 266.522 245.597 266.786 245.009 267.314C244.433 267.842 244.103 268.574 244.019 269.51H250.247ZM256.099 266.648V272.462C256.099 272.942 256.201 273.284 256.405 273.488C256.609 273.68 256.963 273.776 257.467 273.776H258.673V275.162H257.197C256.285 275.162 255.601 274.952 255.145 274.532C254.689 274.112 254.461 273.422 254.461 272.462V266.648H253.183V265.298H254.461V262.814H256.099V265.298H258.673V266.648H256.099ZM260.046 270.194C260.046 269.186 260.25 268.304 260.658 267.548C261.066 266.78 261.624 266.186 262.332 265.766C263.052 265.346 263.85 265.136 264.726 265.136C265.59 265.136 266.34 265.322 266.976 265.694C267.612 266.066 268.086 266.534 268.398 267.098V265.298H270.054V275.162H268.398V273.326C268.074 273.902 267.588 274.382 266.94 274.766C266.304 275.138 265.56 275.324 264.708 275.324C263.832 275.324 263.04 275.108 262.332 274.676C261.624 274.244 261.066 273.638 260.658 272.858C260.25 272.078 260.046 271.19 260.046 270.194ZM268.398 270.212C268.398 269.468 268.248 268.82 267.948 268.268C267.648 267.716 267.24 267.296 266.724 267.008C266.22 266.708 265.662 266.558 265.05 266.558C264.438 266.558 263.88 266.702 263.376 266.99C262.872 267.278 262.47 267.698 262.17 268.25C261.87 268.802 261.72 269.45 261.72 270.194C261.72 270.95 261.87 271.61 262.17 272.174C262.47 272.726 262.872 273.152 263.376 273.452C263.88 273.74 264.438 273.884 265.05 273.884C265.662 273.884 266.22 273.74 266.724 273.452C267.24 273.152 267.648 272.726 267.948 272.174C268.248 271.61 268.398 270.956 268.398 270.212ZM273.668 263.696C273.356 263.696 273.092 263.588 272.876 263.372C272.66 263.156 272.552 262.892 272.552 262.58C272.552 262.268 272.66 262.004 272.876 261.788C273.092 261.572 273.356 261.464 273.668 261.464C273.968 261.464 274.22 261.572 274.424 261.788C274.64 262.004 274.748 262.268 274.748 262.58C274.748 262.892 274.64 263.156 274.424 263.372C274.22 263.588 273.968 263.696 273.668 263.696ZM274.46 265.298V275.162H272.822V265.298H274.46ZM278.89 261.842V275.162H277.252V261.842H278.89ZM285.173 275.324C284.417 275.324 283.739 275.198 283.139 274.946C282.539 274.682 282.065 274.322 281.717 273.866C281.369 273.398 281.177 272.864 281.141 272.264H282.833C282.881 272.756 283.109 273.158 283.517 273.47C283.937 273.782 284.483 273.938 285.155 273.938C285.779 273.938 286.271 273.8 286.631 273.524C286.991 273.248 287.171 272.9 287.171 272.48C287.171 272.048 286.979 271.73 286.595 271.526C286.211 271.31 285.617 271.1 284.813 270.896C284.081 270.704 283.481 270.512 283.013 270.32C282.557 270.116 282.161 269.822 281.825 269.438C281.501 269.042 281.339 268.526 281.339 267.89C281.339 267.386 281.489 266.924 281.789 266.504C282.089 266.084 282.515 265.754 283.067 265.514C283.619 265.262 284.249 265.136 284.957 265.136C286.049 265.136 286.931 265.412 287.603 265.964C288.275 266.516 288.635 267.272 288.683 268.232H287.045C287.009 267.716 286.799 267.302 286.415 266.99C286.043 266.678 285.539 266.522 284.903 266.522C284.315 266.522 283.847 266.648 283.499 266.9C283.151 267.152 282.977 267.482 282.977 267.89C282.977 268.214 283.079 268.484 283.283 268.7C283.499 268.904 283.763 269.072 284.075 269.204C284.399 269.324 284.843 269.462 285.407 269.618C286.115 269.81 286.691 270.002 287.135 270.194C287.579 270.374 287.957 270.65 288.269 271.022C288.593 271.394 288.761 271.88 288.773 272.48C288.773 273.02 288.623 273.506 288.323 273.938C288.023 274.37 287.597 274.712 287.045 274.964C286.505 275.204 285.881 275.324 285.173 275.324ZM304.884 269.852C304.884 270.164 304.866 270.494 304.83 270.842H296.946C297.006 271.814 297.336 272.576 297.936 273.128C298.548 273.668 299.286 273.938 300.15 273.938C300.858 273.938 301.446 273.776 301.914 273.452C302.394 273.116 302.73 272.672 302.922 272.12H304.686C304.422 273.068 303.894 273.842 303.102 274.442C302.31 275.03 301.326 275.324 300.15 275.324C299.214 275.324 298.374 275.114 297.63 274.694C296.898 274.274 296.322 273.68 295.902 272.912C295.482 272.132 295.272 271.232 295.272 270.212C295.272 269.192 295.476 268.298 295.884 267.53C296.292 266.762 296.862 266.174 297.594 265.766C298.338 265.346 299.19 265.136 300.15 265.136C301.086 265.136 301.914 265.34 302.634 265.748C303.354 266.156 303.906 266.72 304.29 267.44C304.686 268.148 304.884 268.952 304.884 269.852ZM303.192 269.51C303.192 268.886 303.054 268.352 302.778 267.908C302.502 267.452 302.124 267.11 301.644 266.882C301.176 266.642 300.654 266.522 300.078 266.522C299.25 266.522 298.542 266.786 297.954 267.314C297.378 267.842 297.048 268.574 296.964 269.51H303.192ZM311.853 265.118C313.053 265.118 314.025 265.484 314.769 266.216C315.513 266.936 315.885 267.98 315.885 269.348V275.162H314.265V269.582C314.265 268.598 314.019 267.848 313.527 267.332C313.035 266.804 312.363 266.54 311.511 266.54C310.647 266.54 309.957 266.81 309.441 267.35C308.937 267.89 308.685 268.676 308.685 269.708V275.162H307.047V265.298H308.685V266.702C309.009 266.198 309.447 265.808 309.999 265.532C310.563 265.256 311.181 265.118 311.853 265.118ZM320.558 266.648V272.462C320.558 272.942 320.66 273.284 320.864 273.488C321.068 273.68 321.422 273.776 321.926 273.776H323.132V275.162H321.656C320.744 275.162 320.06 274.952 319.604 274.532C319.148 274.112 318.92 273.422 318.92 272.462V266.648H317.642V265.298H318.92V262.814H320.558V265.298H323.132V266.648H320.558ZM334.117 269.852C334.117 270.164 334.099 270.494 334.063 270.842H326.179C326.239 271.814 326.569 272.576 327.169 273.128C327.781 273.668 328.519 273.938 329.383 273.938C330.091 273.938 330.679 273.776 331.147 273.452C331.627 273.116 331.963 272.672 332.155 272.12H333.919C333.655 273.068 333.127 273.842 332.335 274.442C331.543 275.03 330.559 275.324 329.383 275.324C328.447 275.324 327.607 275.114 326.863 274.694C326.131 274.274 325.555 273.68 325.135 272.912C324.715 272.132 324.505 271.232 324.505 270.212C324.505 269.192 324.709 268.298 325.117 267.53C325.525 266.762 326.095 266.174 326.827 265.766C327.571 265.346 328.423 265.136 329.383 265.136C330.319 265.136 331.147 265.34 331.867 265.748C332.587 266.156 333.139 266.72 333.523 267.44C333.919 268.148 334.117 268.952 334.117 269.852ZM332.425 269.51C332.425 268.886 332.287 268.352 332.011 267.908C331.735 267.452 331.357 267.11 330.877 266.882C330.409 266.642 329.887 266.522 329.311 266.522C328.483 266.522 327.775 266.786 327.187 267.314C326.611 267.842 326.281 268.574 326.197 269.51H332.425ZM337.917 266.9C338.205 266.336 338.613 265.898 339.141 265.586C339.681 265.274 340.335 265.118 341.103 265.118V266.81H340.671C338.835 266.81 337.917 267.806 337.917 269.798V275.162H336.279V265.298H337.917V266.9ZM351.994 269.852C351.994 270.164 351.976 270.494 351.94 270.842H344.056C344.116 271.814 344.446 272.576 345.046 273.128C345.658 273.668 346.396 273.938 347.26 273.938C347.968 273.938 348.556 273.776 349.024 273.452C349.504 273.116 349.84 272.672 350.032 272.12H351.796C351.532 273.068 351.004 273.842 350.212 274.442C349.42 275.03 348.436 275.324 347.26 275.324C346.324 275.324 345.484 275.114 344.74 274.694C344.008 274.274 343.432 273.68 343.012 272.912C342.592 272.132 342.382 271.232 342.382 270.212C342.382 269.192 342.586 268.298 342.994 267.53C343.402 266.762 343.972 266.174 344.704 265.766C345.448 265.346 346.3 265.136 347.26 265.136C348.196 265.136 349.024 265.34 349.744 265.748C350.464 266.156 351.016 266.72 351.4 267.44C351.796 268.148 351.994 268.952 351.994 269.852ZM350.302 269.51C350.302 268.886 350.164 268.352 349.888 267.908C349.612 267.452 349.234 267.11 348.754 266.882C348.286 266.642 347.764 266.522 347.188 266.522C346.36 266.522 345.652 266.786 345.064 267.314C344.488 267.842 344.158 268.574 344.074 269.51H350.302ZM353.544 270.194C353.544 269.186 353.748 268.304 354.156 267.548C354.564 266.78 355.122 266.186 355.83 265.766C356.55 265.346 357.354 265.136 358.242 265.136C359.01 265.136 359.724 265.316 360.384 265.676C361.044 266.024 361.548 266.486 361.896 267.062V261.842H363.552V275.162H361.896V273.308C361.572 273.896 361.092 274.382 360.456 274.766C359.82 275.138 359.076 275.324 358.224 275.324C357.348 275.324 356.55 275.108 355.83 274.676C355.122 274.244 354.564 273.638 354.156 272.858C353.748 272.078 353.544 271.19 353.544 270.194ZM361.896 270.212C361.896 269.468 361.746 268.82 361.446 268.268C361.146 267.716 360.738 267.296 360.222 267.008C359.718 266.708 359.16 266.558 358.548 266.558C357.936 266.558 357.378 266.702 356.874 266.99C356.37 267.278 355.968 267.698 355.668 268.25C355.368 268.802 355.218 269.45 355.218 270.194C355.218 270.95 355.368 271.61 355.668 272.174C355.968 272.726 356.37 273.152 356.874 273.452C357.378 273.74 357.936 273.884 358.548 273.884C359.16 273.884 359.718 273.74 360.222 273.452C360.738 273.152 361.146 272.726 361.446 272.174C361.746 271.61 361.896 270.956 361.896 270.212ZM376.015 265.118C376.759 265.118 377.431 265.28 378.031 265.604C378.631 265.916 379.099 266.39 379.435 267.026C379.783 267.662 379.957 268.436 379.957 269.348V275.162H378.337V269.582C378.337 268.598 378.091 267.848 377.599 267.332C377.107 266.804 376.435 266.54 375.583 266.54C374.719 266.54 374.029 266.81 373.513 267.35C373.009 267.89 372.757 268.676 372.757 269.708V275.162H371.119V261.842H372.757V266.702C373.081 266.198 373.525 265.808 374.089 265.532C374.665 265.256 375.307 265.118 376.015 265.118ZM391.632 269.852C391.632 270.164 391.614 270.494 391.578 270.842H383.694C383.754 271.814 384.084 272.576 384.684 273.128C385.296 273.668 386.034 273.938 386.898 273.938C387.606 273.938 388.194 273.776 388.662 273.452C389.142 273.116 389.478 272.672 389.67 272.12H391.434C391.17 273.068 390.642 273.842 389.85 274.442C389.058 275.03 388.074 275.324 386.898 275.324C385.962 275.324 385.122 275.114 384.378 274.694C383.646 274.274 383.07 273.68 382.65 272.912C382.23 272.132 382.02 271.232 382.02 270.212C382.02 269.192 382.224 268.298 382.632 267.53C383.04 266.762 383.61 266.174 384.342 265.766C385.086 265.346 385.938 265.136 386.898 265.136C387.834 265.136 388.662 265.34 389.382 265.748C390.102 266.156 390.654 266.72 391.038 267.44C391.434 268.148 391.632 268.952 391.632 269.852ZM389.94 269.51C389.94 268.886 389.802 268.352 389.526 267.908C389.25 267.452 388.872 267.11 388.392 266.882C387.924 266.642 387.402 266.522 386.826 266.522C385.998 266.522 385.29 266.786 384.702 267.314C384.126 267.842 383.796 268.574 383.712 269.51H389.94ZM395.433 266.9C395.721 266.336 396.129 265.898 396.657 265.586C397.197 265.274 397.851 265.118 398.619 265.118V266.81H398.187C396.351 266.81 395.433 267.806 395.433 269.798V275.162H393.795V265.298H395.433V266.9ZM409.509 269.852C409.509 270.164 409.491 270.494 409.455 270.842H401.571C401.631 271.814 401.961 272.576 402.561 273.128C403.173 273.668 403.911 273.938 404.775 273.938C405.483 273.938 406.071 273.776 406.539 273.452C407.019 273.116 407.355 272.672 407.547 272.12H409.311C409.047 273.068 408.519 273.842 407.727 274.442C406.935 275.03 405.951 275.324 404.775 275.324C403.839 275.324 402.999 275.114 402.255 274.694C401.523 274.274 400.947 273.68 400.527 272.912C400.107 272.132 399.897 271.232 399.897 270.212C399.897 269.192 400.101 268.298 400.509 267.53C400.917 266.762 401.487 266.174 402.219 265.766C402.963 265.346 403.815 265.136 404.775 265.136C405.711 265.136 406.539 265.34 407.259 265.748C407.979 266.156 408.531 266.72 408.915 267.44C409.311 268.148 409.509 268.952 409.509 269.852ZM407.817 269.51C407.817 268.886 407.679 268.352 407.403 267.908C407.127 267.452 406.749 267.11 406.269 266.882C405.801 266.642 405.279 266.522 404.703 266.522C403.875 266.522 403.167 266.786 402.579 267.314C402.003 267.842 401.673 268.574 401.589 269.51H407.817Z" fill="#434343"/>
<line x1="118.939" y1="278.325" x2="110.302" y2="278.325" stroke="#434343" stroke-width="2.35555" stroke-linecap="round"/>
<line x1="135.427" y1="267.333" x2="110.301" y2="267.333" stroke="#434343" stroke-width="2.35555" stroke-linecap="round"/>
<line x1="135.427" y1="256.34" x2="110.301" y2="256.34" stroke="#434343" stroke-width="2.35555" stroke-linecap="round"/>
</g>
<defs>
<filter id="filter0_d_9_180" x="0.00611877" y="0.100001" width="741.168" height="571.568" filterUnits="userSpaceOnUse" color-interpolation-filters="sRGB">
<feFlood flood-opacity="0" result="BackgroundImageFix"/>
<feColorMatrix in="SourceAlpha" type="matrix" values="0 0 0 0 0 0 0 0 0 0 0 0 0 0 0 0 0 0 127 0" result="hardAlpha"/>
<feOffset dy="3.24"/>
<feGaussianBlur stdDeviation="38.07"/>
<feColorMatrix type="matrix" values="0 0 0 0 0.587565 0 0 0 0 0.587565 0 0 0 0 0.587565 0 0 0 0.25 0"/>
<feBlend mode="normal" in2="BackgroundImageFix" result="effect1_dropShadow_9_180"/>
<feBlend mode="normal" in="SourceGraphic" in2="effect1_dropShadow_9_180" result="shape"/>
</filter>
</defs>
</svg>
